G04 #@! TF.GenerationSoftware,KiCad,Pcbnew,(5.1.2)-2*
G04 #@! TF.CreationDate,2019-09-22T20:07:18+01:00*
G04 #@! TF.ProjectId,LEDPanelControllerV2,4c454450-616e-4656-9c43-6f6e74726f6c,rev?*
G04 #@! TF.SameCoordinates,Original*
G04 #@! TF.FileFunction,Legend,Bot*
G04 #@! TF.FilePolarity,Positive*
%FSLAX46Y46*%
G04 Gerber Fmt 4.6, Leading zero omitted, Abs format (unit mm)*
G04 Created by KiCad (PCBNEW (5.1.2)-2) date 2019-09-22 20:07:18*
%MOMM*%
%LPD*%
G04 APERTURE LIST*
%ADD10C,0.150000*%
%ADD11C,0.100000*%
%ADD12C,0.120000*%
%ADD13C,0.200000*%
G04 APERTURE END LIST*
D10*
X125495238Y-89757142D02*
X125542857Y-89804761D01*
X125685714Y-89852380D01*
X125780952Y-89852380D01*
X125923809Y-89804761D01*
X126019047Y-89709523D01*
X126066666Y-89614285D01*
X126114285Y-89423809D01*
X126114285Y-89280952D01*
X126066666Y-89090476D01*
X126019047Y-88995238D01*
X125923809Y-88900000D01*
X125780952Y-88852380D01*
X125685714Y-88852380D01*
X125542857Y-88900000D01*
X125495238Y-88947619D01*
X124590476Y-89852380D02*
X125066666Y-89852380D01*
X125066666Y-88852380D01*
X124257142Y-89852380D02*
X124257142Y-88852380D01*
X123685714Y-89852380D02*
X124114285Y-89280952D01*
X123685714Y-88852380D02*
X124257142Y-89423809D01*
X124942857Y-85852380D02*
X125419047Y-85852380D01*
X125419047Y-84852380D01*
X124609523Y-85328571D02*
X124276190Y-85328571D01*
X124133333Y-85852380D02*
X124609523Y-85852380D01*
X124609523Y-84852380D01*
X124133333Y-84852380D01*
X125347619Y-92852380D02*
X125157142Y-92852380D01*
X125061904Y-92900000D01*
X124966666Y-92995238D01*
X124919047Y-93185714D01*
X124919047Y-93519047D01*
X124966666Y-93709523D01*
X125061904Y-93804761D01*
X125157142Y-93852380D01*
X125347619Y-93852380D01*
X125442857Y-93804761D01*
X125538095Y-93709523D01*
X125585714Y-93519047D01*
X125585714Y-93185714D01*
X125538095Y-92995238D01*
X125442857Y-92900000D01*
X125347619Y-92852380D01*
X124490476Y-93328571D02*
X124157142Y-93328571D01*
X124014285Y-93852380D02*
X124490476Y-93852380D01*
X124490476Y-92852380D01*
X124014285Y-92852380D01*
X125638095Y-83852381D02*
X125638095Y-82852381D01*
X125400000Y-82852381D01*
X125257142Y-82900001D01*
X125161904Y-82995239D01*
X125114285Y-83090477D01*
X125066666Y-83280953D01*
X125066666Y-83423810D01*
X125114285Y-83614286D01*
X125161904Y-83709524D01*
X125257142Y-83804762D01*
X125400000Y-83852381D01*
X125638095Y-83852381D01*
X124114285Y-83852381D02*
X124685714Y-83852381D01*
X124400000Y-83852381D02*
X124400000Y-82852381D01*
X124495238Y-82995239D01*
X124590476Y-83090477D01*
X124685714Y-83138096D01*
X125614285Y-87666665D02*
X125138095Y-87666665D01*
X125709523Y-87952379D02*
X125376190Y-86952379D01*
X125042857Y-87952379D01*
X124185714Y-87952379D02*
X124757142Y-87952379D01*
X124471428Y-87952379D02*
X124471428Y-86952379D01*
X124566666Y-87095237D01*
X124661904Y-87190475D01*
X124757142Y-87238094D01*
X125514286Y-91566666D02*
X125038096Y-91566666D01*
X125609524Y-91852380D02*
X125276191Y-90852380D01*
X124942858Y-91852380D01*
X124419048Y-90852380D02*
X124323810Y-90852380D01*
X124228572Y-90900000D01*
X124180953Y-90947619D01*
X124133334Y-91042857D01*
X124085715Y-91233333D01*
X124085715Y-91471428D01*
X124133334Y-91661904D01*
X124180953Y-91757142D01*
X124228572Y-91804761D01*
X124323810Y-91852380D01*
X124419048Y-91852380D01*
X124514286Y-91804761D01*
X124561905Y-91757142D01*
X124609524Y-91661904D01*
X124657143Y-91471428D01*
X124657143Y-91233333D01*
X124609524Y-91042857D01*
X124561905Y-90947619D01*
X124514286Y-90900000D01*
X124419048Y-90852380D01*
X125538095Y-95852381D02*
X125538095Y-94852381D01*
X125300000Y-94852381D01*
X125157142Y-94900001D01*
X125061904Y-94995239D01*
X125014285Y-95090477D01*
X124966666Y-95280953D01*
X124966666Y-95423810D01*
X125014285Y-95614286D01*
X125061904Y-95709524D01*
X125157142Y-95804762D01*
X125300000Y-95852381D01*
X125538095Y-95852381D01*
X124585714Y-94947620D02*
X124538095Y-94900001D01*
X124442857Y-94852381D01*
X124204761Y-94852381D01*
X124109523Y-94900001D01*
X124061904Y-94947620D01*
X124014285Y-95042858D01*
X124014285Y-95138096D01*
X124061904Y-95280953D01*
X124633333Y-95852381D01*
X124014285Y-95852381D01*
X125547619Y-112352380D02*
X125357142Y-112352380D01*
X125261904Y-112400000D01*
X125166666Y-112495238D01*
X125119047Y-112685714D01*
X125119047Y-113019047D01*
X125166666Y-113209523D01*
X125261904Y-113304761D01*
X125357142Y-113352380D01*
X125547619Y-113352380D01*
X125642857Y-113304761D01*
X125738095Y-113209523D01*
X125785714Y-113019047D01*
X125785714Y-112685714D01*
X125738095Y-112495238D01*
X125642857Y-112400000D01*
X125547619Y-112352380D01*
X124690476Y-112828571D02*
X124357142Y-112828571D01*
X124214285Y-113352380D02*
X124690476Y-113352380D01*
X124690476Y-112352380D01*
X124214285Y-112352380D01*
X125838095Y-103352381D02*
X125838095Y-102352381D01*
X125600000Y-102352381D01*
X125457142Y-102400001D01*
X125361904Y-102495239D01*
X125314285Y-102590477D01*
X125266666Y-102780953D01*
X125266666Y-102923810D01*
X125314285Y-103114286D01*
X125361904Y-103209524D01*
X125457142Y-103304762D01*
X125600000Y-103352381D01*
X125838095Y-103352381D01*
X124314285Y-103352381D02*
X124885714Y-103352381D01*
X124600000Y-103352381D02*
X124600000Y-102352381D01*
X124695238Y-102495239D01*
X124790476Y-102590477D01*
X124885714Y-102638096D01*
X125738095Y-115352381D02*
X125738095Y-114352381D01*
X125500000Y-114352381D01*
X125357142Y-114400001D01*
X125261904Y-114495239D01*
X125214285Y-114590477D01*
X125166666Y-114780953D01*
X125166666Y-114923810D01*
X125214285Y-115114286D01*
X125261904Y-115209524D01*
X125357142Y-115304762D01*
X125500000Y-115352381D01*
X125738095Y-115352381D01*
X124785714Y-114447620D02*
X124738095Y-114400001D01*
X124642857Y-114352381D01*
X124404761Y-114352381D01*
X124309523Y-114400001D01*
X124261904Y-114447620D01*
X124214285Y-114542858D01*
X124214285Y-114638096D01*
X124261904Y-114780953D01*
X124833333Y-115352381D01*
X124214285Y-115352381D01*
X125814285Y-107166665D02*
X125338095Y-107166665D01*
X125909523Y-107452379D02*
X125576190Y-106452379D01*
X125242857Y-107452379D01*
X124385714Y-107452379D02*
X124957142Y-107452379D01*
X124671428Y-107452379D02*
X124671428Y-106452379D01*
X124766666Y-106595237D01*
X124861904Y-106690475D01*
X124957142Y-106738094D01*
X125695238Y-109257142D02*
X125742857Y-109304761D01*
X125885714Y-109352380D01*
X125980952Y-109352380D01*
X126123809Y-109304761D01*
X126219047Y-109209523D01*
X126266666Y-109114285D01*
X126314285Y-108923809D01*
X126314285Y-108780952D01*
X126266666Y-108590476D01*
X126219047Y-108495238D01*
X126123809Y-108400000D01*
X125980952Y-108352380D01*
X125885714Y-108352380D01*
X125742857Y-108400000D01*
X125695238Y-108447619D01*
X124790476Y-109352380D02*
X125266666Y-109352380D01*
X125266666Y-108352380D01*
X124457142Y-109352380D02*
X124457142Y-108352380D01*
X123885714Y-109352380D02*
X124314285Y-108780952D01*
X123885714Y-108352380D02*
X124457142Y-108923809D01*
X125142857Y-105352380D02*
X125619047Y-105352380D01*
X125619047Y-104352380D01*
X124809523Y-104828571D02*
X124476190Y-104828571D01*
X124333333Y-105352380D02*
X124809523Y-105352380D01*
X124809523Y-104352380D01*
X124333333Y-104352380D01*
X125714286Y-111066666D02*
X125238096Y-111066666D01*
X125809524Y-111352380D02*
X125476191Y-110352380D01*
X125142858Y-111352380D01*
X124619048Y-110352380D02*
X124523810Y-110352380D01*
X124428572Y-110400000D01*
X124380953Y-110447619D01*
X124333334Y-110542857D01*
X124285715Y-110733333D01*
X124285715Y-110971428D01*
X124333334Y-111161904D01*
X124380953Y-111257142D01*
X124428572Y-111304761D01*
X124523810Y-111352380D01*
X124619048Y-111352380D01*
X124714286Y-111304761D01*
X124761905Y-111257142D01*
X124809524Y-111161904D01*
X124857143Y-110971428D01*
X124857143Y-110733333D01*
X124809524Y-110542857D01*
X124761905Y-110447619D01*
X124714286Y-110400000D01*
X124619048Y-110352380D01*
X169238095Y-103552379D02*
X169238095Y-102552379D01*
X169000000Y-102552379D01*
X168857142Y-102599999D01*
X168761904Y-102695237D01*
X168714285Y-102790475D01*
X168666666Y-102980951D01*
X168666666Y-103123808D01*
X168714285Y-103314284D01*
X168761904Y-103409522D01*
X168857142Y-103504760D01*
X169000000Y-103552379D01*
X169238095Y-103552379D01*
X168285714Y-102647618D02*
X168238095Y-102599999D01*
X168142857Y-102552379D01*
X167904761Y-102552379D01*
X167809523Y-102599999D01*
X167761904Y-102647618D01*
X167714285Y-102742856D01*
X167714285Y-102838094D01*
X167761904Y-102980951D01*
X168333333Y-103552379D01*
X167714285Y-103552379D01*
X168995238Y-109457142D02*
X169042857Y-109504761D01*
X169185714Y-109552380D01*
X169280952Y-109552380D01*
X169423809Y-109504761D01*
X169519047Y-109409523D01*
X169566666Y-109314285D01*
X169614285Y-109123809D01*
X169614285Y-108980952D01*
X169566666Y-108790476D01*
X169519047Y-108695238D01*
X169423809Y-108600000D01*
X169280952Y-108552380D01*
X169185714Y-108552380D01*
X169042857Y-108600000D01*
X168995238Y-108647619D01*
X168090476Y-109552380D02*
X168566666Y-109552380D01*
X168566666Y-108552380D01*
X167757142Y-109552380D02*
X167757142Y-108552380D01*
X167185714Y-109552380D02*
X167614285Y-108980952D01*
X167185714Y-108552380D02*
X167757142Y-109123809D01*
X169138095Y-115552380D02*
X169138095Y-114552380D01*
X168900000Y-114552380D01*
X168757142Y-114600000D01*
X168661904Y-114695238D01*
X168614285Y-114790476D01*
X168566666Y-114980952D01*
X168566666Y-115123809D01*
X168614285Y-115314285D01*
X168661904Y-115409523D01*
X168757142Y-115504761D01*
X168900000Y-115552380D01*
X169138095Y-115552380D01*
X167614285Y-115552380D02*
X168185714Y-115552380D01*
X167900000Y-115552380D02*
X167900000Y-114552380D01*
X167995238Y-114695238D01*
X168090476Y-114790476D01*
X168185714Y-114838095D01*
X168642857Y-113552380D02*
X169119047Y-113552380D01*
X169119047Y-112552380D01*
X168309523Y-113028571D02*
X167976190Y-113028571D01*
X167833333Y-113552380D02*
X168309523Y-113552380D01*
X168309523Y-112552380D01*
X167833333Y-112552380D01*
X169114285Y-111166666D02*
X168638095Y-111166666D01*
X169209523Y-111452380D02*
X168876190Y-110452380D01*
X168542857Y-111452380D01*
X167685714Y-111452380D02*
X168257142Y-111452380D01*
X167971428Y-111452380D02*
X167971428Y-110452380D01*
X168066666Y-110595238D01*
X168161904Y-110690476D01*
X168257142Y-110738095D01*
X169214284Y-107266666D02*
X168738094Y-107266666D01*
X169309522Y-107552380D02*
X168976189Y-106552380D01*
X168642856Y-107552380D01*
X168119046Y-106552380D02*
X168023808Y-106552380D01*
X167928570Y-106600000D01*
X167880951Y-106647619D01*
X167833332Y-106742857D01*
X167785713Y-106933333D01*
X167785713Y-107171428D01*
X167833332Y-107361904D01*
X167880951Y-107457142D01*
X167928570Y-107504761D01*
X168023808Y-107552380D01*
X168119046Y-107552380D01*
X168214284Y-107504761D01*
X168261903Y-107457142D01*
X168309522Y-107361904D01*
X168357141Y-107171428D01*
X168357141Y-106933333D01*
X168309522Y-106742857D01*
X168261903Y-106647619D01*
X168214284Y-106600000D01*
X168119046Y-106552380D01*
X169047619Y-104552380D02*
X168857142Y-104552380D01*
X168761904Y-104600000D01*
X168666666Y-104695238D01*
X168619047Y-104885714D01*
X168619047Y-105219047D01*
X168666666Y-105409523D01*
X168761904Y-105504761D01*
X168857142Y-105552380D01*
X169047619Y-105552380D01*
X169142857Y-105504761D01*
X169238095Y-105409523D01*
X169285714Y-105219047D01*
X169285714Y-104885714D01*
X169238095Y-104695238D01*
X169142857Y-104600000D01*
X169047619Y-104552380D01*
X168190476Y-105028571D02*
X167857142Y-105028571D01*
X167714285Y-105552380D02*
X168190476Y-105552380D01*
X168190476Y-104552380D01*
X167714285Y-104552380D01*
X169095238Y-89257142D02*
X169142857Y-89304761D01*
X169285714Y-89352380D01*
X169380952Y-89352380D01*
X169523809Y-89304761D01*
X169619047Y-89209523D01*
X169666666Y-89114285D01*
X169714285Y-88923809D01*
X169714285Y-88780952D01*
X169666666Y-88590476D01*
X169619047Y-88495238D01*
X169523809Y-88400000D01*
X169380952Y-88352380D01*
X169285714Y-88352380D01*
X169142857Y-88400000D01*
X169095238Y-88447619D01*
X168190476Y-89352380D02*
X168666666Y-89352380D01*
X168666666Y-88352380D01*
X167857142Y-89352380D02*
X167857142Y-88352380D01*
X167285714Y-89352380D02*
X167714285Y-88780952D01*
X167285714Y-88352380D02*
X167857142Y-88923809D01*
X169214285Y-90966666D02*
X168738095Y-90966666D01*
X169309523Y-91252380D02*
X168976190Y-90252380D01*
X168642857Y-91252380D01*
X167785714Y-91252380D02*
X168357142Y-91252380D01*
X168071428Y-91252380D02*
X168071428Y-90252380D01*
X168166666Y-90395238D01*
X168261904Y-90490476D01*
X168357142Y-90538095D01*
X169238095Y-95352380D02*
X169238095Y-94352380D01*
X169000000Y-94352380D01*
X168857142Y-94400000D01*
X168761904Y-94495238D01*
X168714285Y-94590476D01*
X168666666Y-94780952D01*
X168666666Y-94923809D01*
X168714285Y-95114285D01*
X168761904Y-95209523D01*
X168857142Y-95304761D01*
X169000000Y-95352380D01*
X169238095Y-95352380D01*
X167714285Y-95352380D02*
X168285714Y-95352380D01*
X168000000Y-95352380D02*
X168000000Y-94352380D01*
X168095238Y-94495238D01*
X168190476Y-94590476D01*
X168285714Y-94638095D01*
X169338095Y-83352379D02*
X169338095Y-82352379D01*
X169100000Y-82352379D01*
X168957142Y-82399999D01*
X168861904Y-82495237D01*
X168814285Y-82590475D01*
X168766666Y-82780951D01*
X168766666Y-82923808D01*
X168814285Y-83114284D01*
X168861904Y-83209522D01*
X168957142Y-83304760D01*
X169100000Y-83352379D01*
X169338095Y-83352379D01*
X168385714Y-82447618D02*
X168338095Y-82399999D01*
X168242857Y-82352379D01*
X168004761Y-82352379D01*
X167909523Y-82399999D01*
X167861904Y-82447618D01*
X167814285Y-82542856D01*
X167814285Y-82638094D01*
X167861904Y-82780951D01*
X168433333Y-83352379D01*
X167814285Y-83352379D01*
X169314284Y-87066666D02*
X168838094Y-87066666D01*
X169409522Y-87352380D02*
X169076189Y-86352380D01*
X168742856Y-87352380D01*
X168219046Y-86352380D02*
X168123808Y-86352380D01*
X168028570Y-86400000D01*
X167980951Y-86447619D01*
X167933332Y-86542857D01*
X167885713Y-86733333D01*
X167885713Y-86971428D01*
X167933332Y-87161904D01*
X167980951Y-87257142D01*
X168028570Y-87304761D01*
X168123808Y-87352380D01*
X168219046Y-87352380D01*
X168314284Y-87304761D01*
X168361903Y-87257142D01*
X168409522Y-87161904D01*
X168457141Y-86971428D01*
X168457141Y-86733333D01*
X168409522Y-86542857D01*
X168361903Y-86447619D01*
X168314284Y-86400000D01*
X168219046Y-86352380D01*
X168742857Y-93352380D02*
X169219047Y-93352380D01*
X169219047Y-92352380D01*
X168409523Y-92828571D02*
X168076190Y-92828571D01*
X167933333Y-93352380D02*
X168409523Y-93352380D01*
X168409523Y-92352380D01*
X167933333Y-92352380D01*
X169147619Y-84352380D02*
X168957142Y-84352380D01*
X168861904Y-84400000D01*
X168766666Y-84495238D01*
X168719047Y-84685714D01*
X168719047Y-85019047D01*
X168766666Y-85209523D01*
X168861904Y-85304761D01*
X168957142Y-85352380D01*
X169147619Y-85352380D01*
X169242857Y-85304761D01*
X169338095Y-85209523D01*
X169385714Y-85019047D01*
X169385714Y-84685714D01*
X169338095Y-84495238D01*
X169242857Y-84400000D01*
X169147619Y-84352380D01*
X168290476Y-84828571D02*
X167957142Y-84828571D01*
X167814285Y-85352380D02*
X168290476Y-85352380D01*
X168290476Y-84352380D01*
X167814285Y-84352380D01*
D11*
X135150000Y-81050000D02*
X135150000Y-76950000D01*
X132650000Y-76950000D02*
X132650000Y-81000000D01*
X155500000Y-117850000D02*
X155100000Y-117850000D01*
X155500000Y-97750000D02*
X155100000Y-97750000D01*
X155500000Y-98250000D02*
X155500000Y-97750000D01*
X139500000Y-97750000D02*
X139100000Y-97750000D01*
X139100000Y-98250000D02*
X139100000Y-97750000D01*
X139500000Y-117850000D02*
X139100000Y-117850000D01*
X139100000Y-117850000D02*
X139100000Y-117350000D01*
X155500000Y-117850000D02*
X155500000Y-107850000D01*
D12*
X157420000Y-80140000D02*
X158350000Y-80140000D01*
X160580000Y-80140000D02*
X159650000Y-80140000D01*
X160580000Y-80140000D02*
X160580000Y-82300000D01*
X157420000Y-80140000D02*
X157420000Y-81600000D01*
X165900000Y-85760000D02*
X164000000Y-85760000D01*
X164500000Y-83440000D02*
X165900000Y-83440000D01*
X165900000Y-88560000D02*
X164000000Y-88560000D01*
X164500000Y-86240000D02*
X165900000Y-86240000D01*
X165900000Y-91360000D02*
X164000000Y-91360000D01*
X164500000Y-89040000D02*
X165900000Y-89040000D01*
X165900000Y-94160000D02*
X164000000Y-94160000D01*
X164500000Y-91840000D02*
X165900000Y-91840000D01*
X166000000Y-106060000D02*
X164100000Y-106060000D01*
X164600000Y-103740000D02*
X166000000Y-103740000D01*
X166000000Y-108860000D02*
X164100000Y-108860000D01*
X164600000Y-106540000D02*
X166000000Y-106540000D01*
X166000000Y-111660000D02*
X164100000Y-111660000D01*
X164600000Y-109340000D02*
X166000000Y-109340000D01*
X166000000Y-114460000D02*
X164100000Y-114460000D01*
X164600000Y-112140000D02*
X166000000Y-112140000D01*
X127600000Y-111940000D02*
X129500000Y-111940000D01*
X129000000Y-114260000D02*
X127600000Y-114260000D01*
X127600000Y-89540000D02*
X129500000Y-89540000D01*
X129000000Y-91860000D02*
X127600000Y-91860000D01*
X127600000Y-109140000D02*
X129500000Y-109140000D01*
X129000000Y-111460000D02*
X127600000Y-111460000D01*
X127600000Y-92340000D02*
X129500000Y-92340000D01*
X129000000Y-94660000D02*
X127600000Y-94660000D01*
X127600000Y-86740000D02*
X129500000Y-86740000D01*
X129000000Y-89060000D02*
X127600000Y-89060000D01*
X127600000Y-103540000D02*
X129500000Y-103540000D01*
X129000000Y-105860000D02*
X127600000Y-105860000D01*
X127600000Y-106340000D02*
X129500000Y-106340000D01*
X129000000Y-108660000D02*
X127600000Y-108660000D01*
X127600000Y-83940000D02*
X129500000Y-83940000D01*
X129000000Y-86260000D02*
X127600000Y-86260000D01*
X160720000Y-80400000D02*
X160720000Y-81400000D01*
X162080000Y-81400000D02*
X162080000Y-80400000D01*
X158500000Y-84080000D02*
X159500000Y-84080000D01*
X159500000Y-82720000D02*
X158500000Y-82720000D01*
X165800000Y-102020000D02*
X164800000Y-102020000D01*
X164800000Y-103380000D02*
X165800000Y-103380000D01*
X165700000Y-81620000D02*
X164700000Y-81620000D01*
X164700000Y-82980000D02*
X165700000Y-82980000D01*
X127800000Y-103080000D02*
X128800000Y-103080000D01*
X128800000Y-101720000D02*
X127800000Y-101720000D01*
X127800000Y-83580000D02*
X128800000Y-83580000D01*
X128800000Y-82220000D02*
X127800000Y-82220000D01*
X120075000Y-96125000D02*
X120075000Y-97400000D01*
X120075000Y-97400000D02*
X121675000Y-97400000D01*
X121675000Y-97400000D02*
X121675000Y-98400000D01*
X121675000Y-98400000D02*
X117450000Y-98400000D01*
X117450000Y-80300000D02*
X121675000Y-80300000D01*
X121675000Y-80300000D02*
X121675000Y-81300000D01*
X121675000Y-81300000D02*
X120075000Y-81300000D01*
X120075000Y-81300000D02*
X120075000Y-82575000D01*
X113875000Y-96675000D02*
X113875000Y-82025000D01*
X120075000Y-96125000D02*
X122975000Y-96125000D01*
X154850000Y-97070000D02*
X156850000Y-97070000D01*
X156850000Y-94930000D02*
X154850000Y-94930000D01*
X155820000Y-98950000D02*
X155820000Y-99950000D01*
X157180000Y-99950000D02*
X157180000Y-98950000D01*
X173275000Y-102225000D02*
X173275000Y-100950000D01*
X173275000Y-100950000D02*
X171675000Y-100950000D01*
X171675000Y-100950000D02*
X171675000Y-99950000D01*
X171675000Y-99950000D02*
X175900000Y-99950000D01*
X175900000Y-118050000D02*
X171675000Y-118050000D01*
X171675000Y-118050000D02*
X171675000Y-117050000D01*
X171675000Y-117050000D02*
X173275000Y-117050000D01*
X173275000Y-117050000D02*
X173275000Y-115775000D01*
X179475000Y-101675000D02*
X179475000Y-116325000D01*
X173275000Y-102225000D02*
X170375000Y-102225000D01*
X173275000Y-82075000D02*
X173275000Y-80800000D01*
X173275000Y-80800000D02*
X171675000Y-80800000D01*
X171675000Y-80800000D02*
X171675000Y-79800000D01*
X171675000Y-79800000D02*
X175900000Y-79800000D01*
X175900000Y-97900000D02*
X171675000Y-97900000D01*
X171675000Y-97900000D02*
X171675000Y-96900000D01*
X171675000Y-96900000D02*
X173275000Y-96900000D01*
X173275000Y-96900000D02*
X173275000Y-95625000D01*
X179475000Y-81525000D02*
X179475000Y-96175000D01*
X173275000Y-82075000D02*
X170375000Y-82075000D01*
X120075000Y-115725000D02*
X120075000Y-117000000D01*
X120075000Y-117000000D02*
X121675000Y-117000000D01*
X121675000Y-117000000D02*
X121675000Y-118000000D01*
X121675000Y-118000000D02*
X117450000Y-118000000D01*
X117450000Y-99900000D02*
X121675000Y-99900000D01*
X121675000Y-99900000D02*
X121675000Y-100900000D01*
X121675000Y-100900000D02*
X120075000Y-100900000D01*
X120075000Y-100900000D02*
X120075000Y-102175000D01*
X113875000Y-116275000D02*
X113875000Y-101625000D01*
X120075000Y-115725000D02*
X122975000Y-115725000D01*
D10*
X136652380Y-78361904D02*
X135652380Y-78361904D01*
X135652380Y-78600000D01*
X135700000Y-78742857D01*
X135795238Y-78838095D01*
X135890476Y-78885714D01*
X136080952Y-78933333D01*
X136223809Y-78933333D01*
X136414285Y-78885714D01*
X136509523Y-78838095D01*
X136604761Y-78742857D01*
X136652380Y-78600000D01*
X136652380Y-78361904D01*
X136652380Y-79885714D02*
X136652380Y-79314285D01*
X136652380Y-79600000D02*
X135652380Y-79600000D01*
X135795238Y-79504761D01*
X135890476Y-79409523D01*
X135938095Y-79314285D01*
D11*
X133778571Y-78495238D02*
X134007142Y-79104761D01*
X134235714Y-78495238D01*
X134421428Y-79300000D02*
X133564285Y-79300000D01*
D10*
X159661904Y-77752380D02*
X159661904Y-78561904D01*
X159614285Y-78657142D01*
X159566666Y-78704761D01*
X159471428Y-78752380D01*
X159280952Y-78752380D01*
X159185714Y-78704761D01*
X159138095Y-78657142D01*
X159090476Y-78561904D01*
X159090476Y-77752380D01*
X158090476Y-78752380D02*
X158661904Y-78752380D01*
X158376190Y-78752380D02*
X158376190Y-77752380D01*
X158471428Y-77895238D01*
X158566666Y-77990476D01*
X158661904Y-78038095D01*
D11*
X163014285Y-80700000D02*
X163042857Y-80671428D01*
X163071428Y-80585714D01*
X163071428Y-80528571D01*
X163042857Y-80442857D01*
X162985714Y-80385714D01*
X162928571Y-80357142D01*
X162814285Y-80328571D01*
X162728571Y-80328571D01*
X162614285Y-80357142D01*
X162557142Y-80385714D01*
X162500000Y-80442857D01*
X162471428Y-80528571D01*
X162471428Y-80585714D01*
X162500000Y-80671428D01*
X162528571Y-80700000D01*
X162528571Y-80928571D02*
X162500000Y-80957142D01*
X162471428Y-81014285D01*
X162471428Y-81157142D01*
X162500000Y-81214285D01*
X162528571Y-81242857D01*
X162585714Y-81271428D01*
X162642857Y-81271428D01*
X162728571Y-81242857D01*
X163071428Y-80900000D01*
X163071428Y-81271428D01*
X159385714Y-84914285D02*
X159414285Y-84942857D01*
X159500000Y-84971428D01*
X159557142Y-84971428D01*
X159642857Y-84942857D01*
X159700000Y-84885714D01*
X159728571Y-84828571D01*
X159757142Y-84714285D01*
X159757142Y-84628571D01*
X159728571Y-84514285D01*
X159700000Y-84457142D01*
X159642857Y-84400000D01*
X159557142Y-84371428D01*
X159500000Y-84371428D01*
X159414285Y-84400000D01*
X159385714Y-84428571D01*
X158814285Y-84971428D02*
X159157142Y-84971428D01*
X158985714Y-84971428D02*
X158985714Y-84371428D01*
X159042857Y-84457142D01*
X159100000Y-84514285D01*
X159157142Y-84542857D01*
X158614285Y-84371428D02*
X158242857Y-84371428D01*
X158442857Y-84600000D01*
X158357142Y-84600000D01*
X158300000Y-84628571D01*
X158271428Y-84657142D01*
X158242857Y-84714285D01*
X158242857Y-84857142D01*
X158271428Y-84914285D01*
X158300000Y-84942857D01*
X158357142Y-84971428D01*
X158528571Y-84971428D01*
X158585714Y-84942857D01*
X158614285Y-84914285D01*
X165685714Y-101614285D02*
X165714285Y-101642857D01*
X165800000Y-101671428D01*
X165857142Y-101671428D01*
X165942857Y-101642857D01*
X166000000Y-101585714D01*
X166028571Y-101528571D01*
X166057142Y-101414285D01*
X166057142Y-101328571D01*
X166028571Y-101214285D01*
X166000000Y-101157142D01*
X165942857Y-101100000D01*
X165857142Y-101071428D01*
X165800000Y-101071428D01*
X165714285Y-101100000D01*
X165685714Y-101128571D01*
X165114285Y-101671428D02*
X165457142Y-101671428D01*
X165285714Y-101671428D02*
X165285714Y-101071428D01*
X165342857Y-101157142D01*
X165400000Y-101214285D01*
X165457142Y-101242857D01*
X164885714Y-101128571D02*
X164857142Y-101100000D01*
X164800000Y-101071428D01*
X164657142Y-101071428D01*
X164600000Y-101100000D01*
X164571428Y-101128571D01*
X164542857Y-101185714D01*
X164542857Y-101242857D01*
X164571428Y-101328571D01*
X164914285Y-101671428D01*
X164542857Y-101671428D01*
X165585714Y-81214285D02*
X165614285Y-81242857D01*
X165700000Y-81271428D01*
X165757142Y-81271428D01*
X165842857Y-81242857D01*
X165900000Y-81185714D01*
X165928571Y-81128571D01*
X165957142Y-81014285D01*
X165957142Y-80928571D01*
X165928571Y-80814285D01*
X165900000Y-80757142D01*
X165842857Y-80700000D01*
X165757142Y-80671428D01*
X165700000Y-80671428D01*
X165614285Y-80700000D01*
X165585714Y-80728571D01*
X165014285Y-81271428D02*
X165357142Y-81271428D01*
X165185714Y-81271428D02*
X165185714Y-80671428D01*
X165242857Y-80757142D01*
X165300000Y-80814285D01*
X165357142Y-80842857D01*
X164728571Y-81271428D02*
X164614285Y-81271428D01*
X164557142Y-81242857D01*
X164528571Y-81214285D01*
X164471428Y-81128571D01*
X164442857Y-81014285D01*
X164442857Y-80785714D01*
X164471428Y-80728571D01*
X164500000Y-80700000D01*
X164557142Y-80671428D01*
X164671428Y-80671428D01*
X164728571Y-80700000D01*
X164757142Y-80728571D01*
X164785714Y-80785714D01*
X164785714Y-80928571D01*
X164757142Y-80985714D01*
X164728571Y-81014285D01*
X164671428Y-81042857D01*
X164557142Y-81042857D01*
X164500000Y-81014285D01*
X164471428Y-80985714D01*
X164442857Y-80928571D01*
X128400000Y-101414285D02*
X128428571Y-101442857D01*
X128514285Y-101471428D01*
X128571428Y-101471428D01*
X128657142Y-101442857D01*
X128714285Y-101385714D01*
X128742857Y-101328571D01*
X128771428Y-101214285D01*
X128771428Y-101128571D01*
X128742857Y-101014285D01*
X128714285Y-100957142D01*
X128657142Y-100900000D01*
X128571428Y-100871428D01*
X128514285Y-100871428D01*
X128428571Y-100900000D01*
X128400000Y-100928571D01*
X127885714Y-101071428D02*
X127885714Y-101471428D01*
X128028571Y-100842857D02*
X128171428Y-101271428D01*
X127800000Y-101271428D01*
X128785714Y-81714285D02*
X128814285Y-81742857D01*
X128900000Y-81771428D01*
X128957142Y-81771428D01*
X129042857Y-81742857D01*
X129100000Y-81685714D01*
X129128571Y-81628571D01*
X129157142Y-81514285D01*
X129157142Y-81428571D01*
X129128571Y-81314285D01*
X129100000Y-81257142D01*
X129042857Y-81200000D01*
X128957142Y-81171428D01*
X128900000Y-81171428D01*
X128814285Y-81200000D01*
X128785714Y-81228571D01*
X128214285Y-81771428D02*
X128557142Y-81771428D01*
X128385714Y-81771428D02*
X128385714Y-81171428D01*
X128442857Y-81257142D01*
X128500000Y-81314285D01*
X128557142Y-81342857D01*
X127842857Y-81171428D02*
X127785714Y-81171428D01*
X127728571Y-81200000D01*
X127700000Y-81228571D01*
X127671428Y-81285714D01*
X127642857Y-81400000D01*
X127642857Y-81542857D01*
X127671428Y-81657142D01*
X127700000Y-81714285D01*
X127728571Y-81742857D01*
X127785714Y-81771428D01*
X127842857Y-81771428D01*
X127900000Y-81742857D01*
X127928571Y-81714285D01*
X127957142Y-81657142D01*
X127985714Y-81542857D01*
X127985714Y-81400000D01*
X127957142Y-81285714D01*
X127928571Y-81228571D01*
X127900000Y-81200000D01*
X127842857Y-81171428D01*
D13*
X124350000Y-80078571D02*
X124350000Y-81150000D01*
X124421428Y-81364285D01*
X124564285Y-81507142D01*
X124778571Y-81578571D01*
X124921428Y-81578571D01*
X123707142Y-80221428D02*
X123635714Y-80150000D01*
X123492857Y-80078571D01*
X123135714Y-80078571D01*
X122992857Y-80150000D01*
X122921428Y-80221428D01*
X122850000Y-80364285D01*
X122850000Y-80507142D01*
X122921428Y-80721428D01*
X123778571Y-81578571D01*
X122850000Y-81578571D01*
D10*
X156642857Y-94507142D02*
X156690476Y-94554761D01*
X156833333Y-94602380D01*
X156928571Y-94602380D01*
X157071428Y-94554761D01*
X157166666Y-94459523D01*
X157214285Y-94364285D01*
X157261904Y-94173809D01*
X157261904Y-94030952D01*
X157214285Y-93840476D01*
X157166666Y-93745238D01*
X157071428Y-93650000D01*
X156928571Y-93602380D01*
X156833333Y-93602380D01*
X156690476Y-93650000D01*
X156642857Y-93697619D01*
X155690476Y-94602380D02*
X156261904Y-94602380D01*
X155976190Y-94602380D02*
X155976190Y-93602380D01*
X156071428Y-93745238D01*
X156166666Y-93840476D01*
X156261904Y-93888095D01*
X154785714Y-93602380D02*
X155261904Y-93602380D01*
X155309523Y-94078571D01*
X155261904Y-94030952D01*
X155166666Y-93983333D01*
X154928571Y-93983333D01*
X154833333Y-94030952D01*
X154785714Y-94078571D01*
X154738095Y-94173809D01*
X154738095Y-94411904D01*
X154785714Y-94507142D01*
X154833333Y-94554761D01*
X154928571Y-94602380D01*
X155166666Y-94602380D01*
X155261904Y-94554761D01*
X155309523Y-94507142D01*
D11*
X158114285Y-99014285D02*
X158142857Y-98985714D01*
X158171428Y-98900000D01*
X158171428Y-98842857D01*
X158142857Y-98757142D01*
X158085714Y-98700000D01*
X158028571Y-98671428D01*
X157914285Y-98642857D01*
X157828571Y-98642857D01*
X157714285Y-98671428D01*
X157657142Y-98700000D01*
X157600000Y-98757142D01*
X157571428Y-98842857D01*
X157571428Y-98900000D01*
X157600000Y-98985714D01*
X157628571Y-99014285D01*
X158171428Y-99585714D02*
X158171428Y-99242857D01*
X158171428Y-99414285D02*
X157571428Y-99414285D01*
X157657142Y-99357142D01*
X157714285Y-99300000D01*
X157742857Y-99242857D01*
X157571428Y-100100000D02*
X157571428Y-99985714D01*
X157600000Y-99928571D01*
X157628571Y-99900000D01*
X157714285Y-99842857D01*
X157828571Y-99814285D01*
X158057142Y-99814285D01*
X158114285Y-99842857D01*
X158142857Y-99871428D01*
X158171428Y-99928571D01*
X158171428Y-100042857D01*
X158142857Y-100100000D01*
X158114285Y-100128571D01*
X158057142Y-100157142D01*
X157914285Y-100157142D01*
X157857142Y-100128571D01*
X157828571Y-100100000D01*
X157800000Y-100042857D01*
X157800000Y-99928571D01*
X157828571Y-99871428D01*
X157857142Y-99842857D01*
X157914285Y-99814285D01*
D13*
X170225000Y-116353571D02*
X170225000Y-117425000D01*
X170296428Y-117639285D01*
X170439285Y-117782142D01*
X170653571Y-117853571D01*
X170796428Y-117853571D01*
X169296428Y-116996428D02*
X169439285Y-116925000D01*
X169510714Y-116853571D01*
X169582142Y-116710714D01*
X169582142Y-116639285D01*
X169510714Y-116496428D01*
X169439285Y-116425000D01*
X169296428Y-116353571D01*
X169010714Y-116353571D01*
X168867857Y-116425000D01*
X168796428Y-116496428D01*
X168725000Y-116639285D01*
X168725000Y-116710714D01*
X168796428Y-116853571D01*
X168867857Y-116925000D01*
X169010714Y-116996428D01*
X169296428Y-116996428D01*
X169439285Y-117067857D01*
X169510714Y-117139285D01*
X169582142Y-117282142D01*
X169582142Y-117567857D01*
X169510714Y-117710714D01*
X169439285Y-117782142D01*
X169296428Y-117853571D01*
X169010714Y-117853571D01*
X168867857Y-117782142D01*
X168796428Y-117710714D01*
X168725000Y-117567857D01*
X168725000Y-117282142D01*
X168796428Y-117139285D01*
X168867857Y-117067857D01*
X169010714Y-116996428D01*
X170350000Y-79628571D02*
X170350000Y-80700000D01*
X170421428Y-80914285D01*
X170564285Y-81057142D01*
X170778571Y-81128571D01*
X170921428Y-81128571D01*
X168992857Y-79628571D02*
X169278571Y-79628571D01*
X169421428Y-79700000D01*
X169492857Y-79771428D01*
X169635714Y-79985714D01*
X169707142Y-80271428D01*
X169707142Y-80842857D01*
X169635714Y-80985714D01*
X169564285Y-81057142D01*
X169421428Y-81128571D01*
X169135714Y-81128571D01*
X168992857Y-81057142D01*
X168921428Y-80985714D01*
X168850000Y-80842857D01*
X168850000Y-80485714D01*
X168921428Y-80342857D01*
X168992857Y-80271428D01*
X169135714Y-80200000D01*
X169421428Y-80200000D01*
X169564285Y-80271428D01*
X169635714Y-80342857D01*
X169707142Y-80485714D01*
X124125000Y-116453571D02*
X124125000Y-117525000D01*
X124196428Y-117739285D01*
X124339285Y-117882142D01*
X124553571Y-117953571D01*
X124696428Y-117953571D01*
X122767857Y-116953571D02*
X122767857Y-117953571D01*
X123125000Y-116382142D02*
X123482142Y-117453571D01*
X122553571Y-117453571D01*
M02*
