M48
; DRILL file {KiCad (5.1.2)-2} date 22/09/2019 20:07:16
; FORMAT={-:-/ absolute / inch / decimal}
; #@! TF.CreationDate,2019-09-22T20:07:16+01:00
; #@! TF.GenerationSoftware,Kicad,Pcbnew,(5.1.2)-2
FMAT,2
INCH
T1C0.0118
T2C0.0394
T3C0.0650
T4C0.0709
T5C0.0866
%
G90
G05
T1
X4.9724Y-3.2638
X5.0039Y-3.9803
X5.0157Y-3.2146
X5.0807Y-4.5177
X5.0866Y-3.2244
X5.0945Y-3.9764
X5.1181Y-4.2913
X5.122Y-3.3268
X5.126Y-3.5197
X5.1299Y-3.2638
X5.1486Y-4.0689
X5.1575Y-3.5659
X5.1594Y-4.2972
X5.187Y-3.6555
X5.1969Y-3.0787
X5.1969Y-3.1142
X5.2067Y-4.2963
X5.2244Y-3.4685
X5.2244Y-4.1122
X5.249Y-4.2864
X5.2579Y-4.1033
X5.2667Y-3.5896
X5.3071Y-3.7618
X5.3081Y-4.2264
X5.3425Y-4.1604
X5.3455Y-3.6742
X5.3468Y-3.0791
X5.3504Y-4.2067
X5.3647Y-3.5349
X5.3839Y-4.0817
X5.3962Y-3.6983
X5.3967Y-3.4961
X5.3986Y-3.5699
X5.4183Y-4.1713
X5.4242Y-4.2461
X5.4636Y-4.1575
X5.4862Y-3.751
X5.5384Y-3.7362
X5.563Y-4.4882
X5.564Y-3.7028
X5.5965Y-3.9882
X5.6063Y-4.2835
X5.6732Y-3.7047
X5.6732Y-4.1161
X5.6811Y-3.752
X5.686Y-3.5591
X5.7008Y-4.1831
X5.7343Y-3.7343
X5.7382Y-4.1161
X5.7382Y-4.1949
X5.7441Y-3.685
X5.7638Y-3.752
X5.7657Y-4.0374
X5.7677Y-4.1299
X5.7697Y-4.2264
X5.7953Y-3.7895
X5.8031Y-4.0315
X5.8071Y-3.6713
X5.811Y-3.376
X5.8287Y-3.5571
X5.8307Y-3.6949
X5.8425Y-3.815
X5.8504Y-4.0354
X5.8524Y-3.5354
X5.8543Y-4.0787
X5.8563Y-3.6732
X5.8583Y-2.9055
X5.8583Y-2.9449
X5.8583Y-2.9843
X5.8583Y-3.0236
X5.878Y-3.8248
X5.8878Y-3.5413
X5.8976Y-2.9055
X5.8976Y-2.9449
X5.8976Y-2.9843
X5.8976Y-3.0236
X5.9173Y-3.7854
X5.937Y-2.9055
X5.937Y-2.9449
X5.937Y-2.9843
X5.937Y-3.0236
X5.9764Y-2.9055
X5.9764Y-2.9449
X5.9764Y-2.9843
X5.9764Y-3.0236
X5.9764Y-3.5866
X5.9764Y-4.2146
X6.0157Y-2.9055
X6.0157Y-2.9449
X6.0157Y-2.9843
X6.0157Y-3.0236
X6.0276Y-4.1004
X6.0551Y-3.0236
X6.0866Y-2.9055
X6.0866Y-2.9449
X6.1024Y-3.5984
X6.126Y-2.9055
X6.126Y-2.9449
X6.126Y-2.9843
X6.1339Y-3.6624
X6.1654Y-2.9055
X6.1654Y-2.9449
X6.1654Y-2.9843
X6.1654Y-3.0236
X6.1673Y-3.6654
X6.1949Y-3.4498
X6.1949Y-3.5276
X6.2018Y-3.1004
X6.2047Y-2.9055
X6.2047Y-2.9449
X6.2047Y-2.9843
X6.2047Y-3.0236
X6.2047Y-3.063
X6.22Y-3.7072
X6.2264Y-3.4783
X6.2441Y-2.9055
X6.2441Y-2.9449
X6.2441Y-2.9843
X6.2441Y-3.0236
X6.2441Y-3.063
X6.2539Y-4.1575
X6.2608Y-3.502
X6.2835Y-2.9055
X6.2835Y-2.9449
X6.2835Y-2.9843
X6.2835Y-3.0236
X6.2835Y-3.063
X6.2894Y-3.624
X6.2943Y-4.1969
X6.3189Y-3.56
X6.3307Y-4.2884
X6.3356Y-4.2274
X6.3406Y-3.4852
X6.376Y-4.2904
X6.376Y-4.4852
X6.3878Y-3.6348
X6.3888Y-3.4892
X6.4026Y-4.2195
X6.4085Y-3.3031
X6.4203Y-3.5118
X6.4291Y-3.2402
X6.4301Y-4.1348
X6.4419Y-4.2904
X6.4439Y-3.7274
X6.4606Y-3.9843
X6.4626Y-3.1949
X6.4656Y-3.4961
X6.5394Y-3.2047
X6.5512Y-3.9843
X6.5787Y-3.2402
T2
X4.5945Y-3.0217
X4.6945Y-3.0217
X4.7945Y-3.0217
X5.4433Y-3.1417
X5.4433Y-3.2417
X5.5433Y-3.1417
X5.5433Y-3.2417
X5.6433Y-3.1417
X5.6433Y-3.2417
X5.7433Y-3.1417
X5.7433Y-3.2417
X5.8433Y-3.1417
X5.8433Y-3.2417
X5.9433Y-3.1417
X5.9433Y-3.2417
X6.0433Y-3.1417
X6.0433Y-3.2417
X5.315Y-4.4961
X5.315Y-4.5961
X5.415Y-4.4961
X5.415Y-4.5961
T3
X6.9311Y-2.7224
X6.9311Y-2.8783
X6.9311Y-2.3012
X6.9311Y-2.4571
T4
X4.6437Y-2.6083
X4.6437Y-2.8248
X4.8091Y-2.6083
X4.8091Y-2.8248
X4.9744Y-2.6083
X4.9744Y-2.8248
X5.1398Y-2.6083
X5.1398Y-2.8248
X5.3051Y-2.6083
X5.3051Y-2.8248
X5.4705Y-2.6083
X5.4705Y-2.8248
X5.6358Y-2.6083
X5.6358Y-2.8248
X5.8012Y-2.6083
X5.8012Y-2.8248
X5.9665Y-2.6083
X5.9665Y-2.8248
X6.1319Y-2.6083
X6.1319Y-2.8248
X6.2972Y-2.6083
X6.2972Y-2.8248
X6.4626Y-2.6083
X6.4626Y-2.8248
T5
X4.9173Y-3.8986
X6.6299Y-3.8986
X6.3307Y-4.5758
T0
M30
