G04 #@! TF.GenerationSoftware,KiCad,Pcbnew,(5.1.2)-2*
G04 #@! TF.CreationDate,2019-09-22T20:07:18+01:00*
G04 #@! TF.ProjectId,LEDPanelControllerV2,4c454450-616e-4656-9c43-6f6e74726f6c,rev?*
G04 #@! TF.SameCoordinates,Original*
G04 #@! TF.FileFunction,Legend,Top*
G04 #@! TF.FilePolarity,Positive*
%FSLAX46Y46*%
G04 Gerber Fmt 4.6, Leading zero omitted, Abs format (unit mm)*
G04 Created by KiCad (PCBNEW (5.1.2)-2) date 2019-09-22 20:07:18*
%MOMM*%
%LPD*%
G04 APERTURE LIST*
%ADD10C,0.150000*%
%ADD11C,0.200000*%
%ADD12C,0.120000*%
%ADD13C,0.100000*%
G04 APERTURE END LIST*
D10*
X131639285Y-98166666D02*
X132115476Y-98166666D01*
X131544047Y-98452380D02*
X131877380Y-97452380D01*
X132210714Y-98452380D01*
X133067857Y-98452380D02*
X132496428Y-98452380D01*
X132782142Y-98452380D02*
X132782142Y-97452380D01*
X132686904Y-97595238D01*
X132591666Y-97690476D01*
X132496428Y-97738095D01*
X133686904Y-97452380D02*
X133782142Y-97452380D01*
X133877380Y-97500000D01*
X133925000Y-97547619D01*
X133972619Y-97642857D01*
X134020238Y-97833333D01*
X134020238Y-98071428D01*
X133972619Y-98261904D01*
X133925000Y-98357142D01*
X133877380Y-98404761D01*
X133782142Y-98452380D01*
X133686904Y-98452380D01*
X133591666Y-98404761D01*
X133544047Y-98357142D01*
X133496428Y-98261904D01*
X133448809Y-98071428D01*
X133448809Y-97833333D01*
X133496428Y-97642857D01*
X133544047Y-97547619D01*
X133591666Y-97500000D01*
X133686904Y-97452380D01*
X134448809Y-97928571D02*
X135210714Y-97928571D01*
X135210714Y-98214285D02*
X134448809Y-98214285D01*
X136258333Y-98452380D02*
X135925000Y-97976190D01*
X135686904Y-98452380D02*
X135686904Y-97452380D01*
X136067857Y-97452380D01*
X136163095Y-97500000D01*
X136210714Y-97547619D01*
X136258333Y-97642857D01*
X136258333Y-97785714D01*
X136210714Y-97880952D01*
X136163095Y-97928571D01*
X136067857Y-97976190D01*
X135686904Y-97976190D01*
X136591666Y-97452380D02*
X137258333Y-98452380D01*
X137258333Y-97452380D02*
X136591666Y-98452380D01*
X132609523Y-96291666D02*
X133085714Y-96291666D01*
X132514285Y-96577380D02*
X132847619Y-95577380D01*
X133180952Y-96577380D01*
X133561904Y-96577380D02*
X133752380Y-96577380D01*
X133847619Y-96529761D01*
X133895238Y-96482142D01*
X133990476Y-96339285D01*
X134038095Y-96148809D01*
X134038095Y-95767857D01*
X133990476Y-95672619D01*
X133942857Y-95625000D01*
X133847619Y-95577380D01*
X133657142Y-95577380D01*
X133561904Y-95625000D01*
X133514285Y-95672619D01*
X133466666Y-95767857D01*
X133466666Y-96005952D01*
X133514285Y-96101190D01*
X133561904Y-96148809D01*
X133657142Y-96196428D01*
X133847619Y-96196428D01*
X133942857Y-96148809D01*
X133990476Y-96101190D01*
X134038095Y-96005952D01*
X134466666Y-96053571D02*
X135228571Y-96053571D01*
X135228571Y-96339285D02*
X134466666Y-96339285D01*
X135561904Y-95577380D02*
X136133333Y-95577380D01*
X135847619Y-96577380D02*
X135847619Y-95577380D01*
X136371428Y-95577380D02*
X137038095Y-96577380D01*
X137038095Y-95577380D02*
X136371428Y-96577380D01*
D11*
X133132142Y-81775000D02*
X132989285Y-81703571D01*
X132775000Y-81703571D01*
X132560714Y-81775000D01*
X132417857Y-81917857D01*
X132346428Y-82060714D01*
X132275000Y-82346428D01*
X132275000Y-82560714D01*
X132346428Y-82846428D01*
X132417857Y-82989285D01*
X132560714Y-83132142D01*
X132775000Y-83203571D01*
X132917857Y-83203571D01*
X133132142Y-83132142D01*
X133203571Y-83060714D01*
X133203571Y-82560714D01*
X132917857Y-82560714D01*
X133846428Y-83203571D02*
X133846428Y-81703571D01*
X134703571Y-83203571D01*
X134703571Y-81703571D01*
X135417857Y-83203571D02*
X135417857Y-81703571D01*
X135775000Y-81703571D01*
X135989285Y-81775000D01*
X136132142Y-81917857D01*
X136203571Y-82060714D01*
X136275000Y-82346428D01*
X136275000Y-82560714D01*
X136203571Y-82846428D01*
X136132142Y-82989285D01*
X135989285Y-83132142D01*
X135775000Y-83203571D01*
X135417857Y-83203571D01*
X140625000Y-84428571D02*
X140625000Y-85142857D01*
X140196428Y-84285714D02*
X141696428Y-84785714D01*
X140196428Y-85285714D01*
X141696428Y-85642857D02*
X141696428Y-86642857D01*
X140196428Y-86000000D01*
X142975000Y-75653571D02*
X142975000Y-76367857D01*
X142546428Y-75510714D02*
X144046428Y-76010714D01*
X142546428Y-76510714D01*
X144046428Y-77653571D02*
X144046428Y-77367857D01*
X143975000Y-77225000D01*
X143903571Y-77153571D01*
X143689285Y-77010714D01*
X143403571Y-76939285D01*
X142832142Y-76939285D01*
X142689285Y-77010714D01*
X142617857Y-77082142D01*
X142546428Y-77225000D01*
X142546428Y-77510714D01*
X142617857Y-77653571D01*
X142689285Y-77725000D01*
X142832142Y-77796428D01*
X143189285Y-77796428D01*
X143332142Y-77725000D01*
X143403571Y-77653571D01*
X143475000Y-77510714D01*
X143475000Y-77225000D01*
X143403571Y-77082142D01*
X143332142Y-77010714D01*
X143189285Y-76939285D01*
X143250000Y-84528571D02*
X143250000Y-85242857D01*
X142821428Y-84385714D02*
X144321428Y-84885714D01*
X142821428Y-85385714D01*
X144321428Y-86600000D02*
X144321428Y-85885714D01*
X143607142Y-85814285D01*
X143678571Y-85885714D01*
X143750000Y-86028571D01*
X143750000Y-86385714D01*
X143678571Y-86528571D01*
X143607142Y-86600000D01*
X143464285Y-86671428D01*
X143107142Y-86671428D01*
X142964285Y-86600000D01*
X142892857Y-86528571D01*
X142821428Y-86385714D01*
X142821428Y-86028571D01*
X142892857Y-85885714D01*
X142964285Y-85814285D01*
D10*
X167904761Y-109457142D02*
X167857142Y-109504761D01*
X167714285Y-109552380D01*
X167619047Y-109552380D01*
X167476190Y-109504761D01*
X167380952Y-109409523D01*
X167333333Y-109314285D01*
X167285714Y-109123809D01*
X167285714Y-108980952D01*
X167333333Y-108790476D01*
X167380952Y-108695238D01*
X167476190Y-108600000D01*
X167619047Y-108552380D01*
X167714285Y-108552380D01*
X167857142Y-108600000D01*
X167904761Y-108647619D01*
X168809523Y-109552380D02*
X168333333Y-109552380D01*
X168333333Y-108552380D01*
X169142857Y-109552380D02*
X169142857Y-108552380D01*
X169714285Y-109552380D02*
X169285714Y-108980952D01*
X169714285Y-108552380D02*
X169142857Y-109123809D01*
X167785714Y-107366666D02*
X168261904Y-107366666D01*
X167690476Y-107652380D02*
X168023809Y-106652380D01*
X168357142Y-107652380D01*
X169214285Y-107652380D02*
X168642857Y-107652380D01*
X168928571Y-107652380D02*
X168928571Y-106652380D01*
X168833333Y-106795238D01*
X168738095Y-106890476D01*
X168642857Y-106938095D01*
X167761904Y-103552380D02*
X167761904Y-102552380D01*
X168000000Y-102552380D01*
X168142857Y-102600000D01*
X168238095Y-102695238D01*
X168285714Y-102790476D01*
X168333333Y-102980952D01*
X168333333Y-103123809D01*
X168285714Y-103314285D01*
X168238095Y-103409523D01*
X168142857Y-103504761D01*
X168000000Y-103552380D01*
X167761904Y-103552380D01*
X169285714Y-103552380D02*
X168714285Y-103552380D01*
X169000000Y-103552380D02*
X169000000Y-102552380D01*
X168904761Y-102695238D01*
X168809523Y-102790476D01*
X168714285Y-102838095D01*
X167861904Y-115552381D02*
X167861904Y-114552381D01*
X168100000Y-114552381D01*
X168242857Y-114600001D01*
X168338095Y-114695239D01*
X168385714Y-114790477D01*
X168433333Y-114980953D01*
X168433333Y-115123810D01*
X168385714Y-115314286D01*
X168338095Y-115409524D01*
X168242857Y-115504762D01*
X168100000Y-115552381D01*
X167861904Y-115552381D01*
X168814285Y-114647620D02*
X168861904Y-114600001D01*
X168957142Y-114552381D01*
X169195238Y-114552381D01*
X169290476Y-114600001D01*
X169338095Y-114647620D01*
X169385714Y-114742858D01*
X169385714Y-114838096D01*
X169338095Y-114980953D01*
X168766666Y-115552381D01*
X169385714Y-115552381D01*
X167885713Y-111266666D02*
X168361903Y-111266666D01*
X167790475Y-111552380D02*
X168123808Y-110552380D01*
X168457141Y-111552380D01*
X168980951Y-110552380D02*
X169076189Y-110552380D01*
X169171427Y-110600000D01*
X169219046Y-110647619D01*
X169266665Y-110742857D01*
X169314284Y-110933333D01*
X169314284Y-111171428D01*
X169266665Y-111361904D01*
X169219046Y-111457142D01*
X169171427Y-111504761D01*
X169076189Y-111552380D01*
X168980951Y-111552380D01*
X168885713Y-111504761D01*
X168838094Y-111457142D01*
X168790475Y-111361904D01*
X168742856Y-111171428D01*
X168742856Y-110933333D01*
X168790475Y-110742857D01*
X168838094Y-110647619D01*
X168885713Y-110600000D01*
X168980951Y-110552380D01*
X168457142Y-105552380D02*
X167980952Y-105552380D01*
X167980952Y-104552380D01*
X168790476Y-105028571D02*
X169123809Y-105028571D01*
X169266666Y-105552380D02*
X168790476Y-105552380D01*
X168790476Y-104552380D01*
X169266666Y-104552380D01*
X168052380Y-112552380D02*
X168242857Y-112552380D01*
X168338095Y-112600000D01*
X168433333Y-112695238D01*
X168480952Y-112885714D01*
X168480952Y-113219047D01*
X168433333Y-113409523D01*
X168338095Y-113504761D01*
X168242857Y-113552380D01*
X168052380Y-113552380D01*
X167957142Y-113504761D01*
X167861904Y-113409523D01*
X167814285Y-113219047D01*
X167814285Y-112885714D01*
X167861904Y-112695238D01*
X167957142Y-112600000D01*
X168052380Y-112552380D01*
X168909523Y-113028571D02*
X169242857Y-113028571D01*
X169385714Y-113552380D02*
X168909523Y-113552380D01*
X168909523Y-112552380D01*
X169385714Y-112552380D01*
X167952380Y-92352380D02*
X168142857Y-92352380D01*
X168238095Y-92400000D01*
X168333333Y-92495238D01*
X168380952Y-92685714D01*
X168380952Y-93019047D01*
X168333333Y-93209523D01*
X168238095Y-93304761D01*
X168142857Y-93352380D01*
X167952380Y-93352380D01*
X167857142Y-93304761D01*
X167761904Y-93209523D01*
X167714285Y-93019047D01*
X167714285Y-92685714D01*
X167761904Y-92495238D01*
X167857142Y-92400000D01*
X167952380Y-92352380D01*
X168809523Y-92828571D02*
X169142857Y-92828571D01*
X169285714Y-93352380D02*
X168809523Y-93352380D01*
X168809523Y-92352380D01*
X169285714Y-92352380D01*
X167804761Y-89257142D02*
X167757142Y-89304761D01*
X167614285Y-89352380D01*
X167519047Y-89352380D01*
X167376190Y-89304761D01*
X167280952Y-89209523D01*
X167233333Y-89114285D01*
X167185714Y-88923809D01*
X167185714Y-88780952D01*
X167233333Y-88590476D01*
X167280952Y-88495238D01*
X167376190Y-88400000D01*
X167519047Y-88352380D01*
X167614285Y-88352380D01*
X167757142Y-88400000D01*
X167804761Y-88447619D01*
X168709523Y-89352380D02*
X168233333Y-89352380D01*
X168233333Y-88352380D01*
X169042857Y-89352380D02*
X169042857Y-88352380D01*
X169614285Y-89352380D02*
X169185714Y-88780952D01*
X169614285Y-88352380D02*
X169042857Y-88923809D01*
X167661904Y-83352380D02*
X167661904Y-82352380D01*
X167900000Y-82352380D01*
X168042857Y-82400000D01*
X168138095Y-82495238D01*
X168185714Y-82590476D01*
X168233333Y-82780952D01*
X168233333Y-82923809D01*
X168185714Y-83114285D01*
X168138095Y-83209523D01*
X168042857Y-83304761D01*
X167900000Y-83352380D01*
X167661904Y-83352380D01*
X169185714Y-83352380D02*
X168614285Y-83352380D01*
X168900000Y-83352380D02*
X168900000Y-82352380D01*
X168804761Y-82495238D01*
X168709523Y-82590476D01*
X168614285Y-82638095D01*
X167685714Y-87166666D02*
X168161904Y-87166666D01*
X167590476Y-87452380D02*
X167923809Y-86452380D01*
X168257142Y-87452380D01*
X169114285Y-87452380D02*
X168542857Y-87452380D01*
X168828571Y-87452380D02*
X168828571Y-86452380D01*
X168733333Y-86595238D01*
X168638095Y-86690476D01*
X168542857Y-86738095D01*
X168357142Y-85352380D02*
X167880952Y-85352380D01*
X167880952Y-84352380D01*
X168690476Y-84828571D02*
X169023809Y-84828571D01*
X169166666Y-85352380D02*
X168690476Y-85352380D01*
X168690476Y-84352380D01*
X169166666Y-84352380D01*
X167761904Y-95352381D02*
X167761904Y-94352381D01*
X168000000Y-94352381D01*
X168142857Y-94400001D01*
X168238095Y-94495239D01*
X168285714Y-94590477D01*
X168333333Y-94780953D01*
X168333333Y-94923810D01*
X168285714Y-95114286D01*
X168238095Y-95209524D01*
X168142857Y-95304762D01*
X168000000Y-95352381D01*
X167761904Y-95352381D01*
X168714285Y-94447620D02*
X168761904Y-94400001D01*
X168857142Y-94352381D01*
X169095238Y-94352381D01*
X169190476Y-94400001D01*
X169238095Y-94447620D01*
X169285714Y-94542858D01*
X169285714Y-94638096D01*
X169238095Y-94780953D01*
X168666666Y-95352381D01*
X169285714Y-95352381D01*
X167785713Y-91066666D02*
X168261903Y-91066666D01*
X167690475Y-91352380D02*
X168023808Y-90352380D01*
X168357141Y-91352380D01*
X168880951Y-90352380D02*
X168976189Y-90352380D01*
X169071427Y-90400000D01*
X169119046Y-90447619D01*
X169166665Y-90542857D01*
X169214284Y-90733333D01*
X169214284Y-90971428D01*
X169166665Y-91161904D01*
X169119046Y-91257142D01*
X169071427Y-91304761D01*
X168976189Y-91352380D01*
X168880951Y-91352380D01*
X168785713Y-91304761D01*
X168738094Y-91257142D01*
X168690475Y-91161904D01*
X168642856Y-90971428D01*
X168642856Y-90733333D01*
X168690475Y-90542857D01*
X168738094Y-90447619D01*
X168785713Y-90400000D01*
X168880951Y-90352380D01*
X124404761Y-109457142D02*
X124357142Y-109504761D01*
X124214285Y-109552380D01*
X124119047Y-109552380D01*
X123976190Y-109504761D01*
X123880952Y-109409523D01*
X123833333Y-109314285D01*
X123785714Y-109123809D01*
X123785714Y-108980952D01*
X123833333Y-108790476D01*
X123880952Y-108695238D01*
X123976190Y-108600000D01*
X124119047Y-108552380D01*
X124214285Y-108552380D01*
X124357142Y-108600000D01*
X124404761Y-108647619D01*
X125309523Y-109552380D02*
X124833333Y-109552380D01*
X124833333Y-108552380D01*
X125642857Y-109552380D02*
X125642857Y-108552380D01*
X126214285Y-109552380D02*
X125785714Y-108980952D01*
X126214285Y-108552380D02*
X125642857Y-109123809D01*
X124261904Y-115552380D02*
X124261904Y-114552380D01*
X124500000Y-114552380D01*
X124642857Y-114600000D01*
X124738095Y-114695238D01*
X124785714Y-114790476D01*
X124833333Y-114980952D01*
X124833333Y-115123809D01*
X124785714Y-115314285D01*
X124738095Y-115409523D01*
X124642857Y-115504761D01*
X124500000Y-115552380D01*
X124261904Y-115552380D01*
X125785714Y-115552380D02*
X125214285Y-115552380D01*
X125500000Y-115552380D02*
X125500000Y-114552380D01*
X125404761Y-114695238D01*
X125309523Y-114790476D01*
X125214285Y-114838095D01*
X124285714Y-111166666D02*
X124761904Y-111166666D01*
X124190476Y-111452380D02*
X124523809Y-110452380D01*
X124857142Y-111452380D01*
X125714285Y-111452380D02*
X125142857Y-111452380D01*
X125428571Y-111452380D02*
X125428571Y-110452380D01*
X125333333Y-110595238D01*
X125238095Y-110690476D01*
X125142857Y-110738095D01*
X124757142Y-113552380D02*
X124280952Y-113552380D01*
X124280952Y-112552380D01*
X125090476Y-113028571D02*
X125423809Y-113028571D01*
X125566666Y-113552380D02*
X125090476Y-113552380D01*
X125090476Y-112552380D01*
X125566666Y-112552380D01*
X124185714Y-107266666D02*
X124661904Y-107266666D01*
X124090476Y-107552380D02*
X124423809Y-106552380D01*
X124757142Y-107552380D01*
X125280952Y-106552380D02*
X125376190Y-106552380D01*
X125471428Y-106600000D01*
X125519047Y-106647619D01*
X125566666Y-106742857D01*
X125614285Y-106933333D01*
X125614285Y-107171428D01*
X125566666Y-107361904D01*
X125519047Y-107457142D01*
X125471428Y-107504761D01*
X125376190Y-107552380D01*
X125280952Y-107552380D01*
X125185714Y-107504761D01*
X125138095Y-107457142D01*
X125090476Y-107361904D01*
X125042857Y-107171428D01*
X125042857Y-106933333D01*
X125090476Y-106742857D01*
X125138095Y-106647619D01*
X125185714Y-106600000D01*
X125280952Y-106552380D01*
X124352380Y-104552380D02*
X124542857Y-104552380D01*
X124638095Y-104600000D01*
X124733333Y-104695238D01*
X124780952Y-104885714D01*
X124780952Y-105219047D01*
X124733333Y-105409523D01*
X124638095Y-105504761D01*
X124542857Y-105552380D01*
X124352380Y-105552380D01*
X124257142Y-105504761D01*
X124161904Y-105409523D01*
X124114285Y-105219047D01*
X124114285Y-104885714D01*
X124161904Y-104695238D01*
X124257142Y-104600000D01*
X124352380Y-104552380D01*
X125209523Y-105028571D02*
X125542857Y-105028571D01*
X125685714Y-105552380D02*
X125209523Y-105552380D01*
X125209523Y-104552380D01*
X125685714Y-104552380D01*
X124161904Y-103552380D02*
X124161904Y-102552380D01*
X124400000Y-102552380D01*
X124542857Y-102600000D01*
X124638095Y-102695238D01*
X124685714Y-102790476D01*
X124733333Y-102980952D01*
X124733333Y-103123809D01*
X124685714Y-103314285D01*
X124638095Y-103409523D01*
X124542857Y-103504761D01*
X124400000Y-103552380D01*
X124161904Y-103552380D01*
X125114285Y-102647619D02*
X125161904Y-102600000D01*
X125257142Y-102552380D01*
X125495238Y-102552380D01*
X125590476Y-102600000D01*
X125638095Y-102647619D01*
X125685714Y-102742857D01*
X125685714Y-102838095D01*
X125638095Y-102980952D01*
X125066666Y-103552380D01*
X125685714Y-103552380D01*
X124161904Y-95852380D02*
X124161904Y-94852380D01*
X124400000Y-94852380D01*
X124542857Y-94900000D01*
X124638095Y-94995238D01*
X124685714Y-95090476D01*
X124733333Y-95280952D01*
X124733333Y-95423809D01*
X124685714Y-95614285D01*
X124638095Y-95709523D01*
X124542857Y-95804761D01*
X124400000Y-95852380D01*
X124161904Y-95852380D01*
X125685714Y-95852380D02*
X125114285Y-95852380D01*
X125400000Y-95852380D02*
X125400000Y-94852380D01*
X125304761Y-94995238D01*
X125209523Y-95090476D01*
X125114285Y-95138095D01*
X124657142Y-93852380D02*
X124180952Y-93852380D01*
X124180952Y-92852380D01*
X124990476Y-93328571D02*
X125323809Y-93328571D01*
X125466666Y-93852380D02*
X124990476Y-93852380D01*
X124990476Y-92852380D01*
X125466666Y-92852380D01*
X124185714Y-91466666D02*
X124661904Y-91466666D01*
X124090476Y-91752380D02*
X124423809Y-90752380D01*
X124757142Y-91752380D01*
X125614285Y-91752380D02*
X125042857Y-91752380D01*
X125328571Y-91752380D02*
X125328571Y-90752380D01*
X125233333Y-90895238D01*
X125138095Y-90990476D01*
X125042857Y-91038095D01*
X124304761Y-89757142D02*
X124257142Y-89804761D01*
X124114285Y-89852380D01*
X124019047Y-89852380D01*
X123876190Y-89804761D01*
X123780952Y-89709523D01*
X123733333Y-89614285D01*
X123685714Y-89423809D01*
X123685714Y-89280952D01*
X123733333Y-89090476D01*
X123780952Y-88995238D01*
X123876190Y-88900000D01*
X124019047Y-88852380D01*
X124114285Y-88852380D01*
X124257142Y-88900000D01*
X124304761Y-88947619D01*
X125209523Y-89852380D02*
X124733333Y-89852380D01*
X124733333Y-88852380D01*
X125542857Y-89852380D02*
X125542857Y-88852380D01*
X126114285Y-89852380D02*
X125685714Y-89280952D01*
X126114285Y-88852380D02*
X125542857Y-89423809D01*
X124085714Y-87566666D02*
X124561904Y-87566666D01*
X123990476Y-87852380D02*
X124323809Y-86852380D01*
X124657142Y-87852380D01*
X125180952Y-86852380D02*
X125276190Y-86852380D01*
X125371428Y-86900000D01*
X125419047Y-86947619D01*
X125466666Y-87042857D01*
X125514285Y-87233333D01*
X125514285Y-87471428D01*
X125466666Y-87661904D01*
X125419047Y-87757142D01*
X125371428Y-87804761D01*
X125276190Y-87852380D01*
X125180952Y-87852380D01*
X125085714Y-87804761D01*
X125038095Y-87757142D01*
X124990476Y-87661904D01*
X124942857Y-87471428D01*
X124942857Y-87233333D01*
X124990476Y-87042857D01*
X125038095Y-86947619D01*
X125085714Y-86900000D01*
X125180952Y-86852380D01*
X124252380Y-84852380D02*
X124442857Y-84852380D01*
X124538095Y-84900000D01*
X124633333Y-84995238D01*
X124680952Y-85185714D01*
X124680952Y-85519047D01*
X124633333Y-85709523D01*
X124538095Y-85804761D01*
X124442857Y-85852380D01*
X124252380Y-85852380D01*
X124157142Y-85804761D01*
X124061904Y-85709523D01*
X124014285Y-85519047D01*
X124014285Y-85185714D01*
X124061904Y-84995238D01*
X124157142Y-84900000D01*
X124252380Y-84852380D01*
X125109523Y-85328571D02*
X125442857Y-85328571D01*
X125585714Y-85852380D02*
X125109523Y-85852380D01*
X125109523Y-84852380D01*
X125585714Y-84852380D01*
X124061904Y-83852380D02*
X124061904Y-82852380D01*
X124300000Y-82852380D01*
X124442857Y-82900000D01*
X124538095Y-82995238D01*
X124585714Y-83090476D01*
X124633333Y-83280952D01*
X124633333Y-83423809D01*
X124585714Y-83614285D01*
X124538095Y-83709523D01*
X124442857Y-83804761D01*
X124300000Y-83852380D01*
X124061904Y-83852380D01*
X125014285Y-82947619D02*
X125061904Y-82900000D01*
X125157142Y-82852380D01*
X125395238Y-82852380D01*
X125490476Y-82900000D01*
X125538095Y-82947619D01*
X125585714Y-83042857D01*
X125585714Y-83138095D01*
X125538095Y-83280952D01*
X124966666Y-83852380D01*
X125585714Y-83852380D01*
D11*
X150175000Y-111203571D02*
X150175000Y-109703571D01*
X150746428Y-109703571D01*
X150889285Y-109775000D01*
X150960714Y-109846428D01*
X151032142Y-109989285D01*
X151032142Y-110203571D01*
X150960714Y-110346428D01*
X150889285Y-110417857D01*
X150746428Y-110489285D01*
X150175000Y-110489285D01*
X151532142Y-109703571D02*
X151889285Y-111203571D01*
X152175000Y-110132142D01*
X152460714Y-111203571D01*
X152817857Y-109703571D01*
X154246428Y-111203571D02*
X153746428Y-110489285D01*
X153389285Y-111203571D02*
X153389285Y-109703571D01*
X153960714Y-109703571D01*
X154103571Y-109775000D01*
X154175000Y-109846428D01*
X154246428Y-109989285D01*
X154246428Y-110203571D01*
X154175000Y-110346428D01*
X154103571Y-110417857D01*
X153960714Y-110489285D01*
X153389285Y-110489285D01*
X147864339Y-85346954D02*
X147763324Y-85346954D01*
X147561294Y-85245938D01*
X147460278Y-85144923D01*
X147359263Y-84942893D01*
X147359263Y-84740862D01*
X147409771Y-84589339D01*
X147561294Y-84336801D01*
X147712816Y-84185278D01*
X147965355Y-84033755D01*
X148116877Y-83983248D01*
X148318908Y-83983248D01*
X148520938Y-84084263D01*
X148621954Y-84185278D01*
X148722969Y-84387309D01*
X148722969Y-84488324D01*
X148773477Y-86458122D02*
X148167385Y-85852030D01*
X148470431Y-86155076D02*
X149531091Y-85094416D01*
X149278553Y-85144923D01*
X149076522Y-85144923D01*
X148925000Y-85094416D01*
X150793782Y-86357106D02*
X150288705Y-85852030D01*
X149733122Y-86306599D01*
X149834137Y-86306599D01*
X149985660Y-86357106D01*
X150238198Y-86609644D01*
X150288705Y-86761167D01*
X150288705Y-86862183D01*
X150238198Y-87013705D01*
X149985660Y-87266244D01*
X149834137Y-87316751D01*
X149733122Y-87316751D01*
X149581599Y-87266244D01*
X149329061Y-87013705D01*
X149278553Y-86862183D01*
X149278553Y-86761167D01*
X150239285Y-75110714D02*
X150167857Y-75039285D01*
X150096428Y-74825000D01*
X150096428Y-74682142D01*
X150167857Y-74467857D01*
X150310714Y-74325000D01*
X150453571Y-74253571D01*
X150739285Y-74182142D01*
X150953571Y-74182142D01*
X151239285Y-74253571D01*
X151382142Y-74325000D01*
X151525000Y-74467857D01*
X151596428Y-74682142D01*
X151596428Y-74825000D01*
X151525000Y-75039285D01*
X151453571Y-75110714D01*
X150096428Y-76539285D02*
X150096428Y-75682142D01*
X150096428Y-76110714D02*
X151596428Y-76110714D01*
X151382142Y-75967857D01*
X151239285Y-75825000D01*
X151167857Y-75682142D01*
X151096428Y-77825000D02*
X150096428Y-77825000D01*
X151667857Y-77467857D02*
X150596428Y-77110714D01*
X150596428Y-78039285D01*
D10*
X169650000Y-74011904D02*
X169602380Y-74107142D01*
X169602380Y-74250000D01*
X169650000Y-74392857D01*
X169745238Y-74488095D01*
X169840476Y-74535714D01*
X170030952Y-74583333D01*
X170173809Y-74583333D01*
X170364285Y-74535714D01*
X170459523Y-74488095D01*
X170554761Y-74392857D01*
X170602380Y-74250000D01*
X170602380Y-74154761D01*
X170554761Y-74011904D01*
X170507142Y-73964285D01*
X170173809Y-73964285D01*
X170173809Y-74154761D01*
X170602380Y-73535714D02*
X169602380Y-73535714D01*
X170602380Y-72964285D01*
X169602380Y-72964285D01*
X170602380Y-72488095D02*
X169602380Y-72488095D01*
X169602380Y-72250000D01*
X169650000Y-72107142D01*
X169745238Y-72011904D01*
X169840476Y-71964285D01*
X170030952Y-71916666D01*
X170173809Y-71916666D01*
X170364285Y-71964285D01*
X170459523Y-72011904D01*
X170554761Y-72107142D01*
X170602380Y-72250000D01*
X170602380Y-72488095D01*
X170552380Y-69819047D02*
X170552380Y-70390476D01*
X170552380Y-70104761D02*
X169552380Y-70104761D01*
X169695238Y-70200000D01*
X169790476Y-70295238D01*
X169838095Y-70390476D01*
X169647619Y-69438095D02*
X169600000Y-69390476D01*
X169552380Y-69295238D01*
X169552380Y-69057142D01*
X169600000Y-68961904D01*
X169647619Y-68914285D01*
X169742857Y-68866666D01*
X169838095Y-68866666D01*
X169980952Y-68914285D01*
X170552380Y-69485714D01*
X170552380Y-68866666D01*
X169552380Y-68580952D02*
X170552380Y-68247619D01*
X169552380Y-67914285D01*
X169250000Y-63311904D02*
X169202380Y-63407142D01*
X169202380Y-63550000D01*
X169250000Y-63692857D01*
X169345238Y-63788095D01*
X169440476Y-63835714D01*
X169630952Y-63883333D01*
X169773809Y-63883333D01*
X169964285Y-63835714D01*
X170059523Y-63788095D01*
X170154761Y-63692857D01*
X170202380Y-63550000D01*
X170202380Y-63454761D01*
X170154761Y-63311904D01*
X170107142Y-63264285D01*
X169773809Y-63264285D01*
X169773809Y-63454761D01*
X170202380Y-62835714D02*
X169202380Y-62835714D01*
X170202380Y-62264285D01*
X169202380Y-62264285D01*
X170202380Y-61788095D02*
X169202380Y-61788095D01*
X169202380Y-61550000D01*
X169250000Y-61407142D01*
X169345238Y-61311904D01*
X169440476Y-61264285D01*
X169630952Y-61216666D01*
X169773809Y-61216666D01*
X169964285Y-61264285D01*
X170059523Y-61311904D01*
X170154761Y-61407142D01*
X170202380Y-61550000D01*
X170202380Y-61788095D01*
X170202380Y-59019047D02*
X170202380Y-59590476D01*
X170202380Y-59304761D02*
X169202380Y-59304761D01*
X169345238Y-59400000D01*
X169440476Y-59495238D01*
X169488095Y-59590476D01*
X169297619Y-58638095D02*
X169250000Y-58590476D01*
X169202380Y-58495238D01*
X169202380Y-58257142D01*
X169250000Y-58161904D01*
X169297619Y-58114285D01*
X169392857Y-58066666D01*
X169488095Y-58066666D01*
X169630952Y-58114285D01*
X170202380Y-58685714D01*
X170202380Y-58066666D01*
X169202380Y-57780952D02*
X170202380Y-57447619D01*
X169202380Y-57114285D01*
X130492857Y-117404761D02*
X130635714Y-117452380D01*
X130873809Y-117452380D01*
X130969047Y-117404761D01*
X131016666Y-117357142D01*
X131064285Y-117261904D01*
X131064285Y-117166666D01*
X131016666Y-117071428D01*
X130969047Y-117023809D01*
X130873809Y-116976190D01*
X130683333Y-116928571D01*
X130588095Y-116880952D01*
X130540476Y-116833333D01*
X130492857Y-116738095D01*
X130492857Y-116642857D01*
X130540476Y-116547619D01*
X130588095Y-116500000D01*
X130683333Y-116452380D01*
X130921428Y-116452380D01*
X131064285Y-116500000D01*
X131397619Y-116452380D02*
X131635714Y-117452380D01*
X131826190Y-116738095D01*
X132016666Y-117452380D01*
X132254761Y-116452380D01*
X133207142Y-117357142D02*
X133159523Y-117404761D01*
X133016666Y-117452380D01*
X132921428Y-117452380D01*
X132778571Y-117404761D01*
X132683333Y-117309523D01*
X132635714Y-117214285D01*
X132588095Y-117023809D01*
X132588095Y-116880952D01*
X132635714Y-116690476D01*
X132683333Y-116595238D01*
X132778571Y-116500000D01*
X132921428Y-116452380D01*
X133016666Y-116452380D01*
X133159523Y-116500000D01*
X133207142Y-116547619D01*
X140088095Y-116350000D02*
X139992857Y-116302380D01*
X139850000Y-116302380D01*
X139707142Y-116350000D01*
X139611904Y-116445238D01*
X139564285Y-116540476D01*
X139516666Y-116730952D01*
X139516666Y-116873809D01*
X139564285Y-117064285D01*
X139611904Y-117159523D01*
X139707142Y-117254761D01*
X139850000Y-117302380D01*
X139945238Y-117302380D01*
X140088095Y-117254761D01*
X140135714Y-117207142D01*
X140135714Y-116873809D01*
X139945238Y-116873809D01*
X140564285Y-117302380D02*
X140564285Y-116302380D01*
X141135714Y-117302380D01*
X141135714Y-116302380D01*
X141611904Y-117302380D02*
X141611904Y-116302380D01*
X141850000Y-116302380D01*
X141992857Y-116350000D01*
X142088095Y-116445238D01*
X142135714Y-116540476D01*
X142183333Y-116730952D01*
X142183333Y-116873809D01*
X142135714Y-117064285D01*
X142088095Y-117159523D01*
X141992857Y-117254761D01*
X141850000Y-117302380D01*
X141611904Y-117302380D01*
X139542857Y-114554761D02*
X139685714Y-114602380D01*
X139923809Y-114602380D01*
X140019047Y-114554761D01*
X140066666Y-114507142D01*
X140114285Y-114411904D01*
X140114285Y-114316666D01*
X140066666Y-114221428D01*
X140019047Y-114173809D01*
X139923809Y-114126190D01*
X139733333Y-114078571D01*
X139638095Y-114030952D01*
X139590476Y-113983333D01*
X139542857Y-113888095D01*
X139542857Y-113792857D01*
X139590476Y-113697619D01*
X139638095Y-113650000D01*
X139733333Y-113602380D01*
X139971428Y-113602380D01*
X140114285Y-113650000D01*
X140447619Y-113602380D02*
X140685714Y-114602380D01*
X140876190Y-113888095D01*
X141066666Y-114602380D01*
X141304761Y-113602380D01*
X141685714Y-114602380D02*
X141685714Y-113602380D01*
X141923809Y-113602380D01*
X142066666Y-113650000D01*
X142161904Y-113745238D01*
X142209523Y-113840476D01*
X142257142Y-114030952D01*
X142257142Y-114173809D01*
X142209523Y-114364285D01*
X142161904Y-114459523D01*
X142066666Y-114554761D01*
X141923809Y-114602380D01*
X141685714Y-114602380D01*
X130298809Y-113652380D02*
X130917857Y-113652380D01*
X130584523Y-114033333D01*
X130727380Y-114033333D01*
X130822619Y-114080952D01*
X130870238Y-114128571D01*
X130917857Y-114223809D01*
X130917857Y-114461904D01*
X130870238Y-114557142D01*
X130822619Y-114604761D01*
X130727380Y-114652380D01*
X130441666Y-114652380D01*
X130346428Y-114604761D01*
X130298809Y-114557142D01*
X131346428Y-114557142D02*
X131394047Y-114604761D01*
X131346428Y-114652380D01*
X131298809Y-114604761D01*
X131346428Y-114557142D01*
X131346428Y-114652380D01*
X131727380Y-113652380D02*
X132346428Y-113652380D01*
X132013095Y-114033333D01*
X132155952Y-114033333D01*
X132251190Y-114080952D01*
X132298809Y-114128571D01*
X132346428Y-114223809D01*
X132346428Y-114461904D01*
X132298809Y-114557142D01*
X132251190Y-114604761D01*
X132155952Y-114652380D01*
X131870238Y-114652380D01*
X131775000Y-114604761D01*
X131727380Y-114557142D01*
X132632142Y-113652380D02*
X132965476Y-114652380D01*
X133298809Y-113652380D01*
D11*
X155539285Y-82775000D02*
X156253571Y-82775000D01*
X155396428Y-83203571D02*
X155896428Y-81703571D01*
X156396428Y-83203571D01*
X157682142Y-83203571D02*
X156825000Y-83203571D01*
X157253571Y-83203571D02*
X157253571Y-81703571D01*
X157110714Y-81917857D01*
X156967857Y-82060714D01*
X156825000Y-82132142D01*
X158610714Y-81703571D02*
X158753571Y-81703571D01*
X158896428Y-81775000D01*
X158967857Y-81846428D01*
X159039285Y-81989285D01*
X159110714Y-82275000D01*
X159110714Y-82632142D01*
X159039285Y-82917857D01*
X158967857Y-83060714D01*
X158896428Y-83132142D01*
X158753571Y-83203571D01*
X158610714Y-83203571D01*
X158467857Y-83132142D01*
X158396428Y-83060714D01*
X158325000Y-82917857D01*
X158253571Y-82632142D01*
X158253571Y-82275000D01*
X158325000Y-81989285D01*
X158396428Y-81846428D01*
X158467857Y-81775000D01*
X158610714Y-81703571D01*
X150565608Y-84619162D02*
X151070685Y-85124238D01*
X150161547Y-84821192D02*
X151575761Y-84114086D01*
X150868654Y-85528299D01*
X151272715Y-85932360D02*
X151474746Y-86134391D01*
X151626269Y-86184898D01*
X151727284Y-86184898D01*
X151979822Y-86134391D01*
X152232360Y-85982868D01*
X152636421Y-85578807D01*
X152686929Y-85427284D01*
X152686929Y-85326269D01*
X152636421Y-85174746D01*
X152434391Y-84972715D01*
X152282868Y-84922208D01*
X152181852Y-84922208D01*
X152030330Y-84972715D01*
X151777791Y-85225253D01*
X151727284Y-85376776D01*
X151727284Y-85477791D01*
X151777791Y-85629314D01*
X151979822Y-85831345D01*
X152131345Y-85881852D01*
X152232360Y-85881852D01*
X152383883Y-85831345D01*
X145758333Y-84171428D02*
X145758333Y-84790476D01*
X145386904Y-84047619D02*
X146686904Y-84480952D01*
X145386904Y-84914285D01*
X146563095Y-85285714D02*
X146625000Y-85347619D01*
X146686904Y-85471428D01*
X146686904Y-85780952D01*
X146625000Y-85904761D01*
X146563095Y-85966666D01*
X146439285Y-86028571D01*
X146315476Y-86028571D01*
X146129761Y-85966666D01*
X145386904Y-85223809D01*
X145386904Y-86028571D01*
D10*
X132582142Y-92541666D02*
X133058333Y-92541666D01*
X132486904Y-92827380D02*
X132820238Y-91827380D01*
X133153571Y-92827380D01*
X133915476Y-91827380D02*
X133725000Y-91827380D01*
X133629761Y-91875000D01*
X133582142Y-91922619D01*
X133486904Y-92065476D01*
X133439285Y-92255952D01*
X133439285Y-92636904D01*
X133486904Y-92732142D01*
X133534523Y-92779761D01*
X133629761Y-92827380D01*
X133820238Y-92827380D01*
X133915476Y-92779761D01*
X133963095Y-92732142D01*
X134010714Y-92636904D01*
X134010714Y-92398809D01*
X133963095Y-92303571D01*
X133915476Y-92255952D01*
X133820238Y-92208333D01*
X133629761Y-92208333D01*
X133534523Y-92255952D01*
X133486904Y-92303571D01*
X133439285Y-92398809D01*
X134439285Y-92303571D02*
X135201190Y-92303571D01*
X135201190Y-92589285D02*
X134439285Y-92589285D01*
X135677380Y-92827380D02*
X135677380Y-91827380D01*
X136010714Y-92541666D01*
X136344047Y-91827380D01*
X136344047Y-92827380D01*
X136820238Y-92827380D02*
X136820238Y-91827380D01*
X137248809Y-92779761D02*
X137391666Y-92827380D01*
X137629761Y-92827380D01*
X137725000Y-92779761D01*
X137772619Y-92732142D01*
X137820238Y-92636904D01*
X137820238Y-92541666D01*
X137772619Y-92446428D01*
X137725000Y-92398809D01*
X137629761Y-92351190D01*
X137439285Y-92303571D01*
X137344047Y-92255952D01*
X137296428Y-92208333D01*
X137248809Y-92113095D01*
X137248809Y-92017857D01*
X137296428Y-91922619D01*
X137344047Y-91875000D01*
X137439285Y-91827380D01*
X137677380Y-91827380D01*
X137820238Y-91875000D01*
X138439285Y-91827380D02*
X138629761Y-91827380D01*
X138725000Y-91875000D01*
X138820238Y-91970238D01*
X138867857Y-92160714D01*
X138867857Y-92494047D01*
X138820238Y-92684523D01*
X138725000Y-92779761D01*
X138629761Y-92827380D01*
X138439285Y-92827380D01*
X138344047Y-92779761D01*
X138248809Y-92684523D01*
X138201190Y-92494047D01*
X138201190Y-92160714D01*
X138248809Y-91970238D01*
X138344047Y-91875000D01*
X138439285Y-91827380D01*
D11*
X139996428Y-75303571D02*
X140710714Y-74803571D01*
X139996428Y-74446428D02*
X141496428Y-74446428D01*
X141496428Y-75017857D01*
X141425000Y-75160714D01*
X141353571Y-75232142D01*
X141210714Y-75303571D01*
X140996428Y-75303571D01*
X140853571Y-75232142D01*
X140782142Y-75160714D01*
X140710714Y-75017857D01*
X140710714Y-74446428D01*
X140067857Y-75875000D02*
X139996428Y-76089285D01*
X139996428Y-76446428D01*
X140067857Y-76589285D01*
X140139285Y-76660714D01*
X140282142Y-76732142D01*
X140425000Y-76732142D01*
X140567857Y-76660714D01*
X140639285Y-76589285D01*
X140710714Y-76446428D01*
X140782142Y-76160714D01*
X140853571Y-76017857D01*
X140925000Y-75946428D01*
X141067857Y-75875000D01*
X141210714Y-75875000D01*
X141353571Y-75946428D01*
X141425000Y-76017857D01*
X141496428Y-76160714D01*
X141496428Y-76517857D01*
X141425000Y-76732142D01*
X141496428Y-77160714D02*
X141496428Y-78017857D01*
X139996428Y-77589285D02*
X141496428Y-77589285D01*
X155485714Y-79053571D02*
X156414285Y-79053571D01*
X155914285Y-79625000D01*
X156128571Y-79625000D01*
X156271428Y-79696428D01*
X156342857Y-79767857D01*
X156414285Y-79910714D01*
X156414285Y-80267857D01*
X156342857Y-80410714D01*
X156271428Y-80482142D01*
X156128571Y-80553571D01*
X155700000Y-80553571D01*
X155557142Y-80482142D01*
X155485714Y-80410714D01*
X157057142Y-80410714D02*
X157128571Y-80482142D01*
X157057142Y-80553571D01*
X156985714Y-80482142D01*
X157057142Y-80410714D01*
X157057142Y-80553571D01*
X157628571Y-79053571D02*
X158557142Y-79053571D01*
X158057142Y-79625000D01*
X158271428Y-79625000D01*
X158414285Y-79696428D01*
X158485714Y-79767857D01*
X158557142Y-79910714D01*
X158557142Y-80267857D01*
X158485714Y-80410714D01*
X158414285Y-80482142D01*
X158271428Y-80553571D01*
X157842857Y-80553571D01*
X157700000Y-80482142D01*
X157628571Y-80410714D01*
X158985714Y-79053571D02*
X159485714Y-80553571D01*
X159985714Y-79053571D01*
X148025000Y-75803571D02*
X148025000Y-76517857D01*
X147596428Y-75660714D02*
X149096428Y-76160714D01*
X147596428Y-76660714D01*
X149096428Y-77446428D02*
X149096428Y-77589285D01*
X149025000Y-77732142D01*
X148953571Y-77803571D01*
X148810714Y-77875000D01*
X148525000Y-77946428D01*
X148167857Y-77946428D01*
X147882142Y-77875000D01*
X147739285Y-77803571D01*
X147667857Y-77732142D01*
X147596428Y-77589285D01*
X147596428Y-77446428D01*
X147667857Y-77303571D01*
X147739285Y-77232142D01*
X147882142Y-77160714D01*
X148167857Y-77089285D01*
X148525000Y-77089285D01*
X148810714Y-77160714D01*
X148953571Y-77232142D01*
X149025000Y-77303571D01*
X149096428Y-77446428D01*
X145425000Y-75653571D02*
X145425000Y-76367857D01*
X144996428Y-75510714D02*
X146496428Y-76010714D01*
X144996428Y-76510714D01*
X146496428Y-76867857D02*
X146496428Y-77796428D01*
X145925000Y-77296428D01*
X145925000Y-77510714D01*
X145853571Y-77653571D01*
X145782142Y-77725000D01*
X145639285Y-77796428D01*
X145282142Y-77796428D01*
X145139285Y-77725000D01*
X145067857Y-77653571D01*
X144996428Y-77510714D01*
X144996428Y-77082142D01*
X145067857Y-76939285D01*
X145139285Y-76867857D01*
D10*
X132590476Y-90741666D02*
X133066666Y-90741666D01*
X132495238Y-91027380D02*
X132828571Y-90027380D01*
X133161904Y-91027380D01*
X133971428Y-90027380D02*
X133495238Y-90027380D01*
X133447619Y-90503571D01*
X133495238Y-90455952D01*
X133590476Y-90408333D01*
X133828571Y-90408333D01*
X133923809Y-90455952D01*
X133971428Y-90503571D01*
X134019047Y-90598809D01*
X134019047Y-90836904D01*
X133971428Y-90932142D01*
X133923809Y-90979761D01*
X133828571Y-91027380D01*
X133590476Y-91027380D01*
X133495238Y-90979761D01*
X133447619Y-90932142D01*
X134447619Y-90503571D02*
X135209523Y-90503571D01*
X135209523Y-90789285D02*
X134447619Y-90789285D01*
X135638095Y-90979761D02*
X135780952Y-91027380D01*
X136019047Y-91027380D01*
X136114285Y-90979761D01*
X136161904Y-90932142D01*
X136209523Y-90836904D01*
X136209523Y-90741666D01*
X136161904Y-90646428D01*
X136114285Y-90598809D01*
X136019047Y-90551190D01*
X135828571Y-90503571D01*
X135733333Y-90455952D01*
X135685714Y-90408333D01*
X135638095Y-90313095D01*
X135638095Y-90217857D01*
X135685714Y-90122619D01*
X135733333Y-90075000D01*
X135828571Y-90027380D01*
X136066666Y-90027380D01*
X136209523Y-90075000D01*
X137209523Y-90932142D02*
X137161904Y-90979761D01*
X137019047Y-91027380D01*
X136923809Y-91027380D01*
X136780952Y-90979761D01*
X136685714Y-90884523D01*
X136638095Y-90789285D01*
X136590476Y-90598809D01*
X136590476Y-90455952D01*
X136638095Y-90265476D01*
X136685714Y-90170238D01*
X136780952Y-90075000D01*
X136923809Y-90027380D01*
X137019047Y-90027380D01*
X137161904Y-90075000D01*
X137209523Y-90122619D01*
X137638095Y-91027380D02*
X137638095Y-90027380D01*
X138209523Y-91027380D02*
X137780952Y-90455952D01*
X138209523Y-90027380D02*
X137638095Y-90598809D01*
X132607142Y-94341666D02*
X133083333Y-94341666D01*
X132511904Y-94627380D02*
X132845238Y-93627380D01*
X133178571Y-94627380D01*
X133416666Y-93627380D02*
X134083333Y-93627380D01*
X133654761Y-94627380D01*
X134464285Y-94103571D02*
X135226190Y-94103571D01*
X135226190Y-94389285D02*
X134464285Y-94389285D01*
X135702380Y-94627380D02*
X135702380Y-93627380D01*
X136035714Y-94341666D01*
X136369047Y-93627380D01*
X136369047Y-94627380D01*
X137035714Y-93627380D02*
X137226190Y-93627380D01*
X137321428Y-93675000D01*
X137416666Y-93770238D01*
X137464285Y-93960714D01*
X137464285Y-94294047D01*
X137416666Y-94484523D01*
X137321428Y-94579761D01*
X137226190Y-94627380D01*
X137035714Y-94627380D01*
X136940476Y-94579761D01*
X136845238Y-94484523D01*
X136797619Y-94294047D01*
X136797619Y-93960714D01*
X136845238Y-93770238D01*
X136940476Y-93675000D01*
X137035714Y-93627380D01*
X137845238Y-94579761D02*
X137988095Y-94627380D01*
X138226190Y-94627380D01*
X138321428Y-94579761D01*
X138369047Y-94532142D01*
X138416666Y-94436904D01*
X138416666Y-94341666D01*
X138369047Y-94246428D01*
X138321428Y-94198809D01*
X138226190Y-94151190D01*
X138035714Y-94103571D01*
X137940476Y-94055952D01*
X137892857Y-94008333D01*
X137845238Y-93913095D01*
X137845238Y-93817857D01*
X137892857Y-93722619D01*
X137940476Y-93675000D01*
X138035714Y-93627380D01*
X138273809Y-93627380D01*
X138416666Y-93675000D01*
X138845238Y-94627380D02*
X138845238Y-93627380D01*
D11*
X133107142Y-79100000D02*
X132964285Y-79028571D01*
X132750000Y-79028571D01*
X132535714Y-79100000D01*
X132392857Y-79242857D01*
X132321428Y-79385714D01*
X132250000Y-79671428D01*
X132250000Y-79885714D01*
X132321428Y-80171428D01*
X132392857Y-80314285D01*
X132535714Y-80457142D01*
X132750000Y-80528571D01*
X132892857Y-80528571D01*
X133107142Y-80457142D01*
X133178571Y-80385714D01*
X133178571Y-79885714D01*
X132892857Y-79885714D01*
X133821428Y-80528571D02*
X133821428Y-79028571D01*
X134678571Y-80528571D01*
X134678571Y-79028571D01*
X135392857Y-80528571D02*
X135392857Y-79028571D01*
X135750000Y-79028571D01*
X135964285Y-79100000D01*
X136107142Y-79242857D01*
X136178571Y-79385714D01*
X136250000Y-79671428D01*
X136250000Y-79885714D01*
X136178571Y-80171428D01*
X136107142Y-80314285D01*
X135964285Y-80457142D01*
X135750000Y-80528571D01*
X135392857Y-80528571D01*
D10*
X124184523Y-76277380D02*
X123708333Y-76277380D01*
X123660714Y-76753571D01*
X123708333Y-76705952D01*
X123803571Y-76658333D01*
X124041666Y-76658333D01*
X124136904Y-76705952D01*
X124184523Y-76753571D01*
X124232142Y-76848809D01*
X124232142Y-77086904D01*
X124184523Y-77182142D01*
X124136904Y-77229761D01*
X124041666Y-77277380D01*
X123803571Y-77277380D01*
X123708333Y-77229761D01*
X123660714Y-77182142D01*
X124517857Y-76277380D02*
X124851190Y-77277380D01*
X125184523Y-76277380D01*
X114002380Y-78326190D02*
X114002380Y-77707142D01*
X114383333Y-78040476D01*
X114383333Y-77897619D01*
X114430952Y-77802380D01*
X114478571Y-77754761D01*
X114573809Y-77707142D01*
X114811904Y-77707142D01*
X114907142Y-77754761D01*
X114954761Y-77802380D01*
X115002380Y-77897619D01*
X115002380Y-78183333D01*
X114954761Y-78278571D01*
X114907142Y-78326190D01*
X114907142Y-77278571D02*
X114954761Y-77230952D01*
X115002380Y-77278571D01*
X114954761Y-77326190D01*
X114907142Y-77278571D01*
X115002380Y-77278571D01*
X114002380Y-76897619D02*
X114002380Y-76278571D01*
X114383333Y-76611904D01*
X114383333Y-76469047D01*
X114430952Y-76373809D01*
X114478571Y-76326190D01*
X114573809Y-76278571D01*
X114811904Y-76278571D01*
X114907142Y-76326190D01*
X114954761Y-76373809D01*
X115002380Y-76469047D01*
X115002380Y-76754761D01*
X114954761Y-76850000D01*
X114907142Y-76897619D01*
X114002380Y-75992857D02*
X115002380Y-75659523D01*
X114002380Y-75326190D01*
X117802380Y-73952380D02*
X118135714Y-74952380D01*
X118469047Y-73952380D01*
X118754761Y-74904761D02*
X118897619Y-74952380D01*
X119135714Y-74952380D01*
X119230952Y-74904761D01*
X119278571Y-74857142D01*
X119326190Y-74761904D01*
X119326190Y-74666666D01*
X119278571Y-74571428D01*
X119230952Y-74523809D01*
X119135714Y-74476190D01*
X118945238Y-74428571D01*
X118850000Y-74380952D01*
X118802380Y-74333333D01*
X118754761Y-74238095D01*
X118754761Y-74142857D01*
X118802380Y-74047619D01*
X118850000Y-74000000D01*
X118945238Y-73952380D01*
X119183333Y-73952380D01*
X119326190Y-74000000D01*
X119754761Y-74952380D02*
X119754761Y-73952380D01*
X120754761Y-74000000D02*
X120659523Y-73952380D01*
X120516666Y-73952380D01*
X120373809Y-74000000D01*
X120278571Y-74095238D01*
X120230952Y-74190476D01*
X120183333Y-74380952D01*
X120183333Y-74523809D01*
X120230952Y-74714285D01*
X120278571Y-74809523D01*
X120373809Y-74904761D01*
X120516666Y-74952380D01*
X120611904Y-74952380D01*
X120754761Y-74904761D01*
X120802380Y-74857142D01*
X120802380Y-74523809D01*
X120611904Y-74523809D01*
D12*
X142530000Y-104650000D02*
X142530000Y-105650000D01*
X141170000Y-105650000D02*
X141170000Y-104650000D01*
X165900000Y-91840000D02*
X164000000Y-91840000D01*
X164500000Y-94160000D02*
X165900000Y-94160000D01*
X165900000Y-89040000D02*
X164000000Y-89040000D01*
X164500000Y-91360000D02*
X165900000Y-91360000D01*
X165900000Y-86240000D02*
X164000000Y-86240000D01*
X164500000Y-88560000D02*
X165900000Y-88560000D01*
X165900000Y-83440000D02*
X164000000Y-83440000D01*
X164500000Y-85760000D02*
X165900000Y-85760000D01*
X166000000Y-112140000D02*
X164100000Y-112140000D01*
X164600000Y-114460000D02*
X166000000Y-114460000D01*
X166000000Y-109340000D02*
X164100000Y-109340000D01*
X164600000Y-111660000D02*
X166000000Y-111660000D01*
X166000000Y-106540000D02*
X164100000Y-106540000D01*
X164600000Y-108860000D02*
X166000000Y-108860000D01*
X166000000Y-103740000D02*
X164100000Y-103740000D01*
X164600000Y-106060000D02*
X166000000Y-106060000D01*
X148350000Y-118200000D02*
X148350000Y-118000000D01*
X148350000Y-112000000D02*
X148350000Y-112200000D01*
X155050000Y-112000000D02*
X155050000Y-112200000D01*
X155050000Y-118200000D02*
X155050000Y-118000000D01*
X155050000Y-116300000D02*
X155050000Y-113900000D01*
X148350000Y-116300000D02*
X148350000Y-113900000D01*
X148350000Y-118200000D02*
X155050000Y-118200000D01*
X155050000Y-112000000D02*
X148350000Y-112000000D01*
X148500000Y-111680000D02*
X147500000Y-111680000D01*
X147500000Y-110320000D02*
X148500000Y-110320000D01*
X127600000Y-94660000D02*
X129500000Y-94660000D01*
X129000000Y-92340000D02*
X127600000Y-92340000D01*
X127600000Y-111460000D02*
X129500000Y-111460000D01*
X129000000Y-109140000D02*
X127600000Y-109140000D01*
X127600000Y-105860000D02*
X129500000Y-105860000D01*
X129000000Y-103540000D02*
X127600000Y-103540000D01*
X127600000Y-114260000D02*
X129500000Y-114260000D01*
X129000000Y-111940000D02*
X127600000Y-111940000D01*
X127600000Y-91860000D02*
X129500000Y-91860000D01*
X129000000Y-89540000D02*
X127600000Y-89540000D01*
X127600000Y-86260000D02*
X129500000Y-86260000D01*
X129000000Y-83940000D02*
X127600000Y-83940000D01*
X127600000Y-108660000D02*
X129500000Y-108660000D01*
X129000000Y-106340000D02*
X127600000Y-106340000D01*
X127600000Y-89060000D02*
X129500000Y-89060000D01*
X129000000Y-86740000D02*
X127600000Y-86740000D01*
X127800000Y-101720000D02*
X128800000Y-101720000D01*
X128800000Y-103080000D02*
X127800000Y-103080000D01*
X165700000Y-82980000D02*
X164700000Y-82980000D01*
X164700000Y-81620000D02*
X165700000Y-81620000D01*
X165800000Y-103380000D02*
X164800000Y-103380000D01*
X164800000Y-102020000D02*
X165800000Y-102020000D01*
X127800000Y-82220000D02*
X128800000Y-82220000D01*
X128800000Y-83580000D02*
X127800000Y-83580000D01*
X144720000Y-112400000D02*
X144720000Y-111400000D01*
X146080000Y-111400000D02*
X146080000Y-112400000D01*
X136930000Y-78470000D02*
X136930000Y-83670000D01*
X152230000Y-78470000D02*
X136930000Y-78470000D01*
X154830000Y-83670000D02*
X136930000Y-83670000D01*
X152230000Y-78470000D02*
X152230000Y-81070000D01*
X152230000Y-81070000D02*
X154830000Y-81070000D01*
X154830000Y-81070000D02*
X154830000Y-83670000D01*
X153500000Y-78470000D02*
X154830000Y-78470000D01*
X154830000Y-78470000D02*
X154830000Y-79800000D01*
X171130000Y-56380000D02*
X178170000Y-56380000D01*
X178170000Y-56380000D02*
X178170000Y-57580000D01*
X178170000Y-57580000D02*
X179870000Y-57580000D01*
X179870000Y-57580000D02*
X179870000Y-63280000D01*
X179870000Y-63280000D02*
X178170000Y-63280000D01*
X178170000Y-63280000D02*
X178170000Y-64480000D01*
X178170000Y-64480000D02*
X171130000Y-64480000D01*
X171130000Y-64480000D02*
X171130000Y-56380000D01*
X115950000Y-65300000D02*
X115100000Y-65300000D01*
X166150000Y-65300000D02*
X167000000Y-65300000D01*
X117650000Y-68050000D02*
X117650000Y-69950000D01*
X118250000Y-68050000D02*
X118250000Y-69950000D01*
X121850000Y-68050000D02*
X121850000Y-69950000D01*
X122450000Y-68050000D02*
X122450000Y-69950000D01*
X126050000Y-68050000D02*
X126050000Y-69950000D01*
X126650000Y-68050000D02*
X126650000Y-69950000D01*
X130250000Y-68050000D02*
X130250000Y-69950000D01*
X130850000Y-68050000D02*
X130850000Y-69950000D01*
X134450000Y-68050000D02*
X134450000Y-69950000D01*
X135050000Y-68050000D02*
X135050000Y-69950000D01*
X138650000Y-68050000D02*
X138650000Y-69950000D01*
X139250000Y-68050000D02*
X139250000Y-69950000D01*
X142850000Y-68050000D02*
X142850000Y-69950000D01*
X143450000Y-68050000D02*
X143450000Y-69950000D01*
X147050000Y-68050000D02*
X147050000Y-69950000D01*
X147650000Y-68050000D02*
X147650000Y-69950000D01*
X151250000Y-68050000D02*
X151250000Y-69950000D01*
X151850000Y-68050000D02*
X151850000Y-69950000D01*
X155450000Y-68050000D02*
X155450000Y-69950000D01*
X156050000Y-68050000D02*
X156050000Y-69950000D01*
X159650000Y-68050000D02*
X159650000Y-69950000D01*
X160250000Y-68050000D02*
X160250000Y-69950000D01*
X163850000Y-68050000D02*
X163850000Y-69950000D01*
X164450000Y-68050000D02*
X164450000Y-69950000D01*
X119750000Y-65250000D02*
X120350000Y-65250000D01*
X123950000Y-65250000D02*
X124550000Y-65250000D01*
X128150000Y-65250000D02*
X128750000Y-65250000D01*
X132350000Y-65250000D02*
X132950000Y-65250000D01*
X136550000Y-65250000D02*
X137150000Y-65250000D01*
X140750000Y-65250000D02*
X141350000Y-65250000D01*
X144950000Y-65250000D02*
X145550000Y-65250000D01*
X149150000Y-65250000D02*
X149750000Y-65250000D01*
X153350000Y-65250000D02*
X153950000Y-65250000D01*
X157550000Y-65250000D02*
X158150000Y-65250000D01*
X161750000Y-65250000D02*
X162350000Y-65250000D01*
X115950000Y-66250000D02*
X115350000Y-66550000D01*
X115350000Y-66550000D02*
X115350000Y-65950000D01*
X115350000Y-65950000D02*
X115950000Y-66250000D01*
D13*
X167000000Y-65300000D02*
X167000000Y-57950000D01*
X115100000Y-65300000D02*
X115100000Y-58000000D01*
D12*
X133670000Y-118070000D02*
X138870000Y-118070000D01*
X133670000Y-115470000D02*
X133670000Y-118070000D01*
X138870000Y-112870000D02*
X138870000Y-118070000D01*
X133670000Y-115470000D02*
X136270000Y-115470000D01*
X136270000Y-115470000D02*
X136270000Y-112870000D01*
X136270000Y-112870000D02*
X138870000Y-112870000D01*
X133670000Y-114200000D02*
X133670000Y-112870000D01*
X133670000Y-112870000D02*
X135000000Y-112870000D01*
X123110000Y-78080000D02*
X123110000Y-75420000D01*
X117970000Y-78080000D02*
X123110000Y-78080000D01*
X117970000Y-75420000D02*
X123110000Y-75420000D01*
X117970000Y-78080000D02*
X117970000Y-75420000D01*
X116700000Y-78080000D02*
X115370000Y-78080000D01*
X115370000Y-78080000D02*
X115370000Y-76750000D01*
X147250000Y-87680000D02*
X146250000Y-87680000D01*
X146250000Y-86320000D02*
X147250000Y-86320000D01*
X152330000Y-101150000D02*
X152330000Y-102150000D01*
X150970000Y-102150000D02*
X150970000Y-101150000D01*
X145170000Y-89650000D02*
X145170000Y-88650000D01*
X146530000Y-88650000D02*
X146530000Y-89650000D01*
X152200000Y-91570000D02*
X153200000Y-91570000D01*
X153200000Y-92930000D02*
X152200000Y-92930000D01*
X142250000Y-101130000D02*
X141250000Y-101130000D01*
X141250000Y-99770000D02*
X142250000Y-99770000D01*
D10*
X150825000Y-92775000D02*
X150375000Y-92775000D01*
X150825000Y-100025000D02*
X150300000Y-100025000D01*
X143575000Y-100025000D02*
X144100000Y-100025000D01*
X143575000Y-92775000D02*
X144100000Y-92775000D01*
X150825000Y-92775000D02*
X150825000Y-93300000D01*
X143575000Y-92775000D02*
X143575000Y-93300000D01*
X143575000Y-100025000D02*
X143575000Y-99500000D01*
X150825000Y-100025000D02*
X150825000Y-99500000D01*
X150375000Y-92775000D02*
X150375000Y-91400000D01*
D12*
X173275000Y-95625000D02*
X173275000Y-96900000D01*
X173275000Y-96900000D02*
X171675000Y-96900000D01*
X171675000Y-96900000D02*
X171675000Y-97900000D01*
X171675000Y-97900000D02*
X175900000Y-97900000D01*
X175900000Y-79800000D02*
X171675000Y-79800000D01*
X171675000Y-79800000D02*
X171675000Y-80800000D01*
X171675000Y-80800000D02*
X173275000Y-80800000D01*
X173275000Y-80800000D02*
X173275000Y-82075000D01*
X179475000Y-96175000D02*
X179475000Y-81525000D01*
X173275000Y-95625000D02*
X170375000Y-95625000D01*
X173275000Y-115775000D02*
X173275000Y-117050000D01*
X173275000Y-117050000D02*
X171675000Y-117050000D01*
X171675000Y-117050000D02*
X171675000Y-118050000D01*
X171675000Y-118050000D02*
X175900000Y-118050000D01*
X175900000Y-99950000D02*
X171675000Y-99950000D01*
X171675000Y-99950000D02*
X171675000Y-100950000D01*
X171675000Y-100950000D02*
X173275000Y-100950000D01*
X173275000Y-100950000D02*
X173275000Y-102225000D01*
X179475000Y-116325000D02*
X179475000Y-101675000D01*
X173275000Y-115775000D02*
X170375000Y-115775000D01*
X120075000Y-102175000D02*
X120075000Y-100900000D01*
X120075000Y-100900000D02*
X121675000Y-100900000D01*
X121675000Y-100900000D02*
X121675000Y-99900000D01*
X121675000Y-99900000D02*
X117450000Y-99900000D01*
X117450000Y-118000000D02*
X121675000Y-118000000D01*
X121675000Y-118000000D02*
X121675000Y-117000000D01*
X121675000Y-117000000D02*
X120075000Y-117000000D01*
X120075000Y-117000000D02*
X120075000Y-115725000D01*
X113875000Y-101625000D02*
X113875000Y-116275000D01*
X120075000Y-102175000D02*
X122975000Y-102175000D01*
X120075000Y-82575000D02*
X120075000Y-81300000D01*
X120075000Y-81300000D02*
X121675000Y-81300000D01*
X121675000Y-81300000D02*
X121675000Y-80300000D01*
X121675000Y-80300000D02*
X117450000Y-80300000D01*
X117450000Y-98400000D02*
X121675000Y-98400000D01*
X121675000Y-98400000D02*
X121675000Y-97400000D01*
X121675000Y-97400000D02*
X120075000Y-97400000D01*
X120075000Y-97400000D02*
X120075000Y-96125000D01*
X113875000Y-82025000D02*
X113875000Y-96675000D01*
X120075000Y-82575000D02*
X122975000Y-82575000D01*
X171130000Y-67080000D02*
X178170000Y-67080000D01*
X178170000Y-67080000D02*
X178170000Y-68280000D01*
X178170000Y-68280000D02*
X179870000Y-68280000D01*
X179870000Y-68280000D02*
X179870000Y-73980000D01*
X179870000Y-73980000D02*
X178170000Y-73980000D01*
X178170000Y-73980000D02*
X178170000Y-75180000D01*
X178170000Y-75180000D02*
X171130000Y-75180000D01*
X171130000Y-75180000D02*
X171130000Y-67080000D01*
X176050000Y-66880000D02*
X175750000Y-66280000D01*
X175750000Y-66280000D02*
X176350000Y-66280000D01*
X176350000Y-66280000D02*
X176050000Y-66880000D01*
D13*
X143396428Y-105250000D02*
X143110714Y-105450000D01*
X143396428Y-105592857D02*
X142796428Y-105592857D01*
X142796428Y-105364285D01*
X142825000Y-105307142D01*
X142853571Y-105278571D01*
X142910714Y-105250000D01*
X142996428Y-105250000D01*
X143053571Y-105278571D01*
X143082142Y-105307142D01*
X143110714Y-105364285D01*
X143110714Y-105592857D01*
X142853571Y-105021428D02*
X142825000Y-104992857D01*
X142796428Y-104935714D01*
X142796428Y-104792857D01*
X142825000Y-104735714D01*
X142853571Y-104707142D01*
X142910714Y-104678571D01*
X142967857Y-104678571D01*
X143053571Y-104707142D01*
X143396428Y-105050000D01*
X143396428Y-104678571D01*
X147900000Y-109871428D02*
X147700000Y-109585714D01*
X147557142Y-109871428D02*
X147557142Y-109271428D01*
X147785714Y-109271428D01*
X147842857Y-109300000D01*
X147871428Y-109328571D01*
X147900000Y-109385714D01*
X147900000Y-109471428D01*
X147871428Y-109528571D01*
X147842857Y-109557142D01*
X147785714Y-109585714D01*
X147557142Y-109585714D01*
X148471428Y-109871428D02*
X148128571Y-109871428D01*
X148300000Y-109871428D02*
X148300000Y-109271428D01*
X148242857Y-109357142D01*
X148185714Y-109414285D01*
X148128571Y-109442857D01*
X128200000Y-101314285D02*
X128171428Y-101342857D01*
X128085714Y-101371428D01*
X128028571Y-101371428D01*
X127942857Y-101342857D01*
X127885714Y-101285714D01*
X127857142Y-101228571D01*
X127828571Y-101114285D01*
X127828571Y-101028571D01*
X127857142Y-100914285D01*
X127885714Y-100857142D01*
X127942857Y-100800000D01*
X128028571Y-100771428D01*
X128085714Y-100771428D01*
X128171428Y-100800000D01*
X128200000Y-100828571D01*
X128400000Y-100771428D02*
X128771428Y-100771428D01*
X128571428Y-101000000D01*
X128657142Y-101000000D01*
X128714285Y-101028571D01*
X128742857Y-101057142D01*
X128771428Y-101114285D01*
X128771428Y-101257142D01*
X128742857Y-101314285D01*
X128714285Y-101342857D01*
X128657142Y-101371428D01*
X128485714Y-101371428D01*
X128428571Y-101342857D01*
X128400000Y-101314285D01*
X165100000Y-81214285D02*
X165071428Y-81242857D01*
X164985714Y-81271428D01*
X164928571Y-81271428D01*
X164842857Y-81242857D01*
X164785714Y-81185714D01*
X164757142Y-81128571D01*
X164728571Y-81014285D01*
X164728571Y-80928571D01*
X164757142Y-80814285D01*
X164785714Y-80757142D01*
X164842857Y-80700000D01*
X164928571Y-80671428D01*
X164985714Y-80671428D01*
X165071428Y-80700000D01*
X165100000Y-80728571D01*
X165671428Y-81271428D02*
X165328571Y-81271428D01*
X165500000Y-81271428D02*
X165500000Y-80671428D01*
X165442857Y-80757142D01*
X165385714Y-80814285D01*
X165328571Y-80842857D01*
X164839285Y-101564285D02*
X164810714Y-101592857D01*
X164725000Y-101621428D01*
X164667857Y-101621428D01*
X164582142Y-101592857D01*
X164525000Y-101535714D01*
X164496428Y-101478571D01*
X164467857Y-101364285D01*
X164467857Y-101278571D01*
X164496428Y-101164285D01*
X164525000Y-101107142D01*
X164582142Y-101050000D01*
X164667857Y-101021428D01*
X164725000Y-101021428D01*
X164810714Y-101050000D01*
X164839285Y-101078571D01*
X165410714Y-101621428D02*
X165067857Y-101621428D01*
X165239285Y-101621428D02*
X165239285Y-101021428D01*
X165182142Y-101107142D01*
X165125000Y-101164285D01*
X165067857Y-101192857D01*
X165925000Y-101221428D02*
X165925000Y-101621428D01*
X165782142Y-100992857D02*
X165639285Y-101421428D01*
X166010714Y-101421428D01*
X127914285Y-81914285D02*
X127885714Y-81942857D01*
X127800000Y-81971428D01*
X127742857Y-81971428D01*
X127657142Y-81942857D01*
X127600000Y-81885714D01*
X127571428Y-81828571D01*
X127542857Y-81714285D01*
X127542857Y-81628571D01*
X127571428Y-81514285D01*
X127600000Y-81457142D01*
X127657142Y-81400000D01*
X127742857Y-81371428D01*
X127800000Y-81371428D01*
X127885714Y-81400000D01*
X127914285Y-81428571D01*
X128485714Y-81971428D02*
X128142857Y-81971428D01*
X128314285Y-81971428D02*
X128314285Y-81371428D01*
X128257142Y-81457142D01*
X128200000Y-81514285D01*
X128142857Y-81542857D01*
X128828571Y-81628571D02*
X128771428Y-81600000D01*
X128742857Y-81571428D01*
X128714285Y-81514285D01*
X128714285Y-81485714D01*
X128742857Y-81428571D01*
X128771428Y-81400000D01*
X128828571Y-81371428D01*
X128942857Y-81371428D01*
X129000000Y-81400000D01*
X129028571Y-81428571D01*
X129057142Y-81485714D01*
X129057142Y-81514285D01*
X129028571Y-81571428D01*
X129000000Y-81600000D01*
X128942857Y-81628571D01*
X128828571Y-81628571D01*
X128771428Y-81657142D01*
X128742857Y-81685714D01*
X128714285Y-81742857D01*
X128714285Y-81857142D01*
X128742857Y-81914285D01*
X128771428Y-81942857D01*
X128828571Y-81971428D01*
X128942857Y-81971428D01*
X129000000Y-81942857D01*
X129028571Y-81914285D01*
X129057142Y-81857142D01*
X129057142Y-81742857D01*
X129028571Y-81685714D01*
X129000000Y-81657142D01*
X128942857Y-81628571D01*
X144214285Y-112185714D02*
X144242857Y-112214285D01*
X144271428Y-112300000D01*
X144271428Y-112357142D01*
X144242857Y-112442857D01*
X144185714Y-112500000D01*
X144128571Y-112528571D01*
X144014285Y-112557142D01*
X143928571Y-112557142D01*
X143814285Y-112528571D01*
X143757142Y-112500000D01*
X143700000Y-112442857D01*
X143671428Y-112357142D01*
X143671428Y-112300000D01*
X143700000Y-112214285D01*
X143728571Y-112185714D01*
X144271428Y-111614285D02*
X144271428Y-111957142D01*
X144271428Y-111785714D02*
X143671428Y-111785714D01*
X143757142Y-111842857D01*
X143814285Y-111900000D01*
X143842857Y-111957142D01*
X144271428Y-111042857D02*
X144271428Y-111385714D01*
X144271428Y-111214285D02*
X143671428Y-111214285D01*
X143757142Y-111271428D01*
X143814285Y-111328571D01*
X143842857Y-111385714D01*
X147475000Y-88514285D02*
X147446428Y-88542857D01*
X147360714Y-88571428D01*
X147303571Y-88571428D01*
X147217857Y-88542857D01*
X147160714Y-88485714D01*
X147132142Y-88428571D01*
X147103571Y-88314285D01*
X147103571Y-88228571D01*
X147132142Y-88114285D01*
X147160714Y-88057142D01*
X147217857Y-88000000D01*
X147303571Y-87971428D01*
X147360714Y-87971428D01*
X147446428Y-88000000D01*
X147475000Y-88028571D01*
X147675000Y-87971428D02*
X148075000Y-87971428D01*
X147817857Y-88571428D01*
X153164285Y-101750000D02*
X153192857Y-101778571D01*
X153221428Y-101864285D01*
X153221428Y-101921428D01*
X153192857Y-102007142D01*
X153135714Y-102064285D01*
X153078571Y-102092857D01*
X152964285Y-102121428D01*
X152878571Y-102121428D01*
X152764285Y-102092857D01*
X152707142Y-102064285D01*
X152650000Y-102007142D01*
X152621428Y-101921428D01*
X152621428Y-101864285D01*
X152650000Y-101778571D01*
X152678571Y-101750000D01*
X153221428Y-101464285D02*
X153221428Y-101350000D01*
X153192857Y-101292857D01*
X153164285Y-101264285D01*
X153078571Y-101207142D01*
X152964285Y-101178571D01*
X152735714Y-101178571D01*
X152678571Y-101207142D01*
X152650000Y-101235714D01*
X152621428Y-101292857D01*
X152621428Y-101407142D01*
X152650000Y-101464285D01*
X152678571Y-101492857D01*
X152735714Y-101521428D01*
X152878571Y-101521428D01*
X152935714Y-101492857D01*
X152964285Y-101464285D01*
X152992857Y-101407142D01*
X152992857Y-101292857D01*
X152964285Y-101235714D01*
X152935714Y-101207142D01*
X152878571Y-101178571D01*
X147439285Y-89975000D02*
X147467857Y-90003571D01*
X147496428Y-90089285D01*
X147496428Y-90146428D01*
X147467857Y-90232142D01*
X147410714Y-90289285D01*
X147353571Y-90317857D01*
X147239285Y-90346428D01*
X147153571Y-90346428D01*
X147039285Y-90317857D01*
X146982142Y-90289285D01*
X146925000Y-90232142D01*
X146896428Y-90146428D01*
X146896428Y-90089285D01*
X146925000Y-90003571D01*
X146953571Y-89975000D01*
X147153571Y-89632142D02*
X147125000Y-89689285D01*
X147096428Y-89717857D01*
X147039285Y-89746428D01*
X147010714Y-89746428D01*
X146953571Y-89717857D01*
X146925000Y-89689285D01*
X146896428Y-89632142D01*
X146896428Y-89517857D01*
X146925000Y-89460714D01*
X146953571Y-89432142D01*
X147010714Y-89403571D01*
X147039285Y-89403571D01*
X147096428Y-89432142D01*
X147125000Y-89460714D01*
X147153571Y-89517857D01*
X147153571Y-89632142D01*
X147182142Y-89689285D01*
X147210714Y-89717857D01*
X147267857Y-89746428D01*
X147382142Y-89746428D01*
X147439285Y-89717857D01*
X147467857Y-89689285D01*
X147496428Y-89632142D01*
X147496428Y-89517857D01*
X147467857Y-89460714D01*
X147439285Y-89432142D01*
X147382142Y-89403571D01*
X147267857Y-89403571D01*
X147210714Y-89432142D01*
X147182142Y-89460714D01*
X147153571Y-89517857D01*
X152500000Y-91014285D02*
X152471428Y-91042857D01*
X152385714Y-91071428D01*
X152328571Y-91071428D01*
X152242857Y-91042857D01*
X152185714Y-90985714D01*
X152157142Y-90928571D01*
X152128571Y-90814285D01*
X152128571Y-90728571D01*
X152157142Y-90614285D01*
X152185714Y-90557142D01*
X152242857Y-90500000D01*
X152328571Y-90471428D01*
X152385714Y-90471428D01*
X152471428Y-90500000D01*
X152500000Y-90528571D01*
X153014285Y-90471428D02*
X152900000Y-90471428D01*
X152842857Y-90500000D01*
X152814285Y-90528571D01*
X152757142Y-90614285D01*
X152728571Y-90728571D01*
X152728571Y-90957142D01*
X152757142Y-91014285D01*
X152785714Y-91042857D01*
X152842857Y-91071428D01*
X152957142Y-91071428D01*
X153014285Y-91042857D01*
X153042857Y-91014285D01*
X153071428Y-90957142D01*
X153071428Y-90814285D01*
X153042857Y-90757142D01*
X153014285Y-90728571D01*
X152957142Y-90700000D01*
X152842857Y-90700000D01*
X152785714Y-90728571D01*
X152757142Y-90757142D01*
X152728571Y-90814285D01*
X141600000Y-102114285D02*
X141571428Y-102142857D01*
X141485714Y-102171428D01*
X141428571Y-102171428D01*
X141342857Y-102142857D01*
X141285714Y-102085714D01*
X141257142Y-102028571D01*
X141228571Y-101914285D01*
X141228571Y-101828571D01*
X141257142Y-101714285D01*
X141285714Y-101657142D01*
X141342857Y-101600000D01*
X141428571Y-101571428D01*
X141485714Y-101571428D01*
X141571428Y-101600000D01*
X141600000Y-101628571D01*
X142142857Y-101571428D02*
X141857142Y-101571428D01*
X141828571Y-101857142D01*
X141857142Y-101828571D01*
X141914285Y-101800000D01*
X142057142Y-101800000D01*
X142114285Y-101828571D01*
X142142857Y-101857142D01*
X142171428Y-101914285D01*
X142171428Y-102057142D01*
X142142857Y-102114285D01*
X142114285Y-102142857D01*
X142057142Y-102171428D01*
X141914285Y-102171428D01*
X141857142Y-102142857D01*
X141828571Y-102114285D01*
D11*
X169225000Y-79303571D02*
X169225000Y-80375000D01*
X169153571Y-80589285D01*
X169010714Y-80732142D01*
X168796428Y-80803571D01*
X168653571Y-80803571D01*
X170653571Y-79303571D02*
X169939285Y-79303571D01*
X169867857Y-80017857D01*
X169939285Y-79946428D01*
X170082142Y-79875000D01*
X170439285Y-79875000D01*
X170582142Y-79946428D01*
X170653571Y-80017857D01*
X170725000Y-80160714D01*
X170725000Y-80517857D01*
X170653571Y-80660714D01*
X170582142Y-80732142D01*
X170439285Y-80803571D01*
X170082142Y-80803571D01*
X169939285Y-80732142D01*
X169867857Y-80660714D01*
X169400000Y-116403571D02*
X169400000Y-117475000D01*
X169328571Y-117689285D01*
X169185714Y-117832142D01*
X168971428Y-117903571D01*
X168828571Y-117903571D01*
X169971428Y-116403571D02*
X170971428Y-116403571D01*
X170328571Y-117903571D01*
X123025000Y-116278571D02*
X123025000Y-117350000D01*
X122953571Y-117564285D01*
X122810714Y-117707142D01*
X122596428Y-117778571D01*
X122453571Y-117778571D01*
X123596428Y-116278571D02*
X124525000Y-116278571D01*
X124025000Y-116850000D01*
X124239285Y-116850000D01*
X124382142Y-116921428D01*
X124453571Y-116992857D01*
X124525000Y-117135714D01*
X124525000Y-117492857D01*
X124453571Y-117635714D01*
X124382142Y-117707142D01*
X124239285Y-117778571D01*
X123810714Y-117778571D01*
X123667857Y-117707142D01*
X123596428Y-117635714D01*
X123275000Y-79653571D02*
X123275000Y-80725000D01*
X123203571Y-80939285D01*
X123060714Y-81082142D01*
X122846428Y-81153571D01*
X122703571Y-81153571D01*
X124775000Y-81153571D02*
X123917857Y-81153571D01*
X124346428Y-81153571D02*
X124346428Y-79653571D01*
X124203571Y-79867857D01*
X124060714Y-80010714D01*
X123917857Y-80082142D01*
M02*
