M48
; DRILL file {KiCad (5.1.2)-2} date 21/09/2019 22:45:46
; FORMAT={-:-/ absolute / inch / decimal}
; #@! TF.CreationDate,2019-09-21T22:45:46+01:00
; #@! TF.GenerationSoftware,Kicad,Pcbnew,(5.1.2)-2
FMAT,2
INCH
T1C0.0118
T2C0.0256
T3C0.0394
T4C0.0433
T5C0.0787
%
G90
G05
T1
X5.6102Y-3.4852
X5.7372Y-3.4872
X5.8661Y-3.4862
X5.9921Y-3.4882
X6.1083Y-3.4872
X6.2421Y-3.4862
X6.3583Y-3.4843
X6.4872Y-3.4823
T2
X5.8774Y-3.3583
X5.9274Y-3.3583
X5.9774Y-3.3583
X6.1274Y-3.3563
X6.1774Y-3.3563
X6.2274Y-3.3563
X5.649Y-3.3602
X5.699Y-3.3602
X5.749Y-3.3602
X6.3695Y-3.3543
X6.4195Y-3.3543
X6.4695Y-3.3543
T3
X5.7976Y-3.0669
X5.7976Y-3.1669
X5.8976Y-3.0669
X5.8976Y-3.1669
X5.9976Y-3.0669
X5.9976Y-3.1669
X6.0976Y-3.0669
X6.0976Y-3.1669
X6.1976Y-3.0669
X6.1976Y-3.1669
X6.2976Y-3.0669
X6.2976Y-3.1669
X6.3976Y-3.0669
X6.3976Y-3.1669
X6.5364Y-3.0886
X6.5364Y-3.187
X6.5364Y-3.2854
T4
X5.4724Y-3.0089
X5.4724Y-3.2648
X5.6496Y-3.0089
X5.6496Y-3.2648
T5
X6.8317Y-3.0
X6.8317Y-3.374
T0
M30
