G04 #@! TF.GenerationSoftware,KiCad,Pcbnew,(5.1.2)-2*
G04 #@! TF.CreationDate,2019-09-21T22:45:55+01:00*
G04 #@! TF.ProjectId,LEDPanelControllerHAT,4c454450-616e-4656-9c43-6f6e74726f6c,rev?*
G04 #@! TF.SameCoordinates,Original*
G04 #@! TF.FileFunction,Legend,Bot*
G04 #@! TF.FilePolarity,Positive*
%FSLAX46Y46*%
G04 Gerber Fmt 4.6, Leading zero omitted, Abs format (unit mm)*
G04 Created by KiCad (PCBNEW (5.1.2)-2) date 2019-09-21 22:45:55*
%MOMM*%
%LPD*%
G04 APERTURE LIST*
%ADD10C,0.120000*%
%ADD11C,1.000000*%
%ADD12O,1.000000X1.000000*%
%ADD13R,0.900000X0.800000*%
%ADD14C,2.000000*%
%ADD15C,3.000000*%
%ADD16C,1.800000*%
%ADD17R,1.700000X1.700000*%
%ADD18O,1.700000X1.700000*%
G04 APERTURE END LIST*
D10*
X169355000Y-80550000D02*
X169355000Y-79550000D01*
X167995000Y-79550000D02*
X167995000Y-80550000D01*
X166430000Y-88950000D02*
X166430000Y-87950000D01*
X165070000Y-87950000D02*
X165070000Y-88950000D01*
X160570000Y-88000000D02*
X160570000Y-89000000D01*
X161930000Y-89000000D02*
X161930000Y-88000000D01*
X159930000Y-89000000D02*
X159930000Y-88000000D01*
X158570000Y-88000000D02*
X158570000Y-89000000D01*
X154070000Y-88000000D02*
X154070000Y-89000000D01*
X155430000Y-89000000D02*
X155430000Y-88000000D01*
X153430000Y-89000000D02*
X153430000Y-88000000D01*
X152070000Y-88000000D02*
X152070000Y-89000000D01*
X147570000Y-88000000D02*
X147570000Y-89000000D01*
X148930000Y-89000000D02*
X148930000Y-88000000D01*
X146930000Y-89000000D02*
X146930000Y-88000000D01*
X145570000Y-88000000D02*
X145570000Y-89000000D01*
X141070000Y-88000000D02*
X141070000Y-89000000D01*
X142430000Y-89000000D02*
X142430000Y-88000000D01*
X164930000Y-88950000D02*
X164930000Y-87950000D01*
X163570000Y-87950000D02*
X163570000Y-88950000D01*
X162070000Y-87975000D02*
X162070000Y-88975000D01*
X163430000Y-88975000D02*
X163430000Y-87975000D01*
X158430000Y-89000000D02*
X158430000Y-88000000D01*
X157070000Y-88000000D02*
X157070000Y-89000000D01*
X155570000Y-88000000D02*
X155570000Y-89000000D01*
X156930000Y-89000000D02*
X156930000Y-88000000D01*
X170930000Y-80525000D02*
X170930000Y-79525000D01*
X169570000Y-79525000D02*
X169570000Y-80525000D01*
X151930000Y-89000000D02*
X151930000Y-88000000D01*
X150570000Y-88000000D02*
X150570000Y-89000000D01*
X149070000Y-88000000D02*
X149070000Y-89000000D01*
X150430000Y-89000000D02*
X150430000Y-88000000D01*
X145430000Y-89000000D02*
X145430000Y-88000000D01*
X144070000Y-88000000D02*
X144070000Y-89000000D01*
X142570000Y-88000000D02*
X142570000Y-89000000D01*
X143930000Y-89000000D02*
X143930000Y-88000000D01*
%LPC*%
D11*
X164325000Y-85200000D03*
D12*
X163055000Y-85200000D03*
X161785000Y-85200000D03*
D11*
X158175000Y-85250000D03*
D12*
X156905000Y-85250000D03*
X155635000Y-85250000D03*
D11*
X151825000Y-85300000D03*
D12*
X150555000Y-85300000D03*
X149285000Y-85300000D03*
D11*
X146025000Y-85350000D03*
D12*
X144755000Y-85350000D03*
X143485000Y-85350000D03*
D13*
X168675000Y-79150000D03*
X168675000Y-80950000D03*
D14*
X143500000Y-82925000D03*
X139000000Y-82925000D03*
X143500000Y-76425000D03*
X139000000Y-76425000D03*
D15*
X173525000Y-85700000D03*
X173525000Y-76200000D03*
D16*
X166025000Y-83450000D03*
X166025000Y-80950000D03*
X166025000Y-78450000D03*
D13*
X165750000Y-87550000D03*
X165750000Y-89350000D03*
X161250000Y-89400000D03*
X161250000Y-87600000D03*
X159250000Y-87600000D03*
X159250000Y-89400000D03*
X154750000Y-89400000D03*
X154750000Y-87600000D03*
X152750000Y-87600000D03*
X152750000Y-89400000D03*
X148250000Y-89400000D03*
X148250000Y-87600000D03*
X146250000Y-87600000D03*
X146250000Y-89400000D03*
X141750000Y-89400000D03*
X141750000Y-87600000D03*
D17*
X162500000Y-77900000D03*
D18*
X162500000Y-80440000D03*
X159960000Y-77900000D03*
X159960000Y-80440000D03*
X157420000Y-77900000D03*
X157420000Y-80440000D03*
X154880000Y-77900000D03*
X154880000Y-80440000D03*
X152340000Y-77900000D03*
X152340000Y-80440000D03*
X149800000Y-77900000D03*
X149800000Y-80440000D03*
X147260000Y-77900000D03*
X147260000Y-80440000D03*
D13*
X164250000Y-87550000D03*
X164250000Y-89350000D03*
X162750000Y-89375000D03*
X162750000Y-87575000D03*
X157750000Y-87600000D03*
X157750000Y-89400000D03*
X156250000Y-89400000D03*
X156250000Y-87600000D03*
X170250000Y-79125000D03*
X170250000Y-80925000D03*
X151250000Y-87600000D03*
X151250000Y-89400000D03*
X149750000Y-89400000D03*
X149750000Y-87600000D03*
X144750000Y-87600000D03*
X144750000Y-89400000D03*
X143250000Y-89400000D03*
X143250000Y-87600000D03*
M02*
