G04 #@! TF.GenerationSoftware,KiCad,Pcbnew,(5.1.2)-2*
G04 #@! TF.CreationDate,2019-09-21T22:45:55+01:00*
G04 #@! TF.ProjectId,LEDPanelControllerHAT,4c454450-616e-4656-9c43-6f6e74726f6c,rev?*
G04 #@! TF.SameCoordinates,Original*
G04 #@! TF.FileFunction,Copper,L1,Top*
G04 #@! TF.FilePolarity,Positive*
%FSLAX46Y46*%
G04 Gerber Fmt 4.6, Leading zero omitted, Abs format (unit mm)*
G04 Created by KiCad (PCBNEW (5.1.2)-2) date 2019-09-21 22:45:55*
%MOMM*%
%LPD*%
G04 APERTURE LIST*
%ADD10C,1.000000*%
%ADD11O,1.000000X1.000000*%
%ADD12C,2.000000*%
%ADD13C,3.000000*%
%ADD14C,1.800000*%
%ADD15R,1.700000X1.700000*%
%ADD16O,1.700000X1.700000*%
%ADD17C,0.600000*%
%ADD18C,0.250000*%
G04 APERTURE END LIST*
D10*
X164325000Y-85200000D03*
D11*
X163055000Y-85200000D03*
X161785000Y-85200000D03*
D10*
X158175000Y-85250000D03*
D11*
X156905000Y-85250000D03*
X155635000Y-85250000D03*
D10*
X151825000Y-85300000D03*
D11*
X150555000Y-85300000D03*
X149285000Y-85300000D03*
D10*
X146025000Y-85350000D03*
D11*
X144755000Y-85350000D03*
X143485000Y-85350000D03*
D12*
X143500000Y-82925000D03*
X139000000Y-82925000D03*
X143500000Y-76425000D03*
X139000000Y-76425000D03*
D13*
X173525000Y-85700000D03*
X173525000Y-76200000D03*
D14*
X166025000Y-83450000D03*
X166025000Y-80950000D03*
X166025000Y-78450000D03*
D15*
X162500000Y-77900000D03*
D16*
X162500000Y-80440000D03*
X159960000Y-77900000D03*
X159960000Y-80440000D03*
X157420000Y-77900000D03*
X157420000Y-80440000D03*
X154880000Y-77900000D03*
X154880000Y-80440000D03*
X152340000Y-77900000D03*
X152340000Y-80440000D03*
X149800000Y-77900000D03*
X149800000Y-80440000D03*
X147260000Y-77900000D03*
X147260000Y-80440000D03*
D17*
X142500000Y-88525000D03*
X145725000Y-88575000D03*
X152200000Y-88600000D03*
X149000000Y-88550000D03*
X155150000Y-88575000D03*
X158550000Y-88550000D03*
X161500000Y-88500002D03*
X164775000Y-88450000D03*
D18*
X148950001Y-81289999D02*
X148910001Y-81289999D01*
X149800000Y-80440000D02*
X148950001Y-81289999D01*
X148910001Y-81289999D02*
X147250000Y-82950000D01*
X147250000Y-82950000D02*
X147250000Y-85975000D01*
X147250000Y-85975000D02*
X145100000Y-88125000D01*
X145100000Y-88125000D02*
X142900000Y-88125000D01*
X142900000Y-88125000D02*
X142500000Y-88525000D01*
X140475000Y-77900000D02*
X139000000Y-76425000D01*
X147260000Y-77900000D02*
X140475000Y-77900000D01*
X139999999Y-78375001D02*
X140475000Y-77900000D01*
X139000000Y-82925000D02*
X139999999Y-81925001D01*
X139999999Y-81925001D02*
X139999999Y-78375001D01*
X151164999Y-79075001D02*
X151164999Y-81085001D01*
X152340000Y-77900000D02*
X151164999Y-79075001D01*
X151164999Y-81085001D02*
X148100000Y-84150000D01*
X148100000Y-84150000D02*
X148100000Y-86425000D01*
X148100000Y-86425000D02*
X145950000Y-88575000D01*
X145950000Y-88575000D02*
X145725000Y-88575000D01*
X154880000Y-77900000D02*
X153600000Y-79180000D01*
X153515001Y-79264999D02*
X153515001Y-81840001D01*
X153600000Y-79180000D02*
X153515001Y-79264999D01*
X153515001Y-81840001D02*
X153950000Y-82275000D01*
X153950000Y-82275000D02*
X153950000Y-86850000D01*
X153950000Y-86850000D02*
X152200000Y-88600000D01*
X152340000Y-81642081D02*
X153225000Y-82527081D01*
X152340000Y-80440000D02*
X152340000Y-81642081D01*
X153225000Y-82527081D02*
X153225000Y-86100000D01*
X153225000Y-86100000D02*
X150975000Y-88350000D01*
X150975000Y-88350000D02*
X150775000Y-88550000D01*
X150775000Y-88550000D02*
X149000000Y-88550000D01*
X163600000Y-77900000D02*
X164350000Y-78650000D01*
X162500000Y-77900000D02*
X163600000Y-77900000D01*
X164350000Y-81775000D02*
X166025000Y-83450000D01*
X164350000Y-78650000D02*
X164350000Y-81775000D01*
X154880000Y-80440000D02*
X154880000Y-80995000D01*
X154880000Y-80995000D02*
X154600000Y-81275000D01*
X154600000Y-81275000D02*
X154600000Y-88300000D01*
X154600000Y-88300000D02*
X154875000Y-88575000D01*
X154875000Y-88575000D02*
X155150000Y-88575000D01*
X158269999Y-81289999D02*
X158269999Y-83094999D01*
X157420000Y-80440000D02*
X158269999Y-81289999D01*
X158269999Y-83094999D02*
X159400000Y-84225000D01*
X159400000Y-84225000D02*
X159400000Y-87700000D01*
X159400000Y-87700000D02*
X158550000Y-88550000D01*
X158784999Y-79075001D02*
X158784999Y-81684999D01*
X159960000Y-77900000D02*
X158784999Y-79075001D01*
X158784999Y-81684999D02*
X160450000Y-83350000D01*
X160450000Y-83350000D02*
X160450000Y-87375000D01*
X160959999Y-87960001D02*
X161500000Y-88500002D01*
X160450000Y-87375000D02*
X160450000Y-87450002D01*
X160450000Y-87450002D02*
X160959999Y-87960001D01*
X160959999Y-81439999D02*
X160959999Y-86334999D01*
X159960000Y-80440000D02*
X160959999Y-81439999D01*
X160959999Y-86334999D02*
X162975000Y-88350000D01*
X162975000Y-88350000D02*
X164675000Y-88350000D01*
X164675000Y-88350000D02*
X164775000Y-88450000D01*
X148325000Y-76425000D02*
X143500000Y-76425000D01*
X149800000Y-77900000D02*
X148325000Y-76425000D01*
M02*
