G04 #@! TF.GenerationSoftware,KiCad,Pcbnew,(5.1.2)-2*
G04 #@! TF.CreationDate,2019-09-21T22:45:55+01:00*
G04 #@! TF.ProjectId,LEDPanelControllerHAT,4c454450-616e-4656-9c43-6f6e74726f6c,rev?*
G04 #@! TF.SameCoordinates,Original*
G04 #@! TF.FileFunction,Legend,Top*
G04 #@! TF.FilePolarity,Positive*
%FSLAX46Y46*%
G04 Gerber Fmt 4.6, Leading zero omitted, Abs format (unit mm)*
G04 Created by KiCad (PCBNEW (5.1.2)-2) date 2019-09-21 22:45:55*
%MOMM*%
%LPD*%
G04 APERTURE LIST*
%ADD10C,0.120000*%
%ADD11C,0.100000*%
%ADD12C,1.000000*%
%ADD13O,1.000000X1.000000*%
%ADD14C,2.000000*%
%ADD15C,3.000000*%
%ADD16C,1.800000*%
%ADD17R,1.700000X1.700000*%
%ADD18O,1.700000X1.700000*%
G04 APERTURE END LIST*
D10*
X144500000Y-81925000D02*
X144500000Y-77425000D01*
X140500000Y-83175000D02*
X142000000Y-83175000D01*
X138000000Y-77425000D02*
X138000000Y-81925000D01*
X142000000Y-76175000D02*
X140500000Y-76175000D01*
D11*
X176555204Y-80950000D02*
G75*
G03X176555204Y-80950000I-3005204J0D01*
G01*
D10*
X179085000Y-75989000D02*
X179085000Y-85910000D01*
X166965000Y-84275000D02*
X166965000Y-85910000D01*
X166965000Y-81775000D02*
X166965000Y-82625000D01*
X166965000Y-79275000D02*
X166965000Y-80125000D01*
X166965000Y-75989000D02*
X166965000Y-77625000D01*
X175400000Y-85910000D02*
X179085000Y-85910000D01*
X166965000Y-85910000D02*
X171625000Y-85910000D01*
X175375000Y-75989000D02*
X179085000Y-75989000D01*
X166965000Y-75989000D02*
X171625000Y-75989000D01*
X145930000Y-76570000D02*
X145930000Y-81770000D01*
X161230000Y-76570000D02*
X145930000Y-76570000D01*
X163830000Y-81770000D02*
X145930000Y-81770000D01*
X161230000Y-76570000D02*
X161230000Y-79170000D01*
X161230000Y-79170000D02*
X163830000Y-79170000D01*
X163830000Y-79170000D02*
X163830000Y-81770000D01*
X162500000Y-76570000D02*
X163830000Y-76570000D01*
X163830000Y-76570000D02*
X163830000Y-77900000D01*
%LPC*%
D12*
X164325000Y-85200000D03*
D13*
X163055000Y-85200000D03*
X161785000Y-85200000D03*
D12*
X158175000Y-85250000D03*
D13*
X156905000Y-85250000D03*
X155635000Y-85250000D03*
D12*
X151825000Y-85300000D03*
D13*
X150555000Y-85300000D03*
X149285000Y-85300000D03*
D12*
X146025000Y-85350000D03*
D13*
X144755000Y-85350000D03*
X143485000Y-85350000D03*
D14*
X143500000Y-82925000D03*
X139000000Y-82925000D03*
X143500000Y-76425000D03*
X139000000Y-76425000D03*
D15*
X173525000Y-85700000D03*
X173525000Y-76200000D03*
D16*
X166025000Y-83450000D03*
X166025000Y-80950000D03*
X166025000Y-78450000D03*
D17*
X162500000Y-77900000D03*
D18*
X162500000Y-80440000D03*
X159960000Y-77900000D03*
X159960000Y-80440000D03*
X157420000Y-77900000D03*
X157420000Y-80440000D03*
X154880000Y-77900000D03*
X154880000Y-80440000D03*
X152340000Y-77900000D03*
X152340000Y-80440000D03*
X149800000Y-77900000D03*
X149800000Y-80440000D03*
X147260000Y-77900000D03*
X147260000Y-80440000D03*
M02*
