G04 #@! TF.GenerationSoftware,KiCad,Pcbnew,(5.1.2)-2*
G04 #@! TF.CreationDate,2019-09-21T22:45:55+01:00*
G04 #@! TF.ProjectId,LEDPanelControllerHAT,4c454450-616e-4656-9c43-6f6e74726f6c,rev?*
G04 #@! TF.SameCoordinates,Original*
G04 #@! TF.FileFunction,Copper,L2,Bot*
G04 #@! TF.FilePolarity,Positive*
%FSLAX46Y46*%
G04 Gerber Fmt 4.6, Leading zero omitted, Abs format (unit mm)*
G04 Created by KiCad (PCBNEW (5.1.2)-2) date 2019-09-21 22:45:55*
%MOMM*%
%LPD*%
G04 APERTURE LIST*
%ADD10C,1.000000*%
%ADD11O,1.000000X1.000000*%
%ADD12R,0.900000X0.800000*%
%ADD13C,2.000000*%
%ADD14C,3.000000*%
%ADD15C,1.800000*%
%ADD16R,1.700000X1.700000*%
%ADD17O,1.700000X1.700000*%
%ADD18C,0.600000*%
%ADD19C,0.250000*%
G04 APERTURE END LIST*
D10*
X164325000Y-85200000D03*
D11*
X163055000Y-85200000D03*
X161785000Y-85200000D03*
D10*
X158175000Y-85250000D03*
D11*
X156905000Y-85250000D03*
X155635000Y-85250000D03*
D10*
X151825000Y-85300000D03*
D11*
X150555000Y-85300000D03*
X149285000Y-85300000D03*
D10*
X146025000Y-85350000D03*
D11*
X144755000Y-85350000D03*
X143485000Y-85350000D03*
D12*
X168675000Y-79150000D03*
X168675000Y-80950000D03*
D13*
X143500000Y-82925000D03*
X139000000Y-82925000D03*
X143500000Y-76425000D03*
X139000000Y-76425000D03*
D14*
X173525000Y-85700000D03*
X173525000Y-76200000D03*
D15*
X166025000Y-83450000D03*
X166025000Y-80950000D03*
X166025000Y-78450000D03*
D12*
X165750000Y-87550000D03*
X165750000Y-89350000D03*
X161250000Y-89400000D03*
X161250000Y-87600000D03*
X159250000Y-87600000D03*
X159250000Y-89400000D03*
X154750000Y-89400000D03*
X154750000Y-87600000D03*
X152750000Y-87600000D03*
X152750000Y-89400000D03*
X148250000Y-89400000D03*
X148250000Y-87600000D03*
X146250000Y-87600000D03*
X146250000Y-89400000D03*
X141750000Y-89400000D03*
X141750000Y-87600000D03*
D16*
X162500000Y-77900000D03*
D17*
X162500000Y-80440000D03*
X159960000Y-77900000D03*
X159960000Y-80440000D03*
X157420000Y-77900000D03*
X157420000Y-80440000D03*
X154880000Y-77900000D03*
X154880000Y-80440000D03*
X152340000Y-77900000D03*
X152340000Y-80440000D03*
X149800000Y-77900000D03*
X149800000Y-80440000D03*
X147260000Y-77900000D03*
X147260000Y-80440000D03*
D12*
X164250000Y-87550000D03*
X164250000Y-89350000D03*
X162750000Y-89375000D03*
X162750000Y-87575000D03*
X157750000Y-87600000D03*
X157750000Y-89400000D03*
X156250000Y-89400000D03*
X156250000Y-87600000D03*
X170250000Y-79125000D03*
X170250000Y-80925000D03*
X151250000Y-87600000D03*
X151250000Y-89400000D03*
X149750000Y-89400000D03*
X149750000Y-87600000D03*
X144750000Y-87600000D03*
X144750000Y-89400000D03*
X143250000Y-89400000D03*
X143250000Y-87600000D03*
D18*
X142500000Y-88525000D03*
X145725000Y-88575000D03*
X152200000Y-88600000D03*
X149000000Y-88550000D03*
X155150000Y-88575000D03*
X158550000Y-88550000D03*
X161500000Y-88500002D03*
X164775000Y-88450000D03*
D19*
X143250000Y-89400000D02*
X141750000Y-89400000D01*
X142500000Y-88650000D02*
X141750000Y-89400000D01*
X142500000Y-88525000D02*
X142500000Y-88650000D01*
X162775000Y-87550000D02*
X162750000Y-87575000D01*
X164250000Y-87550000D02*
X162775000Y-87550000D01*
X163055000Y-87270000D02*
X162750000Y-87575000D01*
X163055000Y-85200000D02*
X163055000Y-87270000D01*
X143250000Y-87600000D02*
X144750000Y-87600000D01*
X149750000Y-87600000D02*
X151250000Y-87600000D01*
X156250000Y-87600000D02*
X157750000Y-87600000D01*
X156250000Y-85905000D02*
X156905000Y-85250000D01*
X156250000Y-87600000D02*
X156250000Y-85905000D01*
X149750000Y-86105000D02*
X150555000Y-85300000D01*
X149750000Y-87600000D02*
X149750000Y-86105000D01*
X144750000Y-85355000D02*
X144755000Y-85350000D01*
X144750000Y-87600000D02*
X144750000Y-85355000D01*
X166025000Y-78450000D02*
X164300000Y-80175000D01*
X164300000Y-80175000D02*
X164300000Y-82900000D01*
X164300000Y-82900000D02*
X163900000Y-83300000D01*
X150120000Y-83300000D02*
X147260000Y-80440000D01*
X150575000Y-84572894D02*
X150575000Y-83300000D01*
X150555000Y-84592894D02*
X150575000Y-84572894D01*
X150555000Y-85300000D02*
X150555000Y-84592894D01*
X150575000Y-83300000D02*
X150120000Y-83300000D01*
X156900000Y-84537894D02*
X156900000Y-83300000D01*
X156905000Y-84542894D02*
X156900000Y-84537894D01*
X156905000Y-85250000D02*
X156905000Y-84542894D01*
X156900000Y-83300000D02*
X150575000Y-83300000D01*
X163075000Y-84472894D02*
X163075000Y-83300000D01*
X163055000Y-84492894D02*
X163075000Y-84472894D01*
X163055000Y-85200000D02*
X163055000Y-84492894D01*
X163900000Y-83300000D02*
X163075000Y-83300000D01*
X163075000Y-83300000D02*
X156900000Y-83300000D01*
X147260000Y-80440000D02*
X147260000Y-77900000D01*
X147260000Y-81642081D02*
X147260000Y-80440000D01*
X147260000Y-82137894D02*
X147260000Y-81642081D01*
X144755000Y-85350000D02*
X144755000Y-84642894D01*
X144755000Y-84642894D02*
X147260000Y-82137894D01*
X146250000Y-89400000D02*
X144750000Y-89400000D01*
X145725000Y-88875000D02*
X146250000Y-89400000D01*
X145725000Y-88575000D02*
X145725000Y-88875000D01*
X149750000Y-89400000D02*
X148250000Y-89400000D01*
X152750000Y-89400000D02*
X151250000Y-89400000D01*
X152200000Y-88850000D02*
X152750000Y-89400000D01*
X152200000Y-88600000D02*
X152200000Y-88850000D01*
X149000000Y-88650000D02*
X148250000Y-89400000D01*
X149000000Y-88550000D02*
X149000000Y-88650000D01*
X168700000Y-79125000D02*
X168675000Y-79150000D01*
X170250000Y-79125000D02*
X168700000Y-79125000D01*
X168675000Y-78500000D02*
X165550000Y-75375000D01*
X168675000Y-79150000D02*
X168675000Y-78500000D01*
X159945000Y-75375000D02*
X157420000Y-77900000D01*
X165550000Y-75375000D02*
X159945000Y-75375000D01*
X170250000Y-82375000D02*
X170250000Y-80925000D01*
X166025000Y-83450000D02*
X169175000Y-83450000D01*
X169175000Y-83450000D02*
X170250000Y-82375000D01*
X156250000Y-89400000D02*
X154750000Y-89400000D01*
X155150000Y-89000000D02*
X154750000Y-89400000D01*
X155150000Y-88575000D02*
X155150000Y-89000000D01*
X159250000Y-89400000D02*
X157750000Y-89400000D01*
X158550000Y-88700000D02*
X159250000Y-89400000D01*
X158550000Y-88550000D02*
X158550000Y-88700000D01*
X161275000Y-89375000D02*
X161250000Y-89400000D01*
X162750000Y-89375000D02*
X161275000Y-89375000D01*
X161500000Y-89150000D02*
X161250000Y-89400000D01*
X161500000Y-88500002D02*
X161500000Y-89150000D01*
X165750000Y-89350000D02*
X164250000Y-89350000D01*
X164775000Y-88825000D02*
X164250000Y-89350000D01*
X164775000Y-88450000D02*
X164775000Y-88825000D01*
X146250000Y-85575000D02*
X146025000Y-85350000D01*
X146250000Y-87600000D02*
X146250000Y-85575000D01*
X143485000Y-85915000D02*
X143485000Y-85350000D01*
X141750000Y-87600000D02*
X141800000Y-87600000D01*
X141800000Y-87600000D02*
X143485000Y-85915000D01*
X152750000Y-86225000D02*
X151825000Y-85300000D01*
X152750000Y-87600000D02*
X152750000Y-86225000D01*
X148250000Y-86335000D02*
X149285000Y-85300000D01*
X148250000Y-87600000D02*
X148250000Y-86335000D01*
X143500000Y-77839213D02*
X143500000Y-82925000D01*
X143500000Y-76425000D02*
X143500000Y-77839213D01*
X159250000Y-86325000D02*
X158175000Y-85250000D01*
X159250000Y-87600000D02*
X159250000Y-86325000D01*
X154750000Y-86135000D02*
X155635000Y-85250000D01*
X154750000Y-87600000D02*
X154750000Y-86135000D01*
X165750000Y-86625000D02*
X165750000Y-87550000D01*
X164325000Y-85200000D02*
X165750000Y-86625000D01*
X161250000Y-85735000D02*
X161785000Y-85200000D01*
X161250000Y-87600000D02*
X161250000Y-85735000D01*
X166025000Y-80950000D02*
X168675000Y-80950000D01*
M02*
