G04 #@! TF.GenerationSoftware,KiCad,Pcbnew,(5.1.2)-2*
G04 #@! TF.CreationDate,2019-09-21T22:45:55+01:00*
G04 #@! TF.ProjectId,LEDPanelControllerHAT,4c454450-616e-4656-9c43-6f6e74726f6c,rev?*
G04 #@! TF.SameCoordinates,Original*
G04 #@! TF.FileFunction,Soldermask,Bot*
G04 #@! TF.FilePolarity,Negative*
%FSLAX46Y46*%
G04 Gerber Fmt 4.6, Leading zero omitted, Abs format (unit mm)*
G04 Created by KiCad (PCBNEW (5.1.2)-2) date 2019-09-21 22:45:55*
%MOMM*%
%LPD*%
G04 APERTURE LIST*
%ADD10C,1.000000*%
%ADD11O,1.000000X1.000000*%
%ADD12R,0.900000X0.800000*%
%ADD13C,2.000000*%
%ADD14C,3.000000*%
%ADD15C,1.800000*%
%ADD16R,1.700000X1.700000*%
%ADD17O,1.700000X1.700000*%
G04 APERTURE END LIST*
D10*
X164325000Y-85200000D03*
D11*
X163055000Y-85200000D03*
X161785000Y-85200000D03*
D10*
X158175000Y-85250000D03*
D11*
X156905000Y-85250000D03*
X155635000Y-85250000D03*
D10*
X151825000Y-85300000D03*
D11*
X150555000Y-85300000D03*
X149285000Y-85300000D03*
D10*
X146025000Y-85350000D03*
D11*
X144755000Y-85350000D03*
X143485000Y-85350000D03*
D12*
X168675000Y-79150000D03*
X168675000Y-80950000D03*
D13*
X143500000Y-82925000D03*
X139000000Y-82925000D03*
X143500000Y-76425000D03*
X139000000Y-76425000D03*
D14*
X173525000Y-85700000D03*
X173525000Y-76200000D03*
D15*
X166025000Y-83450000D03*
X166025000Y-80950000D03*
X166025000Y-78450000D03*
D12*
X165750000Y-87550000D03*
X165750000Y-89350000D03*
X161250000Y-89400000D03*
X161250000Y-87600000D03*
X159250000Y-87600000D03*
X159250000Y-89400000D03*
X154750000Y-89400000D03*
X154750000Y-87600000D03*
X152750000Y-87600000D03*
X152750000Y-89400000D03*
X148250000Y-89400000D03*
X148250000Y-87600000D03*
X146250000Y-87600000D03*
X146250000Y-89400000D03*
X141750000Y-89400000D03*
X141750000Y-87600000D03*
D16*
X162500000Y-77900000D03*
D17*
X162500000Y-80440000D03*
X159960000Y-77900000D03*
X159960000Y-80440000D03*
X157420000Y-77900000D03*
X157420000Y-80440000D03*
X154880000Y-77900000D03*
X154880000Y-80440000D03*
X152340000Y-77900000D03*
X152340000Y-80440000D03*
X149800000Y-77900000D03*
X149800000Y-80440000D03*
X147260000Y-77900000D03*
X147260000Y-80440000D03*
D12*
X164250000Y-87550000D03*
X164250000Y-89350000D03*
X162750000Y-89375000D03*
X162750000Y-87575000D03*
X157750000Y-87600000D03*
X157750000Y-89400000D03*
X156250000Y-89400000D03*
X156250000Y-87600000D03*
X170250000Y-79125000D03*
X170250000Y-80925000D03*
X151250000Y-87600000D03*
X151250000Y-89400000D03*
X149750000Y-89400000D03*
X149750000Y-87600000D03*
X144750000Y-87600000D03*
X144750000Y-89400000D03*
X143250000Y-89400000D03*
X143250000Y-87600000D03*
M02*
