G04 #@! TF.GenerationSoftware,KiCad,Pcbnew,(5.1.2)-2*
G04 #@! TF.CreationDate,2019-09-12T15:30:06+01:00*
G04 #@! TF.ProjectId,DCStepDown,44435374-6570-4446-9f77-6e2e6b696361,rev?*
G04 #@! TF.SameCoordinates,Original*
G04 #@! TF.FileFunction,Copper,L2,Bot*
G04 #@! TF.FilePolarity,Positive*
%FSLAX46Y46*%
G04 Gerber Fmt 4.6, Leading zero omitted, Abs format (unit mm)*
G04 Created by KiCad (PCBNEW (5.1.2)-2) date 2019-09-12 15:30:06*
%MOMM*%
%LPD*%
G04 APERTURE LIST*
%ADD10O,3.000000X2.350000*%
%ADD11R,1.600000X1.600000*%
%ADD12C,1.600000*%
%ADD13C,0.100000*%
%ADD14C,1.700000*%
%ADD15O,1.700000X1.700000*%
%ADD16R,1.700000X1.200000*%
%ADD17O,1.700000X1.200000*%
%ADD18O,1.500000X0.900000*%
%ADD19R,1.500000X0.900000*%
%ADD20C,0.600000*%
%ADD21C,0.200000*%
%ADD22C,0.700000*%
%ADD23C,0.500000*%
%ADD24C,1.500000*%
G04 APERTURE END LIST*
D10*
X162200000Y-128550000D03*
X162200000Y-124590000D03*
D11*
X152550000Y-114375000D03*
D12*
X152550000Y-117875000D03*
X162350000Y-115025000D03*
D13*
G36*
X162350000Y-113893629D02*
G01*
X163481371Y-115025000D01*
X162350000Y-116156371D01*
X161218629Y-115025000D01*
X162350000Y-113893629D01*
X162350000Y-113893629D01*
G37*
D12*
X159875126Y-117499874D03*
D14*
X140000000Y-105150000D03*
D15*
X140000000Y-102610000D03*
X142540000Y-105150000D03*
X142540000Y-102610000D03*
X145080000Y-105150000D03*
X145080000Y-102610000D03*
X147620000Y-105150000D03*
X147620000Y-102610000D03*
D16*
X163675000Y-104975000D03*
D17*
X163675000Y-102975000D03*
X163675000Y-100975000D03*
X163675000Y-98975000D03*
X163675000Y-96975000D03*
X163675000Y-94975000D03*
X163675000Y-92975000D03*
D18*
X141075000Y-126755000D03*
X141075000Y-125485000D03*
D19*
X141075000Y-128025000D03*
D11*
X145150000Y-93850000D03*
D12*
X145150000Y-97350000D03*
D14*
X140000000Y-120500000D03*
D15*
X140000000Y-117960000D03*
X142540000Y-120500000D03*
X142540000Y-117960000D03*
X145080000Y-120500000D03*
X145080000Y-117960000D03*
X147620000Y-120500000D03*
X147620000Y-117960000D03*
D14*
X140000000Y-90000000D03*
D15*
X140000000Y-87460000D03*
X142540000Y-90000000D03*
X142540000Y-87460000D03*
X145080000Y-90000000D03*
X145080000Y-87460000D03*
X147620000Y-90000000D03*
X147620000Y-87460000D03*
D20*
X124475000Y-120700000D03*
X119500000Y-99700000D03*
X133030000Y-115360000D03*
X132080000Y-115360000D03*
X130180000Y-115360000D03*
X133030000Y-116310000D03*
X132080000Y-116310000D03*
X131080000Y-116310000D03*
X126790000Y-91980000D03*
X126790000Y-90980000D03*
X126790000Y-89980000D03*
X126790000Y-88980000D03*
X125790000Y-88980000D03*
X125790000Y-89980000D03*
X125790000Y-90980000D03*
X125790000Y-91980000D03*
X125790000Y-92980000D03*
X126790000Y-92980000D03*
X143000000Y-98000000D03*
X141000000Y-98000000D03*
X141000000Y-100000000D03*
X139000000Y-100000000D03*
X127980000Y-112710000D03*
X126980000Y-112710000D03*
X125980000Y-112710000D03*
X125980000Y-111710000D03*
X124980000Y-111710000D03*
X124980000Y-112710000D03*
X124980000Y-113710000D03*
X123980000Y-113710000D03*
X123980000Y-112710000D03*
X125900000Y-109710000D03*
X125980000Y-108710000D03*
X124980000Y-108710000D03*
X124980000Y-107710000D03*
X125980000Y-107710000D03*
X126980000Y-113710000D03*
X127980000Y-113710000D03*
X125980000Y-113710000D03*
X127980000Y-111710000D03*
X131135000Y-115355000D03*
X125790000Y-87980000D03*
X125790000Y-86980000D03*
X126790000Y-86980000D03*
X126790000Y-87980000D03*
X137000000Y-100000000D03*
X137000000Y-98000000D03*
X141000000Y-96000000D03*
X143000000Y-96000000D03*
X131730000Y-121490000D03*
X126800000Y-86000000D03*
X125800000Y-86000000D03*
X126800000Y-94000000D03*
X125800000Y-94000000D03*
X125800000Y-95000000D03*
X126800000Y-95000000D03*
X127800000Y-94000000D03*
X127800000Y-95000000D03*
X136000000Y-102000000D03*
X134000000Y-100000000D03*
X134000000Y-102000000D03*
X132000000Y-102000000D03*
X132000000Y-100000000D03*
X130000000Y-102000000D03*
X130000000Y-100000000D03*
X128000000Y-102000000D03*
X128000000Y-100000000D03*
X136000000Y-104000000D03*
X134000000Y-104000000D03*
X132000000Y-104000000D03*
X130000000Y-104000000D03*
X128000000Y-104000000D03*
X124000000Y-111700000D03*
X126000000Y-106700000D03*
X125000000Y-106700000D03*
X125000000Y-105700000D03*
X126000000Y-105700000D03*
X124600000Y-116450000D03*
X130180000Y-116310000D03*
X125500000Y-121300000D03*
X127000000Y-114600000D03*
X126000000Y-114600000D03*
X125000000Y-114600000D03*
X124000000Y-114600000D03*
X127000000Y-110700000D03*
X123000000Y-114600000D03*
X123000000Y-113700000D03*
X123000000Y-112700000D03*
X123000000Y-111700000D03*
X123000000Y-110700000D03*
X139000000Y-96000000D03*
X124000000Y-110700000D03*
X125000000Y-110700000D03*
X125000000Y-109700000D03*
X124000000Y-109700000D03*
X90000000Y-90000000D03*
X90000000Y-85000000D03*
X90000000Y-80000000D03*
X105000000Y-80000000D03*
X100000000Y-80000000D03*
X95000000Y-80000000D03*
X95000000Y-85000000D03*
X100000000Y-85000000D03*
X105000000Y-85000000D03*
X105000000Y-90000000D03*
X100000000Y-90000000D03*
X95000000Y-90000000D03*
X90000000Y-95000000D03*
X95000000Y-95000000D03*
X100000000Y-95000000D03*
X105000000Y-95000000D03*
X105000000Y-100000000D03*
X100000000Y-100000000D03*
X95000000Y-100000000D03*
X90000000Y-100000000D03*
X90000000Y-105000000D03*
X95000000Y-105000000D03*
X100000000Y-105000000D03*
X105000000Y-105000000D03*
X105000000Y-110000000D03*
X100000000Y-110000000D03*
X95000000Y-110000000D03*
X90000000Y-110000000D03*
X90000000Y-115000000D03*
X95000000Y-115000000D03*
X100000000Y-115000000D03*
X105000000Y-115000000D03*
X105000000Y-120000000D03*
X100000000Y-120000000D03*
X95000000Y-120000000D03*
X90000000Y-120000000D03*
X90000000Y-125000000D03*
X95000000Y-125000000D03*
X100000000Y-125000000D03*
X105000000Y-125000000D03*
X85000000Y-90000000D03*
X85000000Y-95000000D03*
X85000000Y-100000000D03*
X85000000Y-105000000D03*
X85000000Y-110000000D03*
X80000000Y-110000000D03*
X80000000Y-105000000D03*
X80000000Y-100000000D03*
X80000000Y-95000000D03*
X80000000Y-90000000D03*
X75000000Y-90000000D03*
X75000000Y-95000000D03*
X75000000Y-100000000D03*
X75000000Y-105000000D03*
X75000000Y-110000000D03*
X117000000Y-103000000D03*
X117000000Y-105000000D03*
X117000000Y-107000000D03*
X117000000Y-109000000D03*
X117000000Y-111000000D03*
X117000000Y-113000000D03*
X117000000Y-115000000D03*
X117000000Y-117000000D03*
X117000000Y-119000000D03*
X117000000Y-121000000D03*
X119000000Y-123000000D03*
X117000000Y-123000000D03*
X115000000Y-121000000D03*
X115000000Y-123000000D03*
X115000000Y-111000000D03*
X115000000Y-109000000D03*
X115000000Y-107000000D03*
X115000000Y-105000000D03*
X115000000Y-103000000D03*
X115000000Y-101000000D03*
X113000000Y-101000000D03*
X113000000Y-103000000D03*
X113000000Y-105000000D03*
X117000000Y-101000000D03*
X113000000Y-107000000D03*
X115000000Y-113000000D03*
X113000000Y-123000000D03*
X143000000Y-100000000D03*
X113000000Y-109000000D03*
X113000000Y-111000000D03*
X113000000Y-113000000D03*
X115000000Y-115000000D03*
X115000000Y-117000000D03*
X115000000Y-119000000D03*
X113000000Y-121000000D03*
X113000000Y-119000000D03*
X113000000Y-115000000D03*
X113000000Y-117000000D03*
X85000000Y-115000000D03*
X85000000Y-120000000D03*
X80000000Y-115000000D03*
X80000000Y-120000000D03*
X75000000Y-115000000D03*
X75000000Y-120000000D03*
X158375000Y-104925000D03*
X153350000Y-106225000D03*
X159725000Y-102125000D03*
X159949998Y-93050000D03*
X160000000Y-94900000D03*
X160000000Y-96875000D03*
X159924998Y-99000000D03*
X124125000Y-122750000D03*
X118350000Y-100525000D03*
X160000000Y-100975000D03*
X156425000Y-100675000D03*
X154575000Y-103000000D03*
X151775000Y-102975000D03*
D21*
X120200000Y-120700000D02*
X120000000Y-120500000D01*
X124475000Y-120700000D02*
X120200000Y-120700000D01*
X119500000Y-100575000D02*
X119500000Y-99700000D01*
X119500000Y-100575000D02*
X119500000Y-100975000D01*
X119500000Y-100975000D02*
X118725000Y-101750000D01*
X118725000Y-119225000D02*
X119600000Y-120100000D01*
X118725000Y-101750000D02*
X118725000Y-119225000D01*
X119600000Y-120100000D02*
X120000000Y-120500000D01*
X131730000Y-116960000D02*
X131080000Y-116310000D01*
X131730000Y-121490000D02*
X131730000Y-116960000D01*
D22*
X140000000Y-117960000D02*
X140000000Y-120500000D01*
X142540000Y-117960000D02*
X142540000Y-120500000D01*
X145080000Y-117960000D02*
X145080000Y-120500000D01*
X147620000Y-117960000D02*
X147620000Y-120500000D01*
X147620000Y-120500000D02*
X145080000Y-120500000D01*
X145080000Y-120500000D02*
X142540000Y-120500000D01*
X147620000Y-117960000D02*
X145080000Y-117960000D01*
X145080000Y-117960000D02*
X142540000Y-117960000D01*
X142540000Y-117960000D02*
X140000000Y-117960000D01*
X140000000Y-120500000D02*
X142540000Y-120500000D01*
D21*
X130040000Y-116450000D02*
X130180000Y-116310000D01*
X124600000Y-116450000D02*
X130040000Y-116450000D01*
X130180000Y-116620000D02*
X130180000Y-116310000D01*
X125500000Y-121300000D02*
X130180000Y-116620000D01*
X158375000Y-104925000D02*
X157950736Y-104925000D01*
D23*
X148469999Y-117110001D02*
X148469999Y-112480001D01*
X147620000Y-117960000D02*
X148469999Y-117110001D01*
X148469999Y-112480001D02*
X153350000Y-107600000D01*
X153350000Y-107600000D02*
X153350000Y-106225000D01*
D21*
X155074264Y-104925000D02*
X155125000Y-104925000D01*
X153774264Y-106225000D02*
X155074264Y-104925000D01*
X153350000Y-106225000D02*
X153774264Y-106225000D01*
X157950736Y-104925000D02*
X155125000Y-104925000D01*
X158375000Y-104925000D02*
X158375000Y-103475000D01*
X158375000Y-103475000D02*
X159725000Y-102125000D01*
X160149264Y-102125000D02*
X160775000Y-101499264D01*
X159725000Y-102125000D02*
X160149264Y-102125000D01*
X160775000Y-93875002D02*
X159949998Y-93050000D01*
X160499264Y-94975000D02*
X160775000Y-94975000D01*
X160424264Y-94900000D02*
X160499264Y-94975000D01*
X160000000Y-94900000D02*
X160424264Y-94900000D01*
X160775000Y-94975000D02*
X160775000Y-93875002D01*
X160499264Y-96800000D02*
X160775000Y-96800000D01*
X160424264Y-96875000D02*
X160499264Y-96800000D01*
X160000000Y-96875000D02*
X160424264Y-96875000D01*
X160775000Y-96800000D02*
X160775000Y-94975000D01*
X160374262Y-99025000D02*
X160775000Y-99025000D01*
X160349262Y-99000000D02*
X160374262Y-99025000D01*
X159924998Y-99000000D02*
X160349262Y-99000000D01*
X160775000Y-101499264D02*
X160775000Y-99025000D01*
X160775000Y-99025000D02*
X160775000Y-96800000D01*
D24*
X159075127Y-118299873D02*
X157275127Y-118299873D01*
X159875126Y-117499874D02*
X159075127Y-118299873D01*
X155075000Y-120500000D02*
X147620000Y-120500000D01*
X157275127Y-118299873D02*
X155075000Y-120500000D01*
X147780000Y-117800000D02*
X147620000Y-117960000D01*
X152475000Y-117800000D02*
X147780000Y-117800000D01*
X162200000Y-128550000D02*
X162200000Y-128450000D01*
X162200000Y-128450000D02*
X160725000Y-126975000D01*
X154095000Y-126975000D02*
X147620000Y-120500000D01*
X157625000Y-126975000D02*
X157475000Y-126975000D01*
X159200000Y-128550000D02*
X157625000Y-126975000D01*
X162200000Y-128550000D02*
X159200000Y-128550000D01*
X160725000Y-126975000D02*
X157475000Y-126975000D01*
X157475000Y-126975000D02*
X154095000Y-126975000D01*
X162200000Y-128550000D02*
X162200000Y-128750000D01*
X162200000Y-128750000D02*
X161000000Y-129950000D01*
X160600000Y-129950000D02*
X159200000Y-128550000D01*
X161000000Y-129950000D02*
X160600000Y-129950000D01*
X162200000Y-124590000D02*
X162200000Y-121915000D01*
X164400000Y-117075000D02*
X162350000Y-115025000D01*
X164400000Y-119715000D02*
X164400000Y-117075000D01*
X161713605Y-114388605D02*
X156838605Y-114388605D01*
X162350000Y-115025000D02*
X161713605Y-114388605D01*
X156750000Y-114300000D02*
X152475000Y-114300000D01*
X156838605Y-114388605D02*
X156750000Y-114300000D01*
X162200000Y-124590000D02*
X162360000Y-124590000D01*
X162200000Y-124590000D02*
X162560000Y-124590000D01*
X163682500Y-123467500D02*
X163682500Y-120432500D01*
X162560000Y-124590000D02*
X163682500Y-123467500D01*
X162200000Y-121915000D02*
X163682500Y-120432500D01*
X163682500Y-120432500D02*
X164400000Y-119715000D01*
D22*
X162200000Y-124590000D02*
X162200000Y-124575000D01*
X162200000Y-124575000D02*
X161125000Y-123500000D01*
X162200000Y-122425000D02*
X162200000Y-121915000D01*
X161125000Y-123500000D02*
X162200000Y-122425000D01*
D21*
X120050000Y-122750000D02*
X124125000Y-122750000D01*
X118350000Y-100525000D02*
X118050001Y-100824999D01*
X118050001Y-120750001D02*
X118150000Y-120850000D01*
X118050001Y-118675001D02*
X118050001Y-120750001D01*
X118150000Y-120850000D02*
X120050000Y-122750000D01*
X118050001Y-118675001D02*
X118050001Y-118800001D01*
X118050001Y-100824999D02*
X118050001Y-118675001D01*
X160000000Y-100975000D02*
X159700000Y-100675000D01*
X159700000Y-100675000D02*
X156425000Y-100675000D01*
X154575000Y-103000000D02*
X151800000Y-103000000D01*
X151800000Y-103000000D02*
X151775000Y-102975000D01*
G36*
X164656081Y-111542757D02*
G01*
X165685092Y-112356395D01*
X166075000Y-114110979D01*
X166075000Y-122332701D01*
X163936139Y-124408655D01*
X163962845Y-124261021D01*
X163925991Y-124117930D01*
X163806975Y-123853681D01*
X163638693Y-123617728D01*
X163427613Y-123419139D01*
X163181846Y-123265546D01*
X162910837Y-123162851D01*
X162625000Y-123115000D01*
X162300000Y-123115000D01*
X162300000Y-124490000D01*
X162320000Y-124490000D01*
X162320000Y-124564127D01*
X162080000Y-124530127D01*
X162080000Y-124490000D01*
X162100000Y-124490000D01*
X162100000Y-123115000D01*
X161775000Y-123115000D01*
X161489163Y-123162851D01*
X161218154Y-123265546D01*
X160972387Y-123419139D01*
X160775084Y-123604766D01*
X161124815Y-117856072D01*
X161124082Y-117836483D01*
X161121787Y-117824854D01*
X160856787Y-116804854D01*
X160850021Y-116786455D01*
X160839797Y-116769730D01*
X160826505Y-116755320D01*
X160808975Y-116742814D01*
X159998975Y-116287814D01*
X159981025Y-116279934D01*
X159961882Y-116275708D01*
X159950794Y-116275003D01*
X153679483Y-116225231D01*
X153043470Y-115820495D01*
X161695926Y-115820495D01*
X161695926Y-115926561D01*
X162136841Y-116369530D01*
X162182522Y-116407019D01*
X162234640Y-116434876D01*
X162291190Y-116452031D01*
X162350000Y-116457823D01*
X162408810Y-116452031D01*
X162465360Y-116434876D01*
X162517478Y-116407019D01*
X162563159Y-116369530D01*
X163004074Y-115926561D01*
X163004074Y-115820495D01*
X162350000Y-115166421D01*
X161695926Y-115820495D01*
X153043470Y-115820495D01*
X152332158Y-115367842D01*
X152375000Y-115325000D01*
X152375000Y-114400000D01*
X152575000Y-114400000D01*
X152575000Y-115325000D01*
X152650000Y-115400000D01*
X153275000Y-115401452D01*
X153333810Y-115395660D01*
X153390361Y-115378505D01*
X153442478Y-115350648D01*
X153488159Y-115313159D01*
X153525648Y-115267478D01*
X153553505Y-115215361D01*
X153570660Y-115158810D01*
X153576452Y-115100000D01*
X153576278Y-115025000D01*
X160917177Y-115025000D01*
X160922969Y-115083810D01*
X160940124Y-115140360D01*
X160967981Y-115192478D01*
X161005470Y-115238159D01*
X161448439Y-115679074D01*
X161554505Y-115679074D01*
X162208579Y-115025000D01*
X162491421Y-115025000D01*
X163145495Y-115679074D01*
X163251561Y-115679074D01*
X163694530Y-115238159D01*
X163732019Y-115192478D01*
X163759876Y-115140360D01*
X163777031Y-115083810D01*
X163782823Y-115025000D01*
X163777031Y-114966190D01*
X163759876Y-114909640D01*
X163732019Y-114857522D01*
X163694530Y-114811841D01*
X163251561Y-114370926D01*
X163145495Y-114370926D01*
X162491421Y-115025000D01*
X162208579Y-115025000D01*
X161554505Y-114370926D01*
X161448439Y-114370926D01*
X161005470Y-114811841D01*
X160967981Y-114857522D01*
X160940124Y-114909640D01*
X160922969Y-114966190D01*
X160917177Y-115025000D01*
X153576278Y-115025000D01*
X153575000Y-114475000D01*
X153500000Y-114400000D01*
X152575000Y-114400000D01*
X152375000Y-114400000D01*
X152355000Y-114400000D01*
X152355000Y-114200000D01*
X152375000Y-114200000D01*
X152375000Y-113275000D01*
X152575000Y-113275000D01*
X152575000Y-114200000D01*
X153500000Y-114200000D01*
X153575000Y-114125000D01*
X153575003Y-114123439D01*
X161695926Y-114123439D01*
X161695926Y-114229505D01*
X162350000Y-114883579D01*
X163004074Y-114229505D01*
X163004074Y-114123439D01*
X162563159Y-113680470D01*
X162517478Y-113642981D01*
X162465360Y-113615124D01*
X162408810Y-113597969D01*
X162350000Y-113592177D01*
X162291190Y-113597969D01*
X162234640Y-113615124D01*
X162182522Y-113642981D01*
X162136841Y-113680470D01*
X161695926Y-114123439D01*
X153575003Y-114123439D01*
X153576452Y-113500000D01*
X153570660Y-113441190D01*
X153553505Y-113384639D01*
X153525648Y-113332522D01*
X153488159Y-113286841D01*
X153442478Y-113249352D01*
X153390361Y-113221495D01*
X153333810Y-113204340D01*
X153275000Y-113198548D01*
X152650000Y-113200000D01*
X152575000Y-113275000D01*
X152375000Y-113275000D01*
X152300000Y-113200000D01*
X152119820Y-113199581D01*
X153968475Y-111224882D01*
X163089326Y-111200030D01*
X164656081Y-111542757D01*
X164656081Y-111542757D01*
G37*
X164656081Y-111542757D02*
X165685092Y-112356395D01*
X166075000Y-114110979D01*
X166075000Y-122332701D01*
X163936139Y-124408655D01*
X163962845Y-124261021D01*
X163925991Y-124117930D01*
X163806975Y-123853681D01*
X163638693Y-123617728D01*
X163427613Y-123419139D01*
X163181846Y-123265546D01*
X162910837Y-123162851D01*
X162625000Y-123115000D01*
X162300000Y-123115000D01*
X162300000Y-124490000D01*
X162320000Y-124490000D01*
X162320000Y-124564127D01*
X162080000Y-124530127D01*
X162080000Y-124490000D01*
X162100000Y-124490000D01*
X162100000Y-123115000D01*
X161775000Y-123115000D01*
X161489163Y-123162851D01*
X161218154Y-123265546D01*
X160972387Y-123419139D01*
X160775084Y-123604766D01*
X161124815Y-117856072D01*
X161124082Y-117836483D01*
X161121787Y-117824854D01*
X160856787Y-116804854D01*
X160850021Y-116786455D01*
X160839797Y-116769730D01*
X160826505Y-116755320D01*
X160808975Y-116742814D01*
X159998975Y-116287814D01*
X159981025Y-116279934D01*
X159961882Y-116275708D01*
X159950794Y-116275003D01*
X153679483Y-116225231D01*
X153043470Y-115820495D01*
X161695926Y-115820495D01*
X161695926Y-115926561D01*
X162136841Y-116369530D01*
X162182522Y-116407019D01*
X162234640Y-116434876D01*
X162291190Y-116452031D01*
X162350000Y-116457823D01*
X162408810Y-116452031D01*
X162465360Y-116434876D01*
X162517478Y-116407019D01*
X162563159Y-116369530D01*
X163004074Y-115926561D01*
X163004074Y-115820495D01*
X162350000Y-115166421D01*
X161695926Y-115820495D01*
X153043470Y-115820495D01*
X152332158Y-115367842D01*
X152375000Y-115325000D01*
X152375000Y-114400000D01*
X152575000Y-114400000D01*
X152575000Y-115325000D01*
X152650000Y-115400000D01*
X153275000Y-115401452D01*
X153333810Y-115395660D01*
X153390361Y-115378505D01*
X153442478Y-115350648D01*
X153488159Y-115313159D01*
X153525648Y-115267478D01*
X153553505Y-115215361D01*
X153570660Y-115158810D01*
X153576452Y-115100000D01*
X153576278Y-115025000D01*
X160917177Y-115025000D01*
X160922969Y-115083810D01*
X160940124Y-115140360D01*
X160967981Y-115192478D01*
X161005470Y-115238159D01*
X161448439Y-115679074D01*
X161554505Y-115679074D01*
X162208579Y-115025000D01*
X162491421Y-115025000D01*
X163145495Y-115679074D01*
X163251561Y-115679074D01*
X163694530Y-115238159D01*
X163732019Y-115192478D01*
X163759876Y-115140360D01*
X163777031Y-115083810D01*
X163782823Y-115025000D01*
X163777031Y-114966190D01*
X163759876Y-114909640D01*
X163732019Y-114857522D01*
X163694530Y-114811841D01*
X163251561Y-114370926D01*
X163145495Y-114370926D01*
X162491421Y-115025000D01*
X162208579Y-115025000D01*
X161554505Y-114370926D01*
X161448439Y-114370926D01*
X161005470Y-114811841D01*
X160967981Y-114857522D01*
X160940124Y-114909640D01*
X160922969Y-114966190D01*
X160917177Y-115025000D01*
X153576278Y-115025000D01*
X153575000Y-114475000D01*
X153500000Y-114400000D01*
X152575000Y-114400000D01*
X152375000Y-114400000D01*
X152355000Y-114400000D01*
X152355000Y-114200000D01*
X152375000Y-114200000D01*
X152375000Y-113275000D01*
X152575000Y-113275000D01*
X152575000Y-114200000D01*
X153500000Y-114200000D01*
X153575000Y-114125000D01*
X153575003Y-114123439D01*
X161695926Y-114123439D01*
X161695926Y-114229505D01*
X162350000Y-114883579D01*
X163004074Y-114229505D01*
X163004074Y-114123439D01*
X162563159Y-113680470D01*
X162517478Y-113642981D01*
X162465360Y-113615124D01*
X162408810Y-113597969D01*
X162350000Y-113592177D01*
X162291190Y-113597969D01*
X162234640Y-113615124D01*
X162182522Y-113642981D01*
X162136841Y-113680470D01*
X161695926Y-114123439D01*
X153575003Y-114123439D01*
X153576452Y-113500000D01*
X153570660Y-113441190D01*
X153553505Y-113384639D01*
X153525648Y-113332522D01*
X153488159Y-113286841D01*
X153442478Y-113249352D01*
X153390361Y-113221495D01*
X153333810Y-113204340D01*
X153275000Y-113198548D01*
X152650000Y-113200000D01*
X152575000Y-113275000D01*
X152375000Y-113275000D01*
X152300000Y-113200000D01*
X152119820Y-113199581D01*
X153968475Y-111224882D01*
X163089326Y-111200030D01*
X164656081Y-111542757D01*
G36*
X148625000Y-121575000D02*
G01*
X138975000Y-121575000D01*
X138975000Y-116950000D01*
X148625000Y-116950000D01*
X148625000Y-121575000D01*
X148625000Y-121575000D01*
G37*
X148625000Y-121575000D02*
X138975000Y-121575000D01*
X138975000Y-116950000D01*
X148625000Y-116950000D01*
X148625000Y-121575000D01*
G36*
X165680805Y-54709384D02*
G01*
X165806629Y-54747373D01*
X165922675Y-54809076D01*
X166024532Y-54892148D01*
X166108310Y-54993418D01*
X166170819Y-55109027D01*
X166209686Y-55234586D01*
X166225001Y-55380295D01*
X166225000Y-78184039D01*
X166225000Y-85725000D01*
X147900000Y-85725000D01*
X147881938Y-85726645D01*
X147863097Y-85732058D01*
X147845674Y-85741044D01*
X147830339Y-85753255D01*
X147817680Y-85768224D01*
X147808186Y-85785375D01*
X147802220Y-85804048D01*
X147800011Y-85823527D01*
X147792675Y-86321443D01*
X147676492Y-86310000D01*
X147563508Y-86310000D01*
X147394561Y-86326640D01*
X147177785Y-86392398D01*
X146978003Y-86499184D01*
X146802893Y-86642893D01*
X146659184Y-86818003D01*
X146552398Y-87017785D01*
X146486640Y-87234561D01*
X146464436Y-87460000D01*
X146486640Y-87685439D01*
X146552398Y-87902215D01*
X146659184Y-88101997D01*
X146802893Y-88277107D01*
X146978003Y-88420816D01*
X147177785Y-88527602D01*
X147394561Y-88593360D01*
X147563508Y-88610000D01*
X147676492Y-88610000D01*
X147759078Y-88601866D01*
X147755308Y-88857763D01*
X147676492Y-88850000D01*
X147563508Y-88850000D01*
X147394561Y-88866640D01*
X147177785Y-88932398D01*
X146978003Y-89039184D01*
X146802893Y-89182893D01*
X146659184Y-89358003D01*
X146552398Y-89557785D01*
X146486640Y-89774561D01*
X146464436Y-90000000D01*
X146486640Y-90225439D01*
X146552398Y-90442215D01*
X146659184Y-90641997D01*
X146802893Y-90817107D01*
X146978003Y-90960816D01*
X147177785Y-91067602D01*
X147394561Y-91133360D01*
X147563508Y-91150000D01*
X147676492Y-91150000D01*
X147721602Y-91145557D01*
X147600638Y-99355948D01*
X146910583Y-100000000D01*
X143850000Y-100000000D01*
X143830491Y-100001921D01*
X143811732Y-100007612D01*
X143794443Y-100016853D01*
X143779289Y-100029289D01*
X143058578Y-100750000D01*
X140150000Y-100750000D01*
X140132417Y-100751558D01*
X140113550Y-100756880D01*
X140096084Y-100765780D01*
X140080689Y-100777917D01*
X138780689Y-102027917D01*
X138766853Y-102044443D01*
X138757612Y-102061732D01*
X138751921Y-102080491D01*
X138750000Y-102100000D01*
X138750000Y-105800000D01*
X138752986Y-105824254D01*
X138759581Y-105842714D01*
X138769652Y-105859533D01*
X138782810Y-105874064D01*
X138798550Y-105885749D01*
X141673550Y-107610749D01*
X141688415Y-107618067D01*
X145294804Y-109035751D01*
X151373549Y-114921520D01*
X151373549Y-115100000D01*
X151379341Y-115158810D01*
X151396496Y-115215360D01*
X151424353Y-115267477D01*
X151461842Y-115313158D01*
X151507523Y-115350647D01*
X151559640Y-115378504D01*
X151616190Y-115395659D01*
X151633497Y-115397364D01*
X153488937Y-116578098D01*
X153532999Y-116601244D01*
X153589140Y-116618762D01*
X153647619Y-116624991D01*
X159154129Y-116668693D01*
X159054477Y-116759420D01*
X158925790Y-116933748D01*
X158833586Y-117129832D01*
X158803533Y-117228904D01*
X158849668Y-117399874D01*
X159775126Y-117399874D01*
X159775126Y-116673622D01*
X159870401Y-116674378D01*
X159975126Y-116733205D01*
X159975126Y-117258450D01*
X159889267Y-117344309D01*
X160030691Y-117485733D01*
X160116550Y-117399874D01*
X160598095Y-117399874D01*
X160650056Y-117599874D01*
X159975126Y-117599874D01*
X159975126Y-118525332D01*
X160146096Y-118571467D01*
X160349947Y-118498013D01*
X160535551Y-118386201D01*
X160695775Y-118240328D01*
X160701142Y-118233058D01*
X160325554Y-124406783D01*
X160325464Y-124441677D01*
X160334473Y-124499793D01*
X160354647Y-124555035D01*
X160385210Y-124605280D01*
X160395469Y-124616452D01*
X160421343Y-124879150D01*
X160505685Y-125157189D01*
X160642649Y-125413431D01*
X160826972Y-125638028D01*
X161051569Y-125822351D01*
X161307811Y-125959315D01*
X161585850Y-126043657D01*
X161802548Y-126065000D01*
X162597452Y-126065000D01*
X162814150Y-126043657D01*
X163092189Y-125959315D01*
X163348431Y-125822351D01*
X163573028Y-125638028D01*
X163757351Y-125413431D01*
X163894315Y-125157189D01*
X163959024Y-124943872D01*
X166225001Y-122744541D01*
X166225001Y-129684039D01*
X166225000Y-153354104D01*
X166210616Y-153500805D01*
X166172627Y-153626629D01*
X166110924Y-153742675D01*
X166027853Y-153844531D01*
X165926586Y-153928307D01*
X165810973Y-153990819D01*
X165685410Y-154029687D01*
X165539716Y-154045000D01*
X136950000Y-154045000D01*
X136950000Y-150662112D01*
X142450000Y-150662112D01*
X142450000Y-150937888D01*
X142503801Y-151208365D01*
X142609336Y-151463149D01*
X142762549Y-151692448D01*
X142957552Y-151887451D01*
X143186851Y-152040664D01*
X143441635Y-152146199D01*
X143712112Y-152200000D01*
X143987888Y-152200000D01*
X144258365Y-152146199D01*
X144513149Y-152040664D01*
X144742448Y-151887451D01*
X144937451Y-151692448D01*
X145090664Y-151463149D01*
X145196199Y-151208365D01*
X145250000Y-150937888D01*
X145250000Y-150662112D01*
X145196199Y-150391635D01*
X145090664Y-150136851D01*
X144937451Y-149907552D01*
X144742448Y-149712549D01*
X144513149Y-149559336D01*
X144258365Y-149453801D01*
X143987888Y-149400000D01*
X143712112Y-149400000D01*
X143441635Y-149453801D01*
X143186851Y-149559336D01*
X142957552Y-149712549D01*
X142762549Y-149907552D01*
X142609336Y-150136851D01*
X142503801Y-150391635D01*
X142450000Y-150662112D01*
X136950000Y-150662112D01*
X136950000Y-128878979D01*
X160437155Y-128878979D01*
X160474009Y-129022070D01*
X160593025Y-129286319D01*
X160761307Y-129522272D01*
X160972387Y-129720861D01*
X161218154Y-129874454D01*
X161489163Y-129977149D01*
X161775000Y-130025000D01*
X162100000Y-130025000D01*
X162100000Y-128650000D01*
X162300000Y-128650000D01*
X162300000Y-130025000D01*
X162625000Y-130025000D01*
X162910837Y-129977149D01*
X163181846Y-129874454D01*
X163427613Y-129720861D01*
X163638693Y-129522272D01*
X163806975Y-129286319D01*
X163925991Y-129022070D01*
X163962845Y-128878979D01*
X163921424Y-128650000D01*
X162300000Y-128650000D01*
X162100000Y-128650000D01*
X160478576Y-128650000D01*
X160437155Y-128878979D01*
X136950000Y-128878979D01*
X136950000Y-127575000D01*
X140023549Y-127575000D01*
X140023549Y-128475000D01*
X140029341Y-128533810D01*
X140046496Y-128590360D01*
X140074353Y-128642477D01*
X140111842Y-128688158D01*
X140157523Y-128725647D01*
X140209640Y-128753504D01*
X140266190Y-128770659D01*
X140325000Y-128776451D01*
X141825000Y-128776451D01*
X141883810Y-128770659D01*
X141940360Y-128753504D01*
X141992477Y-128725647D01*
X142038158Y-128688158D01*
X142075647Y-128642477D01*
X142103504Y-128590360D01*
X142120659Y-128533810D01*
X142126451Y-128475000D01*
X142126451Y-128221021D01*
X160437155Y-128221021D01*
X160478576Y-128450000D01*
X162100000Y-128450000D01*
X162100000Y-127075000D01*
X162300000Y-127075000D01*
X162300000Y-128450000D01*
X163921424Y-128450000D01*
X163962845Y-128221021D01*
X163925991Y-128077930D01*
X163806975Y-127813681D01*
X163638693Y-127577728D01*
X163427613Y-127379139D01*
X163181846Y-127225546D01*
X162910837Y-127122851D01*
X162625000Y-127075000D01*
X162300000Y-127075000D01*
X162100000Y-127075000D01*
X161775000Y-127075000D01*
X161489163Y-127122851D01*
X161218154Y-127225546D01*
X160972387Y-127379139D01*
X160761307Y-127577728D01*
X160593025Y-127813681D01*
X160474009Y-128077930D01*
X160437155Y-128221021D01*
X142126451Y-128221021D01*
X142126451Y-127575000D01*
X142120659Y-127516190D01*
X142103504Y-127459640D01*
X142075647Y-127407523D01*
X142038158Y-127361842D01*
X141992477Y-127324353D01*
X141940360Y-127296496D01*
X141908601Y-127286862D01*
X141976040Y-127214619D01*
X142054158Y-127088530D01*
X142093508Y-126970047D01*
X142042551Y-126855000D01*
X141175000Y-126855000D01*
X141175000Y-126875000D01*
X140975000Y-126875000D01*
X140975000Y-126855000D01*
X140107449Y-126855000D01*
X140056492Y-126970047D01*
X140095842Y-127088530D01*
X140173960Y-127214619D01*
X140241399Y-127286862D01*
X140209640Y-127296496D01*
X140157523Y-127324353D01*
X140111842Y-127361842D01*
X140074353Y-127407523D01*
X140046496Y-127459640D01*
X140029341Y-127516190D01*
X140023549Y-127575000D01*
X136950000Y-127575000D01*
X136950000Y-125485000D01*
X140021372Y-125485000D01*
X140035853Y-125632026D01*
X140078739Y-125773401D01*
X140148381Y-125903693D01*
X140242105Y-126017895D01*
X140356307Y-126111619D01*
X140369864Y-126118865D01*
X140275176Y-126186955D01*
X140173960Y-126295381D01*
X140095842Y-126421470D01*
X140056492Y-126539953D01*
X140107449Y-126655000D01*
X140975000Y-126655000D01*
X140975000Y-126635000D01*
X141175000Y-126635000D01*
X141175000Y-126655000D01*
X142042551Y-126655000D01*
X142093508Y-126539953D01*
X142054158Y-126421470D01*
X141976040Y-126295381D01*
X141874824Y-126186955D01*
X141780136Y-126118865D01*
X141793693Y-126111619D01*
X141907895Y-126017895D01*
X142001619Y-125903693D01*
X142071261Y-125773401D01*
X142114147Y-125632026D01*
X142128628Y-125485000D01*
X142114147Y-125337974D01*
X142071261Y-125196599D01*
X142001619Y-125066307D01*
X141907895Y-124952105D01*
X141793693Y-124858381D01*
X141663401Y-124788739D01*
X141522026Y-124745853D01*
X141411835Y-124735000D01*
X140738165Y-124735000D01*
X140627974Y-124745853D01*
X140486599Y-124788739D01*
X140356307Y-124858381D01*
X140242105Y-124952105D01*
X140148381Y-125066307D01*
X140078739Y-125196599D01*
X140035853Y-125337974D01*
X140021372Y-125485000D01*
X136950000Y-125485000D01*
X136950000Y-121976081D01*
X136959977Y-121512150D01*
X136956862Y-121485147D01*
X136950153Y-121466728D01*
X136939978Y-121449971D01*
X133599978Y-116999971D01*
X133585079Y-116984074D01*
X133515079Y-116924074D01*
X133501872Y-116914505D01*
X133484196Y-116906028D01*
X133465206Y-116901163D01*
X133335206Y-116881163D01*
X133324965Y-116880123D01*
X133305385Y-116881074D01*
X133286366Y-116885826D01*
X133146366Y-116935826D01*
X133121373Y-116948988D01*
X133106695Y-116961982D01*
X133094834Y-116977590D01*
X133014834Y-117107590D01*
X133005632Y-117126915D01*
X133000990Y-117145961D01*
X133000154Y-117165547D01*
X133010154Y-117345547D01*
X133013230Y-117365212D01*
X133020009Y-117383607D01*
X133030245Y-117400325D01*
X136270447Y-121684150D01*
X136274559Y-121992612D01*
X136226324Y-154045000D01*
X67565896Y-154045000D01*
X67419195Y-154030616D01*
X67293371Y-153992627D01*
X67177325Y-153930924D01*
X67075469Y-153847853D01*
X66991693Y-153746586D01*
X66929181Y-153630973D01*
X66890313Y-153505410D01*
X66875000Y-153359716D01*
X66875000Y-150662112D01*
X80025000Y-150662112D01*
X80025000Y-150937888D01*
X80078801Y-151208365D01*
X80184336Y-151463149D01*
X80337549Y-151692448D01*
X80532552Y-151887451D01*
X80761851Y-152040664D01*
X81016635Y-152146199D01*
X81287112Y-152200000D01*
X81562888Y-152200000D01*
X81833365Y-152146199D01*
X82088149Y-152040664D01*
X82317448Y-151887451D01*
X82512451Y-151692448D01*
X82665664Y-151463149D01*
X82771199Y-151208365D01*
X82825000Y-150937888D01*
X82825000Y-150662112D01*
X82771199Y-150391635D01*
X82665664Y-150136851D01*
X82512451Y-149907552D01*
X82317448Y-149712549D01*
X82088149Y-149559336D01*
X81833365Y-149453801D01*
X81562888Y-149400000D01*
X81287112Y-149400000D01*
X81016635Y-149453801D01*
X80761851Y-149559336D01*
X80532552Y-149712549D01*
X80337549Y-149907552D01*
X80184336Y-150136851D01*
X80078801Y-150391635D01*
X80025000Y-150662112D01*
X66875000Y-150662112D01*
X66875000Y-125862112D01*
X79600000Y-125862112D01*
X79600000Y-126137888D01*
X79653801Y-126408365D01*
X79759336Y-126663149D01*
X79912549Y-126892448D01*
X80107552Y-127087451D01*
X80336851Y-127240664D01*
X80591635Y-127346199D01*
X80862112Y-127400000D01*
X81137888Y-127400000D01*
X81408365Y-127346199D01*
X81663149Y-127240664D01*
X81892448Y-127087451D01*
X82087451Y-126892448D01*
X82240664Y-126663149D01*
X82346199Y-126408365D01*
X82400000Y-126137888D01*
X82400000Y-125862112D01*
X129600000Y-125862112D01*
X129600000Y-126137888D01*
X129653801Y-126408365D01*
X129759336Y-126663149D01*
X129912549Y-126892448D01*
X130107552Y-127087451D01*
X130336851Y-127240664D01*
X130591635Y-127346199D01*
X130862112Y-127400000D01*
X131137888Y-127400000D01*
X131408365Y-127346199D01*
X131663149Y-127240664D01*
X131892448Y-127087451D01*
X132087451Y-126892448D01*
X132240664Y-126663149D01*
X132346199Y-126408365D01*
X132400000Y-126137888D01*
X132400000Y-125862112D01*
X132346199Y-125591635D01*
X132240664Y-125336851D01*
X132087451Y-125107552D01*
X131892448Y-124912549D01*
X131663149Y-124759336D01*
X131408365Y-124653801D01*
X131137888Y-124600000D01*
X130862112Y-124600000D01*
X130591635Y-124653801D01*
X130336851Y-124759336D01*
X130107552Y-124912549D01*
X129912549Y-125107552D01*
X129759336Y-125336851D01*
X129653801Y-125591635D01*
X129600000Y-125862112D01*
X82400000Y-125862112D01*
X82346199Y-125591635D01*
X82240664Y-125336851D01*
X82087451Y-125107552D01*
X81892448Y-124912549D01*
X81663149Y-124759336D01*
X81408365Y-124653801D01*
X81137888Y-124600000D01*
X80862112Y-124600000D01*
X80591635Y-124653801D01*
X80336851Y-124759336D01*
X80107552Y-124912549D01*
X79912549Y-125107552D01*
X79759336Y-125336851D01*
X79653801Y-125591635D01*
X79600000Y-125862112D01*
X66875000Y-125862112D01*
X66875000Y-100824999D01*
X117648066Y-100824999D01*
X117650001Y-100844645D01*
X117650002Y-118655345D01*
X117650001Y-118655355D01*
X117650002Y-120730345D01*
X117648066Y-120750001D01*
X117655789Y-120828414D01*
X117678662Y-120903815D01*
X117715804Y-120973303D01*
X117753266Y-121018951D01*
X117753269Y-121018954D01*
X117765791Y-121034212D01*
X117781049Y-121046734D01*
X117853265Y-121118950D01*
X119753267Y-123018953D01*
X119765789Y-123034211D01*
X119781047Y-123046733D01*
X119781049Y-123046735D01*
X119826697Y-123084197D01*
X119896186Y-123121340D01*
X119971586Y-123144212D01*
X120050000Y-123151935D01*
X120069647Y-123150000D01*
X122207847Y-123150000D01*
X122200634Y-123213758D01*
X122200195Y-123231238D01*
X122203329Y-123250589D01*
X122210179Y-123268957D01*
X122220481Y-123285635D01*
X122233838Y-123299984D01*
X122249738Y-123311451D01*
X122267569Y-123319595D01*
X122286647Y-123324104D01*
X122306238Y-123324805D01*
X122706238Y-123299805D01*
X122728633Y-123295813D01*
X122746775Y-123288386D01*
X122763120Y-123277562D01*
X122777038Y-123263758D01*
X122787997Y-123247503D01*
X122795573Y-123229423D01*
X122799477Y-123210212D01*
X122805658Y-123150000D01*
X123676472Y-123150000D01*
X123742522Y-123216050D01*
X123840793Y-123281713D01*
X123949986Y-123326942D01*
X124065905Y-123350000D01*
X124184095Y-123350000D01*
X124300014Y-123326942D01*
X124409207Y-123281713D01*
X124507478Y-123216050D01*
X124591050Y-123132478D01*
X124656713Y-123034207D01*
X124701942Y-122925014D01*
X124725000Y-122809095D01*
X124725000Y-122690905D01*
X124701942Y-122574986D01*
X124656713Y-122465793D01*
X124591050Y-122367522D01*
X124507478Y-122283950D01*
X124409207Y-122218287D01*
X124300014Y-122173058D01*
X124184095Y-122150000D01*
X124065905Y-122150000D01*
X123949986Y-122173058D01*
X123840793Y-122218287D01*
X123742522Y-122283950D01*
X123676472Y-122350000D01*
X122887788Y-122350000D01*
X123016115Y-121100000D01*
X124026472Y-121100000D01*
X124092522Y-121166050D01*
X124190793Y-121231713D01*
X124299986Y-121276942D01*
X124415905Y-121300000D01*
X124534095Y-121300000D01*
X124650014Y-121276942D01*
X124759207Y-121231713D01*
X124857478Y-121166050D01*
X124941050Y-121082478D01*
X125006713Y-120984207D01*
X125051942Y-120875014D01*
X125075000Y-120759095D01*
X125075000Y-120640905D01*
X125051942Y-120524986D01*
X125006713Y-120415793D01*
X124941050Y-120317522D01*
X124857478Y-120233950D01*
X124759207Y-120168287D01*
X124650014Y-120123058D01*
X124534095Y-120100000D01*
X124415905Y-120100000D01*
X124299986Y-120123058D01*
X124190793Y-120168287D01*
X124092522Y-120233950D01*
X124026472Y-120300000D01*
X123098244Y-120300000D01*
X123452426Y-116850000D01*
X138775000Y-116850000D01*
X138775000Y-121675000D01*
X138776921Y-121694509D01*
X138782612Y-121713268D01*
X138791853Y-121730557D01*
X138804289Y-121745711D01*
X138819443Y-121758147D01*
X138836732Y-121767388D01*
X138855491Y-121773079D01*
X138875000Y-121775000D01*
X148725000Y-121775000D01*
X148744509Y-121773079D01*
X148763268Y-121767388D01*
X148780557Y-121758147D01*
X148795711Y-121745711D01*
X148808147Y-121730557D01*
X148817388Y-121713268D01*
X148823079Y-121694509D01*
X148825000Y-121675000D01*
X148825000Y-118595819D01*
X151820602Y-118595819D01*
X151908874Y-118749335D01*
X152104958Y-118841540D01*
X152315263Y-118893719D01*
X152531706Y-118903867D01*
X152745970Y-118871593D01*
X152949821Y-118798139D01*
X153041126Y-118749335D01*
X153129398Y-118595819D01*
X152475000Y-117941421D01*
X151820602Y-118595819D01*
X148825000Y-118595819D01*
X148825000Y-117856706D01*
X151371133Y-117856706D01*
X151403407Y-118070970D01*
X151476861Y-118274821D01*
X151525665Y-118366126D01*
X151679181Y-118454398D01*
X152333579Y-117800000D01*
X152616421Y-117800000D01*
X153270819Y-118454398D01*
X153424335Y-118366126D01*
X153516540Y-118170042D01*
X153568719Y-117959737D01*
X153577575Y-117770844D01*
X158803533Y-117770844D01*
X158876987Y-117974695D01*
X158988799Y-118160299D01*
X159134672Y-118320523D01*
X159309000Y-118449210D01*
X159505084Y-118541414D01*
X159604156Y-118571467D01*
X159775126Y-118525332D01*
X159775126Y-117599874D01*
X158849668Y-117599874D01*
X158803533Y-117770844D01*
X153577575Y-117770844D01*
X153578867Y-117743294D01*
X153546593Y-117529030D01*
X153473139Y-117325179D01*
X153424335Y-117233874D01*
X153270819Y-117145602D01*
X152616421Y-117800000D01*
X152333579Y-117800000D01*
X151679181Y-117145602D01*
X151525665Y-117233874D01*
X151433460Y-117429958D01*
X151381281Y-117640263D01*
X151371133Y-117856706D01*
X148825000Y-117856706D01*
X148825000Y-117004181D01*
X151820602Y-117004181D01*
X152475000Y-117658579D01*
X153129398Y-117004181D01*
X153041126Y-116850665D01*
X152845042Y-116758460D01*
X152634737Y-116706281D01*
X152418294Y-116696133D01*
X152204030Y-116728407D01*
X152000179Y-116801861D01*
X151908874Y-116850665D01*
X151820602Y-117004181D01*
X148825000Y-117004181D01*
X148825000Y-116850000D01*
X148823079Y-116830491D01*
X148817388Y-116811732D01*
X148808147Y-116794443D01*
X148795711Y-116779289D01*
X148780557Y-116766853D01*
X148763268Y-116757612D01*
X148744509Y-116751921D01*
X148725000Y-116750000D01*
X138875000Y-116750000D01*
X138855491Y-116751921D01*
X138836732Y-116757612D01*
X138819443Y-116766853D01*
X138804289Y-116779289D01*
X138791853Y-116794443D01*
X138782612Y-116811732D01*
X138776921Y-116830491D01*
X138775000Y-116850000D01*
X123452426Y-116850000D01*
X123467977Y-116698522D01*
X124936444Y-115474800D01*
X129430552Y-115449998D01*
X129442507Y-115449215D01*
X129461623Y-115444868D01*
X129551623Y-115414868D01*
X129561132Y-115411149D01*
X129578124Y-115401373D01*
X129648124Y-115351373D01*
X129668320Y-115332177D01*
X129678945Y-115315703D01*
X129686152Y-115297472D01*
X129706152Y-115227472D01*
X129709993Y-115201219D01*
X129708309Y-115181688D01*
X129702848Y-115162861D01*
X129682848Y-115112861D01*
X129668087Y-115087530D01*
X129628087Y-115037530D01*
X129617190Y-115025936D01*
X129601450Y-115014251D01*
X129551450Y-114984251D01*
X129538365Y-114977652D01*
X129519612Y-114971942D01*
X129469612Y-114961942D01*
X129450000Y-114960000D01*
X129440141Y-114960000D01*
X124625137Y-114953209D01*
X124613183Y-114953909D01*
X124594038Y-114958122D01*
X124576082Y-114965988D01*
X124560006Y-114977207D01*
X123029417Y-116286025D01*
X123029143Y-116286134D01*
X123012687Y-116296788D01*
X122998626Y-116310448D01*
X122995424Y-116315093D01*
X122985010Y-116323998D01*
X122965882Y-116345924D01*
X122956949Y-116363374D01*
X122951591Y-116382231D01*
X122950016Y-116401771D01*
X122952282Y-116421243D01*
X122958304Y-116439899D01*
X122965549Y-116452894D01*
X122530293Y-120300000D01*
X120365685Y-120300000D01*
X119896740Y-119831055D01*
X119896735Y-119831049D01*
X119125000Y-119059315D01*
X119125000Y-101915685D01*
X119768950Y-101271735D01*
X119784211Y-101259211D01*
X119834197Y-101198303D01*
X119871340Y-101128814D01*
X119894212Y-101053414D01*
X119900000Y-100994647D01*
X119901935Y-100975000D01*
X119900000Y-100955353D01*
X119900000Y-100148528D01*
X119966050Y-100082478D01*
X120031713Y-99984207D01*
X120076942Y-99875014D01*
X120100000Y-99759095D01*
X120100000Y-99640905D01*
X120076942Y-99524986D01*
X120031713Y-99415793D01*
X119966050Y-99317522D01*
X119882478Y-99233950D01*
X119784207Y-99168287D01*
X119675014Y-99123058D01*
X119559095Y-99100000D01*
X119440905Y-99100000D01*
X119324986Y-99123058D01*
X119215793Y-99168287D01*
X119117522Y-99233950D01*
X119033950Y-99317522D01*
X118968287Y-99415793D01*
X118923058Y-99524986D01*
X118900000Y-99640905D01*
X118900000Y-99759095D01*
X118923058Y-99875014D01*
X118968287Y-99984207D01*
X119033950Y-100082478D01*
X119100000Y-100148528D01*
X119100000Y-100809315D01*
X118456052Y-101453263D01*
X118450001Y-101458229D01*
X118450001Y-101116863D01*
X118525014Y-101101942D01*
X118634207Y-101056713D01*
X118732478Y-100991050D01*
X118816050Y-100907478D01*
X118881713Y-100809207D01*
X118926942Y-100700014D01*
X118950000Y-100584095D01*
X118950000Y-100465905D01*
X118926942Y-100349986D01*
X118881713Y-100240793D01*
X118816050Y-100142522D01*
X118732478Y-100058950D01*
X118634207Y-99993287D01*
X118525014Y-99948058D01*
X118409095Y-99925000D01*
X118290905Y-99925000D01*
X118174986Y-99948058D01*
X118065793Y-99993287D01*
X117967522Y-100058950D01*
X117883950Y-100142522D01*
X117818287Y-100240793D01*
X117773058Y-100349986D01*
X117750000Y-100465905D01*
X117750000Y-100560028D01*
X117715804Y-100601697D01*
X117678661Y-100671186D01*
X117668086Y-100706049D01*
X117655789Y-100746586D01*
X117648066Y-100824999D01*
X66875000Y-100824999D01*
X66875000Y-98145819D01*
X144495602Y-98145819D01*
X144583874Y-98299335D01*
X144779958Y-98391540D01*
X144990263Y-98443719D01*
X145206706Y-98453867D01*
X145420970Y-98421593D01*
X145624821Y-98348139D01*
X145716126Y-98299335D01*
X145804398Y-98145819D01*
X145150000Y-97491421D01*
X144495602Y-98145819D01*
X66875000Y-98145819D01*
X66875000Y-97406706D01*
X144046133Y-97406706D01*
X144078407Y-97620970D01*
X144151861Y-97824821D01*
X144200665Y-97916126D01*
X144354181Y-98004398D01*
X145008579Y-97350000D01*
X145291421Y-97350000D01*
X145945819Y-98004398D01*
X146099335Y-97916126D01*
X146191540Y-97720042D01*
X146243719Y-97509737D01*
X146253867Y-97293294D01*
X146221593Y-97079030D01*
X146148139Y-96875179D01*
X146099335Y-96783874D01*
X145945819Y-96695602D01*
X145291421Y-97350000D01*
X145008579Y-97350000D01*
X144354181Y-96695602D01*
X144200665Y-96783874D01*
X144108460Y-96979958D01*
X144056281Y-97190263D01*
X144046133Y-97406706D01*
X66875000Y-97406706D01*
X66875000Y-96554181D01*
X144495602Y-96554181D01*
X145150000Y-97208579D01*
X145804398Y-96554181D01*
X145716126Y-96400665D01*
X145520042Y-96308460D01*
X145309737Y-96256281D01*
X145093294Y-96246133D01*
X144879030Y-96278407D01*
X144675179Y-96351861D01*
X144583874Y-96400665D01*
X144495602Y-96554181D01*
X66875000Y-96554181D01*
X66875000Y-93050000D01*
X144048549Y-93050000D01*
X144048549Y-94650000D01*
X144054341Y-94708810D01*
X144071496Y-94765360D01*
X144099353Y-94817477D01*
X144136842Y-94863158D01*
X144182523Y-94900647D01*
X144234640Y-94928504D01*
X144291190Y-94945659D01*
X144350000Y-94951451D01*
X145950000Y-94951451D01*
X146008810Y-94945659D01*
X146065360Y-94928504D01*
X146117477Y-94900647D01*
X146163158Y-94863158D01*
X146200647Y-94817477D01*
X146228504Y-94765360D01*
X146245659Y-94708810D01*
X146251451Y-94650000D01*
X146251451Y-93050000D01*
X146245659Y-92991190D01*
X146228504Y-92934640D01*
X146200647Y-92882523D01*
X146163158Y-92836842D01*
X146117477Y-92799353D01*
X146065360Y-92771496D01*
X146008810Y-92754341D01*
X145950000Y-92748549D01*
X144350000Y-92748549D01*
X144291190Y-92754341D01*
X144234640Y-92771496D01*
X144182523Y-92799353D01*
X144136842Y-92836842D01*
X144099353Y-92882523D01*
X144071496Y-92934640D01*
X144054341Y-92991190D01*
X144048549Y-93050000D01*
X66875000Y-93050000D01*
X66875000Y-89886735D01*
X138850000Y-89886735D01*
X138850000Y-90113265D01*
X138894194Y-90335443D01*
X138980884Y-90544729D01*
X139106737Y-90733082D01*
X139266918Y-90893263D01*
X139455271Y-91019116D01*
X139664557Y-91105806D01*
X139886735Y-91150000D01*
X140113265Y-91150000D01*
X140335443Y-91105806D01*
X140544729Y-91019116D01*
X140733082Y-90893263D01*
X140893263Y-90733082D01*
X141019116Y-90544729D01*
X141105806Y-90335443D01*
X141150000Y-90113265D01*
X141150000Y-90000000D01*
X141384436Y-90000000D01*
X141406640Y-90225439D01*
X141472398Y-90442215D01*
X141579184Y-90641997D01*
X141722893Y-90817107D01*
X141898003Y-90960816D01*
X142097785Y-91067602D01*
X142314561Y-91133360D01*
X142483508Y-91150000D01*
X142596492Y-91150000D01*
X142765439Y-91133360D01*
X142982215Y-91067602D01*
X143181997Y-90960816D01*
X143357107Y-90817107D01*
X143500816Y-90641997D01*
X143607602Y-90442215D01*
X143673360Y-90225439D01*
X143695564Y-90000000D01*
X143924436Y-90000000D01*
X143946640Y-90225439D01*
X144012398Y-90442215D01*
X144119184Y-90641997D01*
X144262893Y-90817107D01*
X144438003Y-90960816D01*
X144637785Y-91067602D01*
X144854561Y-91133360D01*
X145023508Y-91150000D01*
X145136492Y-91150000D01*
X145305439Y-91133360D01*
X145522215Y-91067602D01*
X145721997Y-90960816D01*
X145897107Y-90817107D01*
X146040816Y-90641997D01*
X146147602Y-90442215D01*
X146213360Y-90225439D01*
X146235564Y-90000000D01*
X146213360Y-89774561D01*
X146147602Y-89557785D01*
X146040816Y-89358003D01*
X145897107Y-89182893D01*
X145721997Y-89039184D01*
X145522215Y-88932398D01*
X145305439Y-88866640D01*
X145136492Y-88850000D01*
X145023508Y-88850000D01*
X144854561Y-88866640D01*
X144637785Y-88932398D01*
X144438003Y-89039184D01*
X144262893Y-89182893D01*
X144119184Y-89358003D01*
X144012398Y-89557785D01*
X143946640Y-89774561D01*
X143924436Y-90000000D01*
X143695564Y-90000000D01*
X143673360Y-89774561D01*
X143607602Y-89557785D01*
X143500816Y-89358003D01*
X143357107Y-89182893D01*
X143181997Y-89039184D01*
X142982215Y-88932398D01*
X142765439Y-88866640D01*
X142596492Y-88850000D01*
X142483508Y-88850000D01*
X142314561Y-88866640D01*
X142097785Y-88932398D01*
X141898003Y-89039184D01*
X141722893Y-89182893D01*
X141579184Y-89358003D01*
X141472398Y-89557785D01*
X141406640Y-89774561D01*
X141384436Y-90000000D01*
X141150000Y-90000000D01*
X141150000Y-89886735D01*
X141105806Y-89664557D01*
X141019116Y-89455271D01*
X140893263Y-89266918D01*
X140733082Y-89106737D01*
X140544729Y-88980884D01*
X140335443Y-88894194D01*
X140113265Y-88850000D01*
X139886735Y-88850000D01*
X139664557Y-88894194D01*
X139455271Y-88980884D01*
X139266918Y-89106737D01*
X139106737Y-89266918D01*
X138980884Y-89455271D01*
X138894194Y-89664557D01*
X138850000Y-89886735D01*
X66875000Y-89886735D01*
X66875000Y-87460000D01*
X138844436Y-87460000D01*
X138866640Y-87685439D01*
X138932398Y-87902215D01*
X139039184Y-88101997D01*
X139182893Y-88277107D01*
X139358003Y-88420816D01*
X139557785Y-88527602D01*
X139774561Y-88593360D01*
X139943508Y-88610000D01*
X140056492Y-88610000D01*
X140225439Y-88593360D01*
X140442215Y-88527602D01*
X140641997Y-88420816D01*
X140817107Y-88277107D01*
X140960816Y-88101997D01*
X141067602Y-87902215D01*
X141133360Y-87685439D01*
X141155564Y-87460000D01*
X141384436Y-87460000D01*
X141406640Y-87685439D01*
X141472398Y-87902215D01*
X141579184Y-88101997D01*
X141722893Y-88277107D01*
X141898003Y-88420816D01*
X142097785Y-88527602D01*
X142314561Y-88593360D01*
X142483508Y-88610000D01*
X142596492Y-88610000D01*
X142765439Y-88593360D01*
X142982215Y-88527602D01*
X143181997Y-88420816D01*
X143357107Y-88277107D01*
X143500816Y-88101997D01*
X143607602Y-87902215D01*
X143673360Y-87685439D01*
X143695564Y-87460000D01*
X143924436Y-87460000D01*
X143946640Y-87685439D01*
X144012398Y-87902215D01*
X144119184Y-88101997D01*
X144262893Y-88277107D01*
X144438003Y-88420816D01*
X144637785Y-88527602D01*
X144854561Y-88593360D01*
X145023508Y-88610000D01*
X145136492Y-88610000D01*
X145305439Y-88593360D01*
X145522215Y-88527602D01*
X145721997Y-88420816D01*
X145897107Y-88277107D01*
X146040816Y-88101997D01*
X146147602Y-87902215D01*
X146213360Y-87685439D01*
X146235564Y-87460000D01*
X146213360Y-87234561D01*
X146147602Y-87017785D01*
X146040816Y-86818003D01*
X145897107Y-86642893D01*
X145721997Y-86499184D01*
X145522215Y-86392398D01*
X145305439Y-86326640D01*
X145136492Y-86310000D01*
X145023508Y-86310000D01*
X144854561Y-86326640D01*
X144637785Y-86392398D01*
X144438003Y-86499184D01*
X144262893Y-86642893D01*
X144119184Y-86818003D01*
X144012398Y-87017785D01*
X143946640Y-87234561D01*
X143924436Y-87460000D01*
X143695564Y-87460000D01*
X143673360Y-87234561D01*
X143607602Y-87017785D01*
X143500816Y-86818003D01*
X143357107Y-86642893D01*
X143181997Y-86499184D01*
X142982215Y-86392398D01*
X142765439Y-86326640D01*
X142596492Y-86310000D01*
X142483508Y-86310000D01*
X142314561Y-86326640D01*
X142097785Y-86392398D01*
X141898003Y-86499184D01*
X141722893Y-86642893D01*
X141579184Y-86818003D01*
X141472398Y-87017785D01*
X141406640Y-87234561D01*
X141384436Y-87460000D01*
X141155564Y-87460000D01*
X141133360Y-87234561D01*
X141067602Y-87017785D01*
X140960816Y-86818003D01*
X140817107Y-86642893D01*
X140641997Y-86499184D01*
X140442215Y-86392398D01*
X140225439Y-86326640D01*
X140056492Y-86310000D01*
X139943508Y-86310000D01*
X139774561Y-86326640D01*
X139557785Y-86392398D01*
X139358003Y-86499184D01*
X139182893Y-86642893D01*
X139039184Y-86818003D01*
X138932398Y-87017785D01*
X138866640Y-87234561D01*
X138844436Y-87460000D01*
X66875000Y-87460000D01*
X66875000Y-80862112D01*
X79600000Y-80862112D01*
X79600000Y-81137888D01*
X79653801Y-81408365D01*
X79759336Y-81663149D01*
X79912549Y-81892448D01*
X80107552Y-82087451D01*
X80336851Y-82240664D01*
X80591635Y-82346199D01*
X80862112Y-82400000D01*
X81137888Y-82400000D01*
X81408365Y-82346199D01*
X81663149Y-82240664D01*
X81892448Y-82087451D01*
X82087451Y-81892448D01*
X82240664Y-81663149D01*
X82346199Y-81408365D01*
X82400000Y-81137888D01*
X82400000Y-80862112D01*
X129600000Y-80862112D01*
X129600000Y-81137888D01*
X129653801Y-81408365D01*
X129759336Y-81663149D01*
X129912549Y-81892448D01*
X130107552Y-82087451D01*
X130336851Y-82240664D01*
X130591635Y-82346199D01*
X130862112Y-82400000D01*
X131137888Y-82400000D01*
X131408365Y-82346199D01*
X131663149Y-82240664D01*
X131892448Y-82087451D01*
X132087451Y-81892448D01*
X132240664Y-81663149D01*
X132346199Y-81408365D01*
X132400000Y-81137888D01*
X132400000Y-80862112D01*
X132346199Y-80591635D01*
X132240664Y-80336851D01*
X132087451Y-80107552D01*
X131892448Y-79912549D01*
X131663149Y-79759336D01*
X131408365Y-79653801D01*
X131137888Y-79600000D01*
X130862112Y-79600000D01*
X130591635Y-79653801D01*
X130336851Y-79759336D01*
X130107552Y-79912549D01*
X129912549Y-80107552D01*
X129759336Y-80336851D01*
X129653801Y-80591635D01*
X129600000Y-80862112D01*
X82400000Y-80862112D01*
X82346199Y-80591635D01*
X82240664Y-80336851D01*
X82087451Y-80107552D01*
X81892448Y-79912549D01*
X81663149Y-79759336D01*
X81408365Y-79653801D01*
X81137888Y-79600000D01*
X80862112Y-79600000D01*
X80591635Y-79653801D01*
X80336851Y-79759336D01*
X80107552Y-79912549D01*
X79912549Y-80107552D01*
X79759336Y-80336851D01*
X79653801Y-80591635D01*
X79600000Y-80862112D01*
X66875000Y-80862112D01*
X66875000Y-57112112D01*
X80025000Y-57112112D01*
X80025000Y-57387888D01*
X80078801Y-57658365D01*
X80184336Y-57913149D01*
X80337549Y-58142448D01*
X80532552Y-58337451D01*
X80761851Y-58490664D01*
X81016635Y-58596199D01*
X81287112Y-58650000D01*
X81562888Y-58650000D01*
X81833365Y-58596199D01*
X82088149Y-58490664D01*
X82317448Y-58337451D01*
X82512451Y-58142448D01*
X82665664Y-57913149D01*
X82771199Y-57658365D01*
X82825000Y-57387888D01*
X82825000Y-57112112D01*
X142425000Y-57112112D01*
X142425000Y-57387888D01*
X142478801Y-57658365D01*
X142584336Y-57913149D01*
X142737549Y-58142448D01*
X142932552Y-58337451D01*
X143161851Y-58490664D01*
X143416635Y-58596199D01*
X143687112Y-58650000D01*
X143962888Y-58650000D01*
X144233365Y-58596199D01*
X144488149Y-58490664D01*
X144717448Y-58337451D01*
X144912451Y-58142448D01*
X145065664Y-57913149D01*
X145171199Y-57658365D01*
X145225000Y-57387888D01*
X145225000Y-57112112D01*
X145171199Y-56841635D01*
X145065664Y-56586851D01*
X144912451Y-56357552D01*
X144717448Y-56162549D01*
X144488149Y-56009336D01*
X144233365Y-55903801D01*
X143962888Y-55850000D01*
X143687112Y-55850000D01*
X143416635Y-55903801D01*
X143161851Y-56009336D01*
X142932552Y-56162549D01*
X142737549Y-56357552D01*
X142584336Y-56586851D01*
X142478801Y-56841635D01*
X142425000Y-57112112D01*
X82825000Y-57112112D01*
X82771199Y-56841635D01*
X82665664Y-56586851D01*
X82512451Y-56357552D01*
X82317448Y-56162549D01*
X82088149Y-56009336D01*
X81833365Y-55903801D01*
X81562888Y-55850000D01*
X81287112Y-55850000D01*
X81016635Y-55903801D01*
X80761851Y-56009336D01*
X80532552Y-56162549D01*
X80337549Y-56357552D01*
X80184336Y-56586851D01*
X80078801Y-56841635D01*
X80025000Y-57112112D01*
X66875000Y-57112112D01*
X66875000Y-55385897D01*
X66889384Y-55239195D01*
X66927373Y-55113371D01*
X66989076Y-54997325D01*
X67072148Y-54895468D01*
X67173418Y-54811690D01*
X67289027Y-54749181D01*
X67414586Y-54710314D01*
X67560285Y-54695000D01*
X165534103Y-54695000D01*
X165680805Y-54709384D01*
X165680805Y-54709384D01*
G37*
X165680805Y-54709384D02*
X165806629Y-54747373D01*
X165922675Y-54809076D01*
X166024532Y-54892148D01*
X166108310Y-54993418D01*
X166170819Y-55109027D01*
X166209686Y-55234586D01*
X166225001Y-55380295D01*
X166225000Y-78184039D01*
X166225000Y-85725000D01*
X147900000Y-85725000D01*
X147881938Y-85726645D01*
X147863097Y-85732058D01*
X147845674Y-85741044D01*
X147830339Y-85753255D01*
X147817680Y-85768224D01*
X147808186Y-85785375D01*
X147802220Y-85804048D01*
X147800011Y-85823527D01*
X147792675Y-86321443D01*
X147676492Y-86310000D01*
X147563508Y-86310000D01*
X147394561Y-86326640D01*
X147177785Y-86392398D01*
X146978003Y-86499184D01*
X146802893Y-86642893D01*
X146659184Y-86818003D01*
X146552398Y-87017785D01*
X146486640Y-87234561D01*
X146464436Y-87460000D01*
X146486640Y-87685439D01*
X146552398Y-87902215D01*
X146659184Y-88101997D01*
X146802893Y-88277107D01*
X146978003Y-88420816D01*
X147177785Y-88527602D01*
X147394561Y-88593360D01*
X147563508Y-88610000D01*
X147676492Y-88610000D01*
X147759078Y-88601866D01*
X147755308Y-88857763D01*
X147676492Y-88850000D01*
X147563508Y-88850000D01*
X147394561Y-88866640D01*
X147177785Y-88932398D01*
X146978003Y-89039184D01*
X146802893Y-89182893D01*
X146659184Y-89358003D01*
X146552398Y-89557785D01*
X146486640Y-89774561D01*
X146464436Y-90000000D01*
X146486640Y-90225439D01*
X146552398Y-90442215D01*
X146659184Y-90641997D01*
X146802893Y-90817107D01*
X146978003Y-90960816D01*
X147177785Y-91067602D01*
X147394561Y-91133360D01*
X147563508Y-91150000D01*
X147676492Y-91150000D01*
X147721602Y-91145557D01*
X147600638Y-99355948D01*
X146910583Y-100000000D01*
X143850000Y-100000000D01*
X143830491Y-100001921D01*
X143811732Y-100007612D01*
X143794443Y-100016853D01*
X143779289Y-100029289D01*
X143058578Y-100750000D01*
X140150000Y-100750000D01*
X140132417Y-100751558D01*
X140113550Y-100756880D01*
X140096084Y-100765780D01*
X140080689Y-100777917D01*
X138780689Y-102027917D01*
X138766853Y-102044443D01*
X138757612Y-102061732D01*
X138751921Y-102080491D01*
X138750000Y-102100000D01*
X138750000Y-105800000D01*
X138752986Y-105824254D01*
X138759581Y-105842714D01*
X138769652Y-105859533D01*
X138782810Y-105874064D01*
X138798550Y-105885749D01*
X141673550Y-107610749D01*
X141688415Y-107618067D01*
X145294804Y-109035751D01*
X151373549Y-114921520D01*
X151373549Y-115100000D01*
X151379341Y-115158810D01*
X151396496Y-115215360D01*
X151424353Y-115267477D01*
X151461842Y-115313158D01*
X151507523Y-115350647D01*
X151559640Y-115378504D01*
X151616190Y-115395659D01*
X151633497Y-115397364D01*
X153488937Y-116578098D01*
X153532999Y-116601244D01*
X153589140Y-116618762D01*
X153647619Y-116624991D01*
X159154129Y-116668693D01*
X159054477Y-116759420D01*
X158925790Y-116933748D01*
X158833586Y-117129832D01*
X158803533Y-117228904D01*
X158849668Y-117399874D01*
X159775126Y-117399874D01*
X159775126Y-116673622D01*
X159870401Y-116674378D01*
X159975126Y-116733205D01*
X159975126Y-117258450D01*
X159889267Y-117344309D01*
X160030691Y-117485733D01*
X160116550Y-117399874D01*
X160598095Y-117399874D01*
X160650056Y-117599874D01*
X159975126Y-117599874D01*
X159975126Y-118525332D01*
X160146096Y-118571467D01*
X160349947Y-118498013D01*
X160535551Y-118386201D01*
X160695775Y-118240328D01*
X160701142Y-118233058D01*
X160325554Y-124406783D01*
X160325464Y-124441677D01*
X160334473Y-124499793D01*
X160354647Y-124555035D01*
X160385210Y-124605280D01*
X160395469Y-124616452D01*
X160421343Y-124879150D01*
X160505685Y-125157189D01*
X160642649Y-125413431D01*
X160826972Y-125638028D01*
X161051569Y-125822351D01*
X161307811Y-125959315D01*
X161585850Y-126043657D01*
X161802548Y-126065000D01*
X162597452Y-126065000D01*
X162814150Y-126043657D01*
X163092189Y-125959315D01*
X163348431Y-125822351D01*
X163573028Y-125638028D01*
X163757351Y-125413431D01*
X163894315Y-125157189D01*
X163959024Y-124943872D01*
X166225001Y-122744541D01*
X166225001Y-129684039D01*
X166225000Y-153354104D01*
X166210616Y-153500805D01*
X166172627Y-153626629D01*
X166110924Y-153742675D01*
X166027853Y-153844531D01*
X165926586Y-153928307D01*
X165810973Y-153990819D01*
X165685410Y-154029687D01*
X165539716Y-154045000D01*
X136950000Y-154045000D01*
X136950000Y-150662112D01*
X142450000Y-150662112D01*
X142450000Y-150937888D01*
X142503801Y-151208365D01*
X142609336Y-151463149D01*
X142762549Y-151692448D01*
X142957552Y-151887451D01*
X143186851Y-152040664D01*
X143441635Y-152146199D01*
X143712112Y-152200000D01*
X143987888Y-152200000D01*
X144258365Y-152146199D01*
X144513149Y-152040664D01*
X144742448Y-151887451D01*
X144937451Y-151692448D01*
X145090664Y-151463149D01*
X145196199Y-151208365D01*
X145250000Y-150937888D01*
X145250000Y-150662112D01*
X145196199Y-150391635D01*
X145090664Y-150136851D01*
X144937451Y-149907552D01*
X144742448Y-149712549D01*
X144513149Y-149559336D01*
X144258365Y-149453801D01*
X143987888Y-149400000D01*
X143712112Y-149400000D01*
X143441635Y-149453801D01*
X143186851Y-149559336D01*
X142957552Y-149712549D01*
X142762549Y-149907552D01*
X142609336Y-150136851D01*
X142503801Y-150391635D01*
X142450000Y-150662112D01*
X136950000Y-150662112D01*
X136950000Y-128878979D01*
X160437155Y-128878979D01*
X160474009Y-129022070D01*
X160593025Y-129286319D01*
X160761307Y-129522272D01*
X160972387Y-129720861D01*
X161218154Y-129874454D01*
X161489163Y-129977149D01*
X161775000Y-130025000D01*
X162100000Y-130025000D01*
X162100000Y-128650000D01*
X162300000Y-128650000D01*
X162300000Y-130025000D01*
X162625000Y-130025000D01*
X162910837Y-129977149D01*
X163181846Y-129874454D01*
X163427613Y-129720861D01*
X163638693Y-129522272D01*
X163806975Y-129286319D01*
X163925991Y-129022070D01*
X163962845Y-128878979D01*
X163921424Y-128650000D01*
X162300000Y-128650000D01*
X162100000Y-128650000D01*
X160478576Y-128650000D01*
X160437155Y-128878979D01*
X136950000Y-128878979D01*
X136950000Y-127575000D01*
X140023549Y-127575000D01*
X140023549Y-128475000D01*
X140029341Y-128533810D01*
X140046496Y-128590360D01*
X140074353Y-128642477D01*
X140111842Y-128688158D01*
X140157523Y-128725647D01*
X140209640Y-128753504D01*
X140266190Y-128770659D01*
X140325000Y-128776451D01*
X141825000Y-128776451D01*
X141883810Y-128770659D01*
X141940360Y-128753504D01*
X141992477Y-128725647D01*
X142038158Y-128688158D01*
X142075647Y-128642477D01*
X142103504Y-128590360D01*
X142120659Y-128533810D01*
X142126451Y-128475000D01*
X142126451Y-128221021D01*
X160437155Y-128221021D01*
X160478576Y-128450000D01*
X162100000Y-128450000D01*
X162100000Y-127075000D01*
X162300000Y-127075000D01*
X162300000Y-128450000D01*
X163921424Y-128450000D01*
X163962845Y-128221021D01*
X163925991Y-128077930D01*
X163806975Y-127813681D01*
X163638693Y-127577728D01*
X163427613Y-127379139D01*
X163181846Y-127225546D01*
X162910837Y-127122851D01*
X162625000Y-127075000D01*
X162300000Y-127075000D01*
X162100000Y-127075000D01*
X161775000Y-127075000D01*
X161489163Y-127122851D01*
X161218154Y-127225546D01*
X160972387Y-127379139D01*
X160761307Y-127577728D01*
X160593025Y-127813681D01*
X160474009Y-128077930D01*
X160437155Y-128221021D01*
X142126451Y-128221021D01*
X142126451Y-127575000D01*
X142120659Y-127516190D01*
X142103504Y-127459640D01*
X142075647Y-127407523D01*
X142038158Y-127361842D01*
X141992477Y-127324353D01*
X141940360Y-127296496D01*
X141908601Y-127286862D01*
X141976040Y-127214619D01*
X142054158Y-127088530D01*
X142093508Y-126970047D01*
X142042551Y-126855000D01*
X141175000Y-126855000D01*
X141175000Y-126875000D01*
X140975000Y-126875000D01*
X140975000Y-126855000D01*
X140107449Y-126855000D01*
X140056492Y-126970047D01*
X140095842Y-127088530D01*
X140173960Y-127214619D01*
X140241399Y-127286862D01*
X140209640Y-127296496D01*
X140157523Y-127324353D01*
X140111842Y-127361842D01*
X140074353Y-127407523D01*
X140046496Y-127459640D01*
X140029341Y-127516190D01*
X140023549Y-127575000D01*
X136950000Y-127575000D01*
X136950000Y-125485000D01*
X140021372Y-125485000D01*
X140035853Y-125632026D01*
X140078739Y-125773401D01*
X140148381Y-125903693D01*
X140242105Y-126017895D01*
X140356307Y-126111619D01*
X140369864Y-126118865D01*
X140275176Y-126186955D01*
X140173960Y-126295381D01*
X140095842Y-126421470D01*
X140056492Y-126539953D01*
X140107449Y-126655000D01*
X140975000Y-126655000D01*
X140975000Y-126635000D01*
X141175000Y-126635000D01*
X141175000Y-126655000D01*
X142042551Y-126655000D01*
X142093508Y-126539953D01*
X142054158Y-126421470D01*
X141976040Y-126295381D01*
X141874824Y-126186955D01*
X141780136Y-126118865D01*
X141793693Y-126111619D01*
X141907895Y-126017895D01*
X142001619Y-125903693D01*
X142071261Y-125773401D01*
X142114147Y-125632026D01*
X142128628Y-125485000D01*
X142114147Y-125337974D01*
X142071261Y-125196599D01*
X142001619Y-125066307D01*
X141907895Y-124952105D01*
X141793693Y-124858381D01*
X141663401Y-124788739D01*
X141522026Y-124745853D01*
X141411835Y-124735000D01*
X140738165Y-124735000D01*
X140627974Y-124745853D01*
X140486599Y-124788739D01*
X140356307Y-124858381D01*
X140242105Y-124952105D01*
X140148381Y-125066307D01*
X140078739Y-125196599D01*
X140035853Y-125337974D01*
X140021372Y-125485000D01*
X136950000Y-125485000D01*
X136950000Y-121976081D01*
X136959977Y-121512150D01*
X136956862Y-121485147D01*
X136950153Y-121466728D01*
X136939978Y-121449971D01*
X133599978Y-116999971D01*
X133585079Y-116984074D01*
X133515079Y-116924074D01*
X133501872Y-116914505D01*
X133484196Y-116906028D01*
X133465206Y-116901163D01*
X133335206Y-116881163D01*
X133324965Y-116880123D01*
X133305385Y-116881074D01*
X133286366Y-116885826D01*
X133146366Y-116935826D01*
X133121373Y-116948988D01*
X133106695Y-116961982D01*
X133094834Y-116977590D01*
X133014834Y-117107590D01*
X133005632Y-117126915D01*
X133000990Y-117145961D01*
X133000154Y-117165547D01*
X133010154Y-117345547D01*
X133013230Y-117365212D01*
X133020009Y-117383607D01*
X133030245Y-117400325D01*
X136270447Y-121684150D01*
X136274559Y-121992612D01*
X136226324Y-154045000D01*
X67565896Y-154045000D01*
X67419195Y-154030616D01*
X67293371Y-153992627D01*
X67177325Y-153930924D01*
X67075469Y-153847853D01*
X66991693Y-153746586D01*
X66929181Y-153630973D01*
X66890313Y-153505410D01*
X66875000Y-153359716D01*
X66875000Y-150662112D01*
X80025000Y-150662112D01*
X80025000Y-150937888D01*
X80078801Y-151208365D01*
X80184336Y-151463149D01*
X80337549Y-151692448D01*
X80532552Y-151887451D01*
X80761851Y-152040664D01*
X81016635Y-152146199D01*
X81287112Y-152200000D01*
X81562888Y-152200000D01*
X81833365Y-152146199D01*
X82088149Y-152040664D01*
X82317448Y-151887451D01*
X82512451Y-151692448D01*
X82665664Y-151463149D01*
X82771199Y-151208365D01*
X82825000Y-150937888D01*
X82825000Y-150662112D01*
X82771199Y-150391635D01*
X82665664Y-150136851D01*
X82512451Y-149907552D01*
X82317448Y-149712549D01*
X82088149Y-149559336D01*
X81833365Y-149453801D01*
X81562888Y-149400000D01*
X81287112Y-149400000D01*
X81016635Y-149453801D01*
X80761851Y-149559336D01*
X80532552Y-149712549D01*
X80337549Y-149907552D01*
X80184336Y-150136851D01*
X80078801Y-150391635D01*
X80025000Y-150662112D01*
X66875000Y-150662112D01*
X66875000Y-125862112D01*
X79600000Y-125862112D01*
X79600000Y-126137888D01*
X79653801Y-126408365D01*
X79759336Y-126663149D01*
X79912549Y-126892448D01*
X80107552Y-127087451D01*
X80336851Y-127240664D01*
X80591635Y-127346199D01*
X80862112Y-127400000D01*
X81137888Y-127400000D01*
X81408365Y-127346199D01*
X81663149Y-127240664D01*
X81892448Y-127087451D01*
X82087451Y-126892448D01*
X82240664Y-126663149D01*
X82346199Y-126408365D01*
X82400000Y-126137888D01*
X82400000Y-125862112D01*
X129600000Y-125862112D01*
X129600000Y-126137888D01*
X129653801Y-126408365D01*
X129759336Y-126663149D01*
X129912549Y-126892448D01*
X130107552Y-127087451D01*
X130336851Y-127240664D01*
X130591635Y-127346199D01*
X130862112Y-127400000D01*
X131137888Y-127400000D01*
X131408365Y-127346199D01*
X131663149Y-127240664D01*
X131892448Y-127087451D01*
X132087451Y-126892448D01*
X132240664Y-126663149D01*
X132346199Y-126408365D01*
X132400000Y-126137888D01*
X132400000Y-125862112D01*
X132346199Y-125591635D01*
X132240664Y-125336851D01*
X132087451Y-125107552D01*
X131892448Y-124912549D01*
X131663149Y-124759336D01*
X131408365Y-124653801D01*
X131137888Y-124600000D01*
X130862112Y-124600000D01*
X130591635Y-124653801D01*
X130336851Y-124759336D01*
X130107552Y-124912549D01*
X129912549Y-125107552D01*
X129759336Y-125336851D01*
X129653801Y-125591635D01*
X129600000Y-125862112D01*
X82400000Y-125862112D01*
X82346199Y-125591635D01*
X82240664Y-125336851D01*
X82087451Y-125107552D01*
X81892448Y-124912549D01*
X81663149Y-124759336D01*
X81408365Y-124653801D01*
X81137888Y-124600000D01*
X80862112Y-124600000D01*
X80591635Y-124653801D01*
X80336851Y-124759336D01*
X80107552Y-124912549D01*
X79912549Y-125107552D01*
X79759336Y-125336851D01*
X79653801Y-125591635D01*
X79600000Y-125862112D01*
X66875000Y-125862112D01*
X66875000Y-100824999D01*
X117648066Y-100824999D01*
X117650001Y-100844645D01*
X117650002Y-118655345D01*
X117650001Y-118655355D01*
X117650002Y-120730345D01*
X117648066Y-120750001D01*
X117655789Y-120828414D01*
X117678662Y-120903815D01*
X117715804Y-120973303D01*
X117753266Y-121018951D01*
X117753269Y-121018954D01*
X117765791Y-121034212D01*
X117781049Y-121046734D01*
X117853265Y-121118950D01*
X119753267Y-123018953D01*
X119765789Y-123034211D01*
X119781047Y-123046733D01*
X119781049Y-123046735D01*
X119826697Y-123084197D01*
X119896186Y-123121340D01*
X119971586Y-123144212D01*
X120050000Y-123151935D01*
X120069647Y-123150000D01*
X122207847Y-123150000D01*
X122200634Y-123213758D01*
X122200195Y-123231238D01*
X122203329Y-123250589D01*
X122210179Y-123268957D01*
X122220481Y-123285635D01*
X122233838Y-123299984D01*
X122249738Y-123311451D01*
X122267569Y-123319595D01*
X122286647Y-123324104D01*
X122306238Y-123324805D01*
X122706238Y-123299805D01*
X122728633Y-123295813D01*
X122746775Y-123288386D01*
X122763120Y-123277562D01*
X122777038Y-123263758D01*
X122787997Y-123247503D01*
X122795573Y-123229423D01*
X122799477Y-123210212D01*
X122805658Y-123150000D01*
X123676472Y-123150000D01*
X123742522Y-123216050D01*
X123840793Y-123281713D01*
X123949986Y-123326942D01*
X124065905Y-123350000D01*
X124184095Y-123350000D01*
X124300014Y-123326942D01*
X124409207Y-123281713D01*
X124507478Y-123216050D01*
X124591050Y-123132478D01*
X124656713Y-123034207D01*
X124701942Y-122925014D01*
X124725000Y-122809095D01*
X124725000Y-122690905D01*
X124701942Y-122574986D01*
X124656713Y-122465793D01*
X124591050Y-122367522D01*
X124507478Y-122283950D01*
X124409207Y-122218287D01*
X124300014Y-122173058D01*
X124184095Y-122150000D01*
X124065905Y-122150000D01*
X123949986Y-122173058D01*
X123840793Y-122218287D01*
X123742522Y-122283950D01*
X123676472Y-122350000D01*
X122887788Y-122350000D01*
X123016115Y-121100000D01*
X124026472Y-121100000D01*
X124092522Y-121166050D01*
X124190793Y-121231713D01*
X124299986Y-121276942D01*
X124415905Y-121300000D01*
X124534095Y-121300000D01*
X124650014Y-121276942D01*
X124759207Y-121231713D01*
X124857478Y-121166050D01*
X124941050Y-121082478D01*
X125006713Y-120984207D01*
X125051942Y-120875014D01*
X125075000Y-120759095D01*
X125075000Y-120640905D01*
X125051942Y-120524986D01*
X125006713Y-120415793D01*
X124941050Y-120317522D01*
X124857478Y-120233950D01*
X124759207Y-120168287D01*
X124650014Y-120123058D01*
X124534095Y-120100000D01*
X124415905Y-120100000D01*
X124299986Y-120123058D01*
X124190793Y-120168287D01*
X124092522Y-120233950D01*
X124026472Y-120300000D01*
X123098244Y-120300000D01*
X123452426Y-116850000D01*
X138775000Y-116850000D01*
X138775000Y-121675000D01*
X138776921Y-121694509D01*
X138782612Y-121713268D01*
X138791853Y-121730557D01*
X138804289Y-121745711D01*
X138819443Y-121758147D01*
X138836732Y-121767388D01*
X138855491Y-121773079D01*
X138875000Y-121775000D01*
X148725000Y-121775000D01*
X148744509Y-121773079D01*
X148763268Y-121767388D01*
X148780557Y-121758147D01*
X148795711Y-121745711D01*
X148808147Y-121730557D01*
X148817388Y-121713268D01*
X148823079Y-121694509D01*
X148825000Y-121675000D01*
X148825000Y-118595819D01*
X151820602Y-118595819D01*
X151908874Y-118749335D01*
X152104958Y-118841540D01*
X152315263Y-118893719D01*
X152531706Y-118903867D01*
X152745970Y-118871593D01*
X152949821Y-118798139D01*
X153041126Y-118749335D01*
X153129398Y-118595819D01*
X152475000Y-117941421D01*
X151820602Y-118595819D01*
X148825000Y-118595819D01*
X148825000Y-117856706D01*
X151371133Y-117856706D01*
X151403407Y-118070970D01*
X151476861Y-118274821D01*
X151525665Y-118366126D01*
X151679181Y-118454398D01*
X152333579Y-117800000D01*
X152616421Y-117800000D01*
X153270819Y-118454398D01*
X153424335Y-118366126D01*
X153516540Y-118170042D01*
X153568719Y-117959737D01*
X153577575Y-117770844D01*
X158803533Y-117770844D01*
X158876987Y-117974695D01*
X158988799Y-118160299D01*
X159134672Y-118320523D01*
X159309000Y-118449210D01*
X159505084Y-118541414D01*
X159604156Y-118571467D01*
X159775126Y-118525332D01*
X159775126Y-117599874D01*
X158849668Y-117599874D01*
X158803533Y-117770844D01*
X153577575Y-117770844D01*
X153578867Y-117743294D01*
X153546593Y-117529030D01*
X153473139Y-117325179D01*
X153424335Y-117233874D01*
X153270819Y-117145602D01*
X152616421Y-117800000D01*
X152333579Y-117800000D01*
X151679181Y-117145602D01*
X151525665Y-117233874D01*
X151433460Y-117429958D01*
X151381281Y-117640263D01*
X151371133Y-117856706D01*
X148825000Y-117856706D01*
X148825000Y-117004181D01*
X151820602Y-117004181D01*
X152475000Y-117658579D01*
X153129398Y-117004181D01*
X153041126Y-116850665D01*
X152845042Y-116758460D01*
X152634737Y-116706281D01*
X152418294Y-116696133D01*
X152204030Y-116728407D01*
X152000179Y-116801861D01*
X151908874Y-116850665D01*
X151820602Y-117004181D01*
X148825000Y-117004181D01*
X148825000Y-116850000D01*
X148823079Y-116830491D01*
X148817388Y-116811732D01*
X148808147Y-116794443D01*
X148795711Y-116779289D01*
X148780557Y-116766853D01*
X148763268Y-116757612D01*
X148744509Y-116751921D01*
X148725000Y-116750000D01*
X138875000Y-116750000D01*
X138855491Y-116751921D01*
X138836732Y-116757612D01*
X138819443Y-116766853D01*
X138804289Y-116779289D01*
X138791853Y-116794443D01*
X138782612Y-116811732D01*
X138776921Y-116830491D01*
X138775000Y-116850000D01*
X123452426Y-116850000D01*
X123467977Y-116698522D01*
X124936444Y-115474800D01*
X129430552Y-115449998D01*
X129442507Y-115449215D01*
X129461623Y-115444868D01*
X129551623Y-115414868D01*
X129561132Y-115411149D01*
X129578124Y-115401373D01*
X129648124Y-115351373D01*
X129668320Y-115332177D01*
X129678945Y-115315703D01*
X129686152Y-115297472D01*
X129706152Y-115227472D01*
X129709993Y-115201219D01*
X129708309Y-115181688D01*
X129702848Y-115162861D01*
X129682848Y-115112861D01*
X129668087Y-115087530D01*
X129628087Y-115037530D01*
X129617190Y-115025936D01*
X129601450Y-115014251D01*
X129551450Y-114984251D01*
X129538365Y-114977652D01*
X129519612Y-114971942D01*
X129469612Y-114961942D01*
X129450000Y-114960000D01*
X129440141Y-114960000D01*
X124625137Y-114953209D01*
X124613183Y-114953909D01*
X124594038Y-114958122D01*
X124576082Y-114965988D01*
X124560006Y-114977207D01*
X123029417Y-116286025D01*
X123029143Y-116286134D01*
X123012687Y-116296788D01*
X122998626Y-116310448D01*
X122995424Y-116315093D01*
X122985010Y-116323998D01*
X122965882Y-116345924D01*
X122956949Y-116363374D01*
X122951591Y-116382231D01*
X122950016Y-116401771D01*
X122952282Y-116421243D01*
X122958304Y-116439899D01*
X122965549Y-116452894D01*
X122530293Y-120300000D01*
X120365685Y-120300000D01*
X119896740Y-119831055D01*
X119896735Y-119831049D01*
X119125000Y-119059315D01*
X119125000Y-101915685D01*
X119768950Y-101271735D01*
X119784211Y-101259211D01*
X119834197Y-101198303D01*
X119871340Y-101128814D01*
X119894212Y-101053414D01*
X119900000Y-100994647D01*
X119901935Y-100975000D01*
X119900000Y-100955353D01*
X119900000Y-100148528D01*
X119966050Y-100082478D01*
X120031713Y-99984207D01*
X120076942Y-99875014D01*
X120100000Y-99759095D01*
X120100000Y-99640905D01*
X120076942Y-99524986D01*
X120031713Y-99415793D01*
X119966050Y-99317522D01*
X119882478Y-99233950D01*
X119784207Y-99168287D01*
X119675014Y-99123058D01*
X119559095Y-99100000D01*
X119440905Y-99100000D01*
X119324986Y-99123058D01*
X119215793Y-99168287D01*
X119117522Y-99233950D01*
X119033950Y-99317522D01*
X118968287Y-99415793D01*
X118923058Y-99524986D01*
X118900000Y-99640905D01*
X118900000Y-99759095D01*
X118923058Y-99875014D01*
X118968287Y-99984207D01*
X119033950Y-100082478D01*
X119100000Y-100148528D01*
X119100000Y-100809315D01*
X118456052Y-101453263D01*
X118450001Y-101458229D01*
X118450001Y-101116863D01*
X118525014Y-101101942D01*
X118634207Y-101056713D01*
X118732478Y-100991050D01*
X118816050Y-100907478D01*
X118881713Y-100809207D01*
X118926942Y-100700014D01*
X118950000Y-100584095D01*
X118950000Y-100465905D01*
X118926942Y-100349986D01*
X118881713Y-100240793D01*
X118816050Y-100142522D01*
X118732478Y-100058950D01*
X118634207Y-99993287D01*
X118525014Y-99948058D01*
X118409095Y-99925000D01*
X118290905Y-99925000D01*
X118174986Y-99948058D01*
X118065793Y-99993287D01*
X117967522Y-100058950D01*
X117883950Y-100142522D01*
X117818287Y-100240793D01*
X117773058Y-100349986D01*
X117750000Y-100465905D01*
X117750000Y-100560028D01*
X117715804Y-100601697D01*
X117678661Y-100671186D01*
X117668086Y-100706049D01*
X117655789Y-100746586D01*
X117648066Y-100824999D01*
X66875000Y-100824999D01*
X66875000Y-98145819D01*
X144495602Y-98145819D01*
X144583874Y-98299335D01*
X144779958Y-98391540D01*
X144990263Y-98443719D01*
X145206706Y-98453867D01*
X145420970Y-98421593D01*
X145624821Y-98348139D01*
X145716126Y-98299335D01*
X145804398Y-98145819D01*
X145150000Y-97491421D01*
X144495602Y-98145819D01*
X66875000Y-98145819D01*
X66875000Y-97406706D01*
X144046133Y-97406706D01*
X144078407Y-97620970D01*
X144151861Y-97824821D01*
X144200665Y-97916126D01*
X144354181Y-98004398D01*
X145008579Y-97350000D01*
X145291421Y-97350000D01*
X145945819Y-98004398D01*
X146099335Y-97916126D01*
X146191540Y-97720042D01*
X146243719Y-97509737D01*
X146253867Y-97293294D01*
X146221593Y-97079030D01*
X146148139Y-96875179D01*
X146099335Y-96783874D01*
X145945819Y-96695602D01*
X145291421Y-97350000D01*
X145008579Y-97350000D01*
X144354181Y-96695602D01*
X144200665Y-96783874D01*
X144108460Y-96979958D01*
X144056281Y-97190263D01*
X144046133Y-97406706D01*
X66875000Y-97406706D01*
X66875000Y-96554181D01*
X144495602Y-96554181D01*
X145150000Y-97208579D01*
X145804398Y-96554181D01*
X145716126Y-96400665D01*
X145520042Y-96308460D01*
X145309737Y-96256281D01*
X145093294Y-96246133D01*
X144879030Y-96278407D01*
X144675179Y-96351861D01*
X144583874Y-96400665D01*
X144495602Y-96554181D01*
X66875000Y-96554181D01*
X66875000Y-93050000D01*
X144048549Y-93050000D01*
X144048549Y-94650000D01*
X144054341Y-94708810D01*
X144071496Y-94765360D01*
X144099353Y-94817477D01*
X144136842Y-94863158D01*
X144182523Y-94900647D01*
X144234640Y-94928504D01*
X144291190Y-94945659D01*
X144350000Y-94951451D01*
X145950000Y-94951451D01*
X146008810Y-94945659D01*
X146065360Y-94928504D01*
X146117477Y-94900647D01*
X146163158Y-94863158D01*
X146200647Y-94817477D01*
X146228504Y-94765360D01*
X146245659Y-94708810D01*
X146251451Y-94650000D01*
X146251451Y-93050000D01*
X146245659Y-92991190D01*
X146228504Y-92934640D01*
X146200647Y-92882523D01*
X146163158Y-92836842D01*
X146117477Y-92799353D01*
X146065360Y-92771496D01*
X146008810Y-92754341D01*
X145950000Y-92748549D01*
X144350000Y-92748549D01*
X144291190Y-92754341D01*
X144234640Y-92771496D01*
X144182523Y-92799353D01*
X144136842Y-92836842D01*
X144099353Y-92882523D01*
X144071496Y-92934640D01*
X144054341Y-92991190D01*
X144048549Y-93050000D01*
X66875000Y-93050000D01*
X66875000Y-89886735D01*
X138850000Y-89886735D01*
X138850000Y-90113265D01*
X138894194Y-90335443D01*
X138980884Y-90544729D01*
X139106737Y-90733082D01*
X139266918Y-90893263D01*
X139455271Y-91019116D01*
X139664557Y-91105806D01*
X139886735Y-91150000D01*
X140113265Y-91150000D01*
X140335443Y-91105806D01*
X140544729Y-91019116D01*
X140733082Y-90893263D01*
X140893263Y-90733082D01*
X141019116Y-90544729D01*
X141105806Y-90335443D01*
X141150000Y-90113265D01*
X141150000Y-90000000D01*
X141384436Y-90000000D01*
X141406640Y-90225439D01*
X141472398Y-90442215D01*
X141579184Y-90641997D01*
X141722893Y-90817107D01*
X141898003Y-90960816D01*
X142097785Y-91067602D01*
X142314561Y-91133360D01*
X142483508Y-91150000D01*
X142596492Y-91150000D01*
X142765439Y-91133360D01*
X142982215Y-91067602D01*
X143181997Y-90960816D01*
X143357107Y-90817107D01*
X143500816Y-90641997D01*
X143607602Y-90442215D01*
X143673360Y-90225439D01*
X143695564Y-90000000D01*
X143924436Y-90000000D01*
X143946640Y-90225439D01*
X144012398Y-90442215D01*
X144119184Y-90641997D01*
X144262893Y-90817107D01*
X144438003Y-90960816D01*
X144637785Y-91067602D01*
X144854561Y-91133360D01*
X145023508Y-91150000D01*
X145136492Y-91150000D01*
X145305439Y-91133360D01*
X145522215Y-91067602D01*
X145721997Y-90960816D01*
X145897107Y-90817107D01*
X146040816Y-90641997D01*
X146147602Y-90442215D01*
X146213360Y-90225439D01*
X146235564Y-90000000D01*
X146213360Y-89774561D01*
X146147602Y-89557785D01*
X146040816Y-89358003D01*
X145897107Y-89182893D01*
X145721997Y-89039184D01*
X145522215Y-88932398D01*
X145305439Y-88866640D01*
X145136492Y-88850000D01*
X145023508Y-88850000D01*
X144854561Y-88866640D01*
X144637785Y-88932398D01*
X144438003Y-89039184D01*
X144262893Y-89182893D01*
X144119184Y-89358003D01*
X144012398Y-89557785D01*
X143946640Y-89774561D01*
X143924436Y-90000000D01*
X143695564Y-90000000D01*
X143673360Y-89774561D01*
X143607602Y-89557785D01*
X143500816Y-89358003D01*
X143357107Y-89182893D01*
X143181997Y-89039184D01*
X142982215Y-88932398D01*
X142765439Y-88866640D01*
X142596492Y-88850000D01*
X142483508Y-88850000D01*
X142314561Y-88866640D01*
X142097785Y-88932398D01*
X141898003Y-89039184D01*
X141722893Y-89182893D01*
X141579184Y-89358003D01*
X141472398Y-89557785D01*
X141406640Y-89774561D01*
X141384436Y-90000000D01*
X141150000Y-90000000D01*
X141150000Y-89886735D01*
X141105806Y-89664557D01*
X141019116Y-89455271D01*
X140893263Y-89266918D01*
X140733082Y-89106737D01*
X140544729Y-88980884D01*
X140335443Y-88894194D01*
X140113265Y-88850000D01*
X139886735Y-88850000D01*
X139664557Y-88894194D01*
X139455271Y-88980884D01*
X139266918Y-89106737D01*
X139106737Y-89266918D01*
X138980884Y-89455271D01*
X138894194Y-89664557D01*
X138850000Y-89886735D01*
X66875000Y-89886735D01*
X66875000Y-87460000D01*
X138844436Y-87460000D01*
X138866640Y-87685439D01*
X138932398Y-87902215D01*
X139039184Y-88101997D01*
X139182893Y-88277107D01*
X139358003Y-88420816D01*
X139557785Y-88527602D01*
X139774561Y-88593360D01*
X139943508Y-88610000D01*
X140056492Y-88610000D01*
X140225439Y-88593360D01*
X140442215Y-88527602D01*
X140641997Y-88420816D01*
X140817107Y-88277107D01*
X140960816Y-88101997D01*
X141067602Y-87902215D01*
X141133360Y-87685439D01*
X141155564Y-87460000D01*
X141384436Y-87460000D01*
X141406640Y-87685439D01*
X141472398Y-87902215D01*
X141579184Y-88101997D01*
X141722893Y-88277107D01*
X141898003Y-88420816D01*
X142097785Y-88527602D01*
X142314561Y-88593360D01*
X142483508Y-88610000D01*
X142596492Y-88610000D01*
X142765439Y-88593360D01*
X142982215Y-88527602D01*
X143181997Y-88420816D01*
X143357107Y-88277107D01*
X143500816Y-88101997D01*
X143607602Y-87902215D01*
X143673360Y-87685439D01*
X143695564Y-87460000D01*
X143924436Y-87460000D01*
X143946640Y-87685439D01*
X144012398Y-87902215D01*
X144119184Y-88101997D01*
X144262893Y-88277107D01*
X144438003Y-88420816D01*
X144637785Y-88527602D01*
X144854561Y-88593360D01*
X145023508Y-88610000D01*
X145136492Y-88610000D01*
X145305439Y-88593360D01*
X145522215Y-88527602D01*
X145721997Y-88420816D01*
X145897107Y-88277107D01*
X146040816Y-88101997D01*
X146147602Y-87902215D01*
X146213360Y-87685439D01*
X146235564Y-87460000D01*
X146213360Y-87234561D01*
X146147602Y-87017785D01*
X146040816Y-86818003D01*
X145897107Y-86642893D01*
X145721997Y-86499184D01*
X145522215Y-86392398D01*
X145305439Y-86326640D01*
X145136492Y-86310000D01*
X145023508Y-86310000D01*
X144854561Y-86326640D01*
X144637785Y-86392398D01*
X144438003Y-86499184D01*
X144262893Y-86642893D01*
X144119184Y-86818003D01*
X144012398Y-87017785D01*
X143946640Y-87234561D01*
X143924436Y-87460000D01*
X143695564Y-87460000D01*
X143673360Y-87234561D01*
X143607602Y-87017785D01*
X143500816Y-86818003D01*
X143357107Y-86642893D01*
X143181997Y-86499184D01*
X142982215Y-86392398D01*
X142765439Y-86326640D01*
X142596492Y-86310000D01*
X142483508Y-86310000D01*
X142314561Y-86326640D01*
X142097785Y-86392398D01*
X141898003Y-86499184D01*
X141722893Y-86642893D01*
X141579184Y-86818003D01*
X141472398Y-87017785D01*
X141406640Y-87234561D01*
X141384436Y-87460000D01*
X141155564Y-87460000D01*
X141133360Y-87234561D01*
X141067602Y-87017785D01*
X140960816Y-86818003D01*
X140817107Y-86642893D01*
X140641997Y-86499184D01*
X140442215Y-86392398D01*
X140225439Y-86326640D01*
X140056492Y-86310000D01*
X139943508Y-86310000D01*
X139774561Y-86326640D01*
X139557785Y-86392398D01*
X139358003Y-86499184D01*
X139182893Y-86642893D01*
X139039184Y-86818003D01*
X138932398Y-87017785D01*
X138866640Y-87234561D01*
X138844436Y-87460000D01*
X66875000Y-87460000D01*
X66875000Y-80862112D01*
X79600000Y-80862112D01*
X79600000Y-81137888D01*
X79653801Y-81408365D01*
X79759336Y-81663149D01*
X79912549Y-81892448D01*
X80107552Y-82087451D01*
X80336851Y-82240664D01*
X80591635Y-82346199D01*
X80862112Y-82400000D01*
X81137888Y-82400000D01*
X81408365Y-82346199D01*
X81663149Y-82240664D01*
X81892448Y-82087451D01*
X82087451Y-81892448D01*
X82240664Y-81663149D01*
X82346199Y-81408365D01*
X82400000Y-81137888D01*
X82400000Y-80862112D01*
X129600000Y-80862112D01*
X129600000Y-81137888D01*
X129653801Y-81408365D01*
X129759336Y-81663149D01*
X129912549Y-81892448D01*
X130107552Y-82087451D01*
X130336851Y-82240664D01*
X130591635Y-82346199D01*
X130862112Y-82400000D01*
X131137888Y-82400000D01*
X131408365Y-82346199D01*
X131663149Y-82240664D01*
X131892448Y-82087451D01*
X132087451Y-81892448D01*
X132240664Y-81663149D01*
X132346199Y-81408365D01*
X132400000Y-81137888D01*
X132400000Y-80862112D01*
X132346199Y-80591635D01*
X132240664Y-80336851D01*
X132087451Y-80107552D01*
X131892448Y-79912549D01*
X131663149Y-79759336D01*
X131408365Y-79653801D01*
X131137888Y-79600000D01*
X130862112Y-79600000D01*
X130591635Y-79653801D01*
X130336851Y-79759336D01*
X130107552Y-79912549D01*
X129912549Y-80107552D01*
X129759336Y-80336851D01*
X129653801Y-80591635D01*
X129600000Y-80862112D01*
X82400000Y-80862112D01*
X82346199Y-80591635D01*
X82240664Y-80336851D01*
X82087451Y-80107552D01*
X81892448Y-79912549D01*
X81663149Y-79759336D01*
X81408365Y-79653801D01*
X81137888Y-79600000D01*
X80862112Y-79600000D01*
X80591635Y-79653801D01*
X80336851Y-79759336D01*
X80107552Y-79912549D01*
X79912549Y-80107552D01*
X79759336Y-80336851D01*
X79653801Y-80591635D01*
X79600000Y-80862112D01*
X66875000Y-80862112D01*
X66875000Y-57112112D01*
X80025000Y-57112112D01*
X80025000Y-57387888D01*
X80078801Y-57658365D01*
X80184336Y-57913149D01*
X80337549Y-58142448D01*
X80532552Y-58337451D01*
X80761851Y-58490664D01*
X81016635Y-58596199D01*
X81287112Y-58650000D01*
X81562888Y-58650000D01*
X81833365Y-58596199D01*
X82088149Y-58490664D01*
X82317448Y-58337451D01*
X82512451Y-58142448D01*
X82665664Y-57913149D01*
X82771199Y-57658365D01*
X82825000Y-57387888D01*
X82825000Y-57112112D01*
X142425000Y-57112112D01*
X142425000Y-57387888D01*
X142478801Y-57658365D01*
X142584336Y-57913149D01*
X142737549Y-58142448D01*
X142932552Y-58337451D01*
X143161851Y-58490664D01*
X143416635Y-58596199D01*
X143687112Y-58650000D01*
X143962888Y-58650000D01*
X144233365Y-58596199D01*
X144488149Y-58490664D01*
X144717448Y-58337451D01*
X144912451Y-58142448D01*
X145065664Y-57913149D01*
X145171199Y-57658365D01*
X145225000Y-57387888D01*
X145225000Y-57112112D01*
X145171199Y-56841635D01*
X145065664Y-56586851D01*
X144912451Y-56357552D01*
X144717448Y-56162549D01*
X144488149Y-56009336D01*
X144233365Y-55903801D01*
X143962888Y-55850000D01*
X143687112Y-55850000D01*
X143416635Y-55903801D01*
X143161851Y-56009336D01*
X142932552Y-56162549D01*
X142737549Y-56357552D01*
X142584336Y-56586851D01*
X142478801Y-56841635D01*
X142425000Y-57112112D01*
X82825000Y-57112112D01*
X82771199Y-56841635D01*
X82665664Y-56586851D01*
X82512451Y-56357552D01*
X82317448Y-56162549D01*
X82088149Y-56009336D01*
X81833365Y-55903801D01*
X81562888Y-55850000D01*
X81287112Y-55850000D01*
X81016635Y-55903801D01*
X80761851Y-56009336D01*
X80532552Y-56162549D01*
X80337549Y-56357552D01*
X80184336Y-56586851D01*
X80078801Y-56841635D01*
X80025000Y-57112112D01*
X66875000Y-57112112D01*
X66875000Y-55385897D01*
X66889384Y-55239195D01*
X66927373Y-55113371D01*
X66989076Y-54997325D01*
X67072148Y-54895468D01*
X67173418Y-54811690D01*
X67289027Y-54749181D01*
X67414586Y-54710314D01*
X67560285Y-54695000D01*
X165534103Y-54695000D01*
X165680805Y-54709384D01*
G36*
X166225001Y-112942072D02*
G01*
X166067856Y-112234921D01*
X166036962Y-112153795D01*
X166003405Y-112105498D01*
X165961071Y-112064675D01*
X164886071Y-111214675D01*
X164820052Y-111175068D01*
X164764109Y-111156930D01*
X163164109Y-110806930D01*
X163099183Y-110800001D01*
X153924183Y-110825001D01*
X153856810Y-110832853D01*
X153801125Y-110851769D01*
X153750201Y-110881186D01*
X153705994Y-110919973D01*
X153701737Y-110924520D01*
X149509452Y-107997475D01*
X149500000Y-107099517D01*
X149500000Y-104375000D01*
X162523549Y-104375000D01*
X162523549Y-105575000D01*
X162529341Y-105633810D01*
X162546496Y-105690360D01*
X162574353Y-105742477D01*
X162611842Y-105788158D01*
X162657523Y-105825647D01*
X162709640Y-105853504D01*
X162766190Y-105870659D01*
X162825000Y-105876451D01*
X164525000Y-105876451D01*
X164583810Y-105870659D01*
X164640360Y-105853504D01*
X164692477Y-105825647D01*
X164738158Y-105788158D01*
X164775647Y-105742477D01*
X164803504Y-105690360D01*
X164820659Y-105633810D01*
X164826451Y-105575000D01*
X164826451Y-104375000D01*
X164820659Y-104316190D01*
X164803504Y-104259640D01*
X164775647Y-104207523D01*
X164738158Y-104161842D01*
X164692477Y-104124353D01*
X164640360Y-104096496D01*
X164583810Y-104079341D01*
X164525000Y-104073549D01*
X162825000Y-104073549D01*
X162766190Y-104079341D01*
X162709640Y-104096496D01*
X162657523Y-104124353D01*
X162611842Y-104161842D01*
X162574353Y-104207523D01*
X162546496Y-104259640D01*
X162529341Y-104316190D01*
X162523549Y-104375000D01*
X149500000Y-104375000D01*
X149500000Y-102915905D01*
X151175000Y-102915905D01*
X151175000Y-103034095D01*
X151198058Y-103150014D01*
X151243287Y-103259207D01*
X151308950Y-103357478D01*
X151392522Y-103441050D01*
X151490793Y-103506713D01*
X151599986Y-103551942D01*
X151715905Y-103575000D01*
X151834095Y-103575000D01*
X151950014Y-103551942D01*
X152059207Y-103506713D01*
X152157478Y-103441050D01*
X152198528Y-103400000D01*
X154126472Y-103400000D01*
X154192522Y-103466050D01*
X154290793Y-103531713D01*
X154399986Y-103576942D01*
X154515905Y-103600000D01*
X154634095Y-103600000D01*
X154750014Y-103576942D01*
X154859207Y-103531713D01*
X154957478Y-103466050D01*
X155041050Y-103382478D01*
X155106713Y-103284207D01*
X155151942Y-103175014D01*
X155175000Y-103059095D01*
X155175000Y-102975000D01*
X162520646Y-102975000D01*
X162538023Y-103151431D01*
X162589486Y-103321081D01*
X162673057Y-103477432D01*
X162785525Y-103614475D01*
X162922568Y-103726943D01*
X163078919Y-103810514D01*
X163248569Y-103861977D01*
X163380793Y-103875000D01*
X163969207Y-103875000D01*
X164101431Y-103861977D01*
X164271081Y-103810514D01*
X164427432Y-103726943D01*
X164564475Y-103614475D01*
X164676943Y-103477432D01*
X164760514Y-103321081D01*
X164811977Y-103151431D01*
X164829354Y-102975000D01*
X164811977Y-102798569D01*
X164760514Y-102628919D01*
X164676943Y-102472568D01*
X164564475Y-102335525D01*
X164427432Y-102223057D01*
X164271081Y-102139486D01*
X164101431Y-102088023D01*
X163969207Y-102075000D01*
X163380793Y-102075000D01*
X163248569Y-102088023D01*
X163078919Y-102139486D01*
X162922568Y-102223057D01*
X162785525Y-102335525D01*
X162673057Y-102472568D01*
X162589486Y-102628919D01*
X162538023Y-102798569D01*
X162520646Y-102975000D01*
X155175000Y-102975000D01*
X155175000Y-102940905D01*
X155151942Y-102824986D01*
X155106713Y-102715793D01*
X155041050Y-102617522D01*
X154957478Y-102533950D01*
X154859207Y-102468287D01*
X154750014Y-102423058D01*
X154634095Y-102400000D01*
X154515905Y-102400000D01*
X154399986Y-102423058D01*
X154290793Y-102468287D01*
X154192522Y-102533950D01*
X154126472Y-102600000D01*
X152246047Y-102600000D01*
X152241050Y-102592522D01*
X152157478Y-102508950D01*
X152059207Y-102443287D01*
X151950014Y-102398058D01*
X151834095Y-102375000D01*
X151715905Y-102375000D01*
X151599986Y-102398058D01*
X151490793Y-102443287D01*
X151392522Y-102508950D01*
X151308950Y-102592522D01*
X151243287Y-102690793D01*
X151198058Y-102799986D01*
X151175000Y-102915905D01*
X149500000Y-102915905D01*
X149500000Y-100615905D01*
X155825000Y-100615905D01*
X155825000Y-100734095D01*
X155848058Y-100850014D01*
X155893287Y-100959207D01*
X155958950Y-101057478D01*
X156042522Y-101141050D01*
X156140793Y-101206713D01*
X156249986Y-101251942D01*
X156365905Y-101275000D01*
X156484095Y-101275000D01*
X156600014Y-101251942D01*
X156709207Y-101206713D01*
X156807478Y-101141050D01*
X156873528Y-101075000D01*
X159408137Y-101075000D01*
X159423058Y-101150014D01*
X159468287Y-101259207D01*
X159533950Y-101357478D01*
X159617522Y-101441050D01*
X159715793Y-101506713D01*
X159824986Y-101551942D01*
X159940905Y-101575000D01*
X160059095Y-101575000D01*
X160175014Y-101551942D01*
X160284207Y-101506713D01*
X160382478Y-101441050D01*
X160466050Y-101357478D01*
X160531713Y-101259207D01*
X160576942Y-101150014D01*
X160600000Y-101034095D01*
X160600000Y-100975000D01*
X162520646Y-100975000D01*
X162538023Y-101151431D01*
X162589486Y-101321081D01*
X162673057Y-101477432D01*
X162785525Y-101614475D01*
X162922568Y-101726943D01*
X163078919Y-101810514D01*
X163248569Y-101861977D01*
X163380793Y-101875000D01*
X163969207Y-101875000D01*
X164101431Y-101861977D01*
X164271081Y-101810514D01*
X164427432Y-101726943D01*
X164564475Y-101614475D01*
X164676943Y-101477432D01*
X164760514Y-101321081D01*
X164811977Y-101151431D01*
X164829354Y-100975000D01*
X164811977Y-100798569D01*
X164760514Y-100628919D01*
X164676943Y-100472568D01*
X164564475Y-100335525D01*
X164427432Y-100223057D01*
X164271081Y-100139486D01*
X164101431Y-100088023D01*
X163969207Y-100075000D01*
X163380793Y-100075000D01*
X163248569Y-100088023D01*
X163078919Y-100139486D01*
X162922568Y-100223057D01*
X162785525Y-100335525D01*
X162673057Y-100472568D01*
X162589486Y-100628919D01*
X162538023Y-100798569D01*
X162520646Y-100975000D01*
X160600000Y-100975000D01*
X160600000Y-100915905D01*
X160576942Y-100799986D01*
X160531713Y-100690793D01*
X160466050Y-100592522D01*
X160382478Y-100508950D01*
X160284207Y-100443287D01*
X160175014Y-100398058D01*
X160059095Y-100375000D01*
X159964972Y-100375000D01*
X159923303Y-100340803D01*
X159853814Y-100303660D01*
X159778414Y-100280788D01*
X159719647Y-100275000D01*
X159719646Y-100275000D01*
X159700000Y-100273065D01*
X159680354Y-100275000D01*
X156873528Y-100275000D01*
X156807478Y-100208950D01*
X156709207Y-100143287D01*
X156600014Y-100098058D01*
X156484095Y-100075000D01*
X156365905Y-100075000D01*
X156249986Y-100098058D01*
X156140793Y-100143287D01*
X156042522Y-100208950D01*
X155958950Y-100292522D01*
X155893287Y-100390793D01*
X155848058Y-100499986D01*
X155825000Y-100615905D01*
X149500000Y-100615905D01*
X149500000Y-98975000D01*
X162520646Y-98975000D01*
X162538023Y-99151431D01*
X162589486Y-99321081D01*
X162673057Y-99477432D01*
X162785525Y-99614475D01*
X162922568Y-99726943D01*
X163078919Y-99810514D01*
X163248569Y-99861977D01*
X163380793Y-99875000D01*
X163969207Y-99875000D01*
X164101431Y-99861977D01*
X164271081Y-99810514D01*
X164427432Y-99726943D01*
X164564475Y-99614475D01*
X164676943Y-99477432D01*
X164760514Y-99321081D01*
X164811977Y-99151431D01*
X164829354Y-98975000D01*
X164811977Y-98798569D01*
X164760514Y-98628919D01*
X164676943Y-98472568D01*
X164564475Y-98335525D01*
X164427432Y-98223057D01*
X164271081Y-98139486D01*
X164101431Y-98088023D01*
X163969207Y-98075000D01*
X163380793Y-98075000D01*
X163248569Y-98088023D01*
X163078919Y-98139486D01*
X162922568Y-98223057D01*
X162785525Y-98335525D01*
X162673057Y-98472568D01*
X162589486Y-98628919D01*
X162538023Y-98798569D01*
X162520646Y-98975000D01*
X149500000Y-98975000D01*
X149500000Y-96975000D01*
X162520646Y-96975000D01*
X162538023Y-97151431D01*
X162589486Y-97321081D01*
X162673057Y-97477432D01*
X162785525Y-97614475D01*
X162922568Y-97726943D01*
X163078919Y-97810514D01*
X163248569Y-97861977D01*
X163380793Y-97875000D01*
X163969207Y-97875000D01*
X164101431Y-97861977D01*
X164271081Y-97810514D01*
X164427432Y-97726943D01*
X164564475Y-97614475D01*
X164676943Y-97477432D01*
X164760514Y-97321081D01*
X164811977Y-97151431D01*
X164829354Y-96975000D01*
X164811977Y-96798569D01*
X164760514Y-96628919D01*
X164676943Y-96472568D01*
X164564475Y-96335525D01*
X164427432Y-96223057D01*
X164271081Y-96139486D01*
X164101431Y-96088023D01*
X163969207Y-96075000D01*
X163380793Y-96075000D01*
X163248569Y-96088023D01*
X163078919Y-96139486D01*
X162922568Y-96223057D01*
X162785525Y-96335525D01*
X162673057Y-96472568D01*
X162589486Y-96628919D01*
X162538023Y-96798569D01*
X162520646Y-96975000D01*
X149500000Y-96975000D01*
X149500000Y-94975000D01*
X162520646Y-94975000D01*
X162538023Y-95151431D01*
X162589486Y-95321081D01*
X162673057Y-95477432D01*
X162785525Y-95614475D01*
X162922568Y-95726943D01*
X163078919Y-95810514D01*
X163248569Y-95861977D01*
X163380793Y-95875000D01*
X163969207Y-95875000D01*
X164101431Y-95861977D01*
X164271081Y-95810514D01*
X164427432Y-95726943D01*
X164564475Y-95614475D01*
X164676943Y-95477432D01*
X164760514Y-95321081D01*
X164811977Y-95151431D01*
X164829354Y-94975000D01*
X164811977Y-94798569D01*
X164760514Y-94628919D01*
X164676943Y-94472568D01*
X164564475Y-94335525D01*
X164427432Y-94223057D01*
X164271081Y-94139486D01*
X164101431Y-94088023D01*
X163969207Y-94075000D01*
X163380793Y-94075000D01*
X163248569Y-94088023D01*
X163078919Y-94139486D01*
X162922568Y-94223057D01*
X162785525Y-94335525D01*
X162673057Y-94472568D01*
X162589486Y-94628919D01*
X162538023Y-94798569D01*
X162520646Y-94975000D01*
X149500000Y-94975000D01*
X149500000Y-92975000D01*
X162520646Y-92975000D01*
X162538023Y-93151431D01*
X162589486Y-93321081D01*
X162673057Y-93477432D01*
X162785525Y-93614475D01*
X162922568Y-93726943D01*
X163078919Y-93810514D01*
X163248569Y-93861977D01*
X163380793Y-93875000D01*
X163969207Y-93875000D01*
X164101431Y-93861977D01*
X164271081Y-93810514D01*
X164427432Y-93726943D01*
X164564475Y-93614475D01*
X164676943Y-93477432D01*
X164760514Y-93321081D01*
X164811977Y-93151431D01*
X164829354Y-92975000D01*
X164811977Y-92798569D01*
X164760514Y-92628919D01*
X164676943Y-92472568D01*
X164564475Y-92335525D01*
X164427432Y-92223057D01*
X164271081Y-92139486D01*
X164101431Y-92088023D01*
X163969207Y-92075000D01*
X163380793Y-92075000D01*
X163248569Y-92088023D01*
X163078919Y-92139486D01*
X162922568Y-92223057D01*
X162785525Y-92335525D01*
X162673057Y-92472568D01*
X162589486Y-92628919D01*
X162538023Y-92798569D01*
X162520646Y-92975000D01*
X149500000Y-92975000D01*
X149500000Y-86725000D01*
X166225000Y-86725000D01*
X166225001Y-112942072D01*
X166225001Y-112942072D01*
G37*
X166225001Y-112942072D02*
X166067856Y-112234921D01*
X166036962Y-112153795D01*
X166003405Y-112105498D01*
X165961071Y-112064675D01*
X164886071Y-111214675D01*
X164820052Y-111175068D01*
X164764109Y-111156930D01*
X163164109Y-110806930D01*
X163099183Y-110800001D01*
X153924183Y-110825001D01*
X153856810Y-110832853D01*
X153801125Y-110851769D01*
X153750201Y-110881186D01*
X153705994Y-110919973D01*
X153701737Y-110924520D01*
X149509452Y-107997475D01*
X149500000Y-107099517D01*
X149500000Y-104375000D01*
X162523549Y-104375000D01*
X162523549Y-105575000D01*
X162529341Y-105633810D01*
X162546496Y-105690360D01*
X162574353Y-105742477D01*
X162611842Y-105788158D01*
X162657523Y-105825647D01*
X162709640Y-105853504D01*
X162766190Y-105870659D01*
X162825000Y-105876451D01*
X164525000Y-105876451D01*
X164583810Y-105870659D01*
X164640360Y-105853504D01*
X164692477Y-105825647D01*
X164738158Y-105788158D01*
X164775647Y-105742477D01*
X164803504Y-105690360D01*
X164820659Y-105633810D01*
X164826451Y-105575000D01*
X164826451Y-104375000D01*
X164820659Y-104316190D01*
X164803504Y-104259640D01*
X164775647Y-104207523D01*
X164738158Y-104161842D01*
X164692477Y-104124353D01*
X164640360Y-104096496D01*
X164583810Y-104079341D01*
X164525000Y-104073549D01*
X162825000Y-104073549D01*
X162766190Y-104079341D01*
X162709640Y-104096496D01*
X162657523Y-104124353D01*
X162611842Y-104161842D01*
X162574353Y-104207523D01*
X162546496Y-104259640D01*
X162529341Y-104316190D01*
X162523549Y-104375000D01*
X149500000Y-104375000D01*
X149500000Y-102915905D01*
X151175000Y-102915905D01*
X151175000Y-103034095D01*
X151198058Y-103150014D01*
X151243287Y-103259207D01*
X151308950Y-103357478D01*
X151392522Y-103441050D01*
X151490793Y-103506713D01*
X151599986Y-103551942D01*
X151715905Y-103575000D01*
X151834095Y-103575000D01*
X151950014Y-103551942D01*
X152059207Y-103506713D01*
X152157478Y-103441050D01*
X152198528Y-103400000D01*
X154126472Y-103400000D01*
X154192522Y-103466050D01*
X154290793Y-103531713D01*
X154399986Y-103576942D01*
X154515905Y-103600000D01*
X154634095Y-103600000D01*
X154750014Y-103576942D01*
X154859207Y-103531713D01*
X154957478Y-103466050D01*
X155041050Y-103382478D01*
X155106713Y-103284207D01*
X155151942Y-103175014D01*
X155175000Y-103059095D01*
X155175000Y-102975000D01*
X162520646Y-102975000D01*
X162538023Y-103151431D01*
X162589486Y-103321081D01*
X162673057Y-103477432D01*
X162785525Y-103614475D01*
X162922568Y-103726943D01*
X163078919Y-103810514D01*
X163248569Y-103861977D01*
X163380793Y-103875000D01*
X163969207Y-103875000D01*
X164101431Y-103861977D01*
X164271081Y-103810514D01*
X164427432Y-103726943D01*
X164564475Y-103614475D01*
X164676943Y-103477432D01*
X164760514Y-103321081D01*
X164811977Y-103151431D01*
X164829354Y-102975000D01*
X164811977Y-102798569D01*
X164760514Y-102628919D01*
X164676943Y-102472568D01*
X164564475Y-102335525D01*
X164427432Y-102223057D01*
X164271081Y-102139486D01*
X164101431Y-102088023D01*
X163969207Y-102075000D01*
X163380793Y-102075000D01*
X163248569Y-102088023D01*
X163078919Y-102139486D01*
X162922568Y-102223057D01*
X162785525Y-102335525D01*
X162673057Y-102472568D01*
X162589486Y-102628919D01*
X162538023Y-102798569D01*
X162520646Y-102975000D01*
X155175000Y-102975000D01*
X155175000Y-102940905D01*
X155151942Y-102824986D01*
X155106713Y-102715793D01*
X155041050Y-102617522D01*
X154957478Y-102533950D01*
X154859207Y-102468287D01*
X154750014Y-102423058D01*
X154634095Y-102400000D01*
X154515905Y-102400000D01*
X154399986Y-102423058D01*
X154290793Y-102468287D01*
X154192522Y-102533950D01*
X154126472Y-102600000D01*
X152246047Y-102600000D01*
X152241050Y-102592522D01*
X152157478Y-102508950D01*
X152059207Y-102443287D01*
X151950014Y-102398058D01*
X151834095Y-102375000D01*
X151715905Y-102375000D01*
X151599986Y-102398058D01*
X151490793Y-102443287D01*
X151392522Y-102508950D01*
X151308950Y-102592522D01*
X151243287Y-102690793D01*
X151198058Y-102799986D01*
X151175000Y-102915905D01*
X149500000Y-102915905D01*
X149500000Y-100615905D01*
X155825000Y-100615905D01*
X155825000Y-100734095D01*
X155848058Y-100850014D01*
X155893287Y-100959207D01*
X155958950Y-101057478D01*
X156042522Y-101141050D01*
X156140793Y-101206713D01*
X156249986Y-101251942D01*
X156365905Y-101275000D01*
X156484095Y-101275000D01*
X156600014Y-101251942D01*
X156709207Y-101206713D01*
X156807478Y-101141050D01*
X156873528Y-101075000D01*
X159408137Y-101075000D01*
X159423058Y-101150014D01*
X159468287Y-101259207D01*
X159533950Y-101357478D01*
X159617522Y-101441050D01*
X159715793Y-101506713D01*
X159824986Y-101551942D01*
X159940905Y-101575000D01*
X160059095Y-101575000D01*
X160175014Y-101551942D01*
X160284207Y-101506713D01*
X160382478Y-101441050D01*
X160466050Y-101357478D01*
X160531713Y-101259207D01*
X160576942Y-101150014D01*
X160600000Y-101034095D01*
X160600000Y-100975000D01*
X162520646Y-100975000D01*
X162538023Y-101151431D01*
X162589486Y-101321081D01*
X162673057Y-101477432D01*
X162785525Y-101614475D01*
X162922568Y-101726943D01*
X163078919Y-101810514D01*
X163248569Y-101861977D01*
X163380793Y-101875000D01*
X163969207Y-101875000D01*
X164101431Y-101861977D01*
X164271081Y-101810514D01*
X164427432Y-101726943D01*
X164564475Y-101614475D01*
X164676943Y-101477432D01*
X164760514Y-101321081D01*
X164811977Y-101151431D01*
X164829354Y-100975000D01*
X164811977Y-100798569D01*
X164760514Y-100628919D01*
X164676943Y-100472568D01*
X164564475Y-100335525D01*
X164427432Y-100223057D01*
X164271081Y-100139486D01*
X164101431Y-100088023D01*
X163969207Y-100075000D01*
X163380793Y-100075000D01*
X163248569Y-100088023D01*
X163078919Y-100139486D01*
X162922568Y-100223057D01*
X162785525Y-100335525D01*
X162673057Y-100472568D01*
X162589486Y-100628919D01*
X162538023Y-100798569D01*
X162520646Y-100975000D01*
X160600000Y-100975000D01*
X160600000Y-100915905D01*
X160576942Y-100799986D01*
X160531713Y-100690793D01*
X160466050Y-100592522D01*
X160382478Y-100508950D01*
X160284207Y-100443287D01*
X160175014Y-100398058D01*
X160059095Y-100375000D01*
X159964972Y-100375000D01*
X159923303Y-100340803D01*
X159853814Y-100303660D01*
X159778414Y-100280788D01*
X159719647Y-100275000D01*
X159719646Y-100275000D01*
X159700000Y-100273065D01*
X159680354Y-100275000D01*
X156873528Y-100275000D01*
X156807478Y-100208950D01*
X156709207Y-100143287D01*
X156600014Y-100098058D01*
X156484095Y-100075000D01*
X156365905Y-100075000D01*
X156249986Y-100098058D01*
X156140793Y-100143287D01*
X156042522Y-100208950D01*
X155958950Y-100292522D01*
X155893287Y-100390793D01*
X155848058Y-100499986D01*
X155825000Y-100615905D01*
X149500000Y-100615905D01*
X149500000Y-98975000D01*
X162520646Y-98975000D01*
X162538023Y-99151431D01*
X162589486Y-99321081D01*
X162673057Y-99477432D01*
X162785525Y-99614475D01*
X162922568Y-99726943D01*
X163078919Y-99810514D01*
X163248569Y-99861977D01*
X163380793Y-99875000D01*
X163969207Y-99875000D01*
X164101431Y-99861977D01*
X164271081Y-99810514D01*
X164427432Y-99726943D01*
X164564475Y-99614475D01*
X164676943Y-99477432D01*
X164760514Y-99321081D01*
X164811977Y-99151431D01*
X164829354Y-98975000D01*
X164811977Y-98798569D01*
X164760514Y-98628919D01*
X164676943Y-98472568D01*
X164564475Y-98335525D01*
X164427432Y-98223057D01*
X164271081Y-98139486D01*
X164101431Y-98088023D01*
X163969207Y-98075000D01*
X163380793Y-98075000D01*
X163248569Y-98088023D01*
X163078919Y-98139486D01*
X162922568Y-98223057D01*
X162785525Y-98335525D01*
X162673057Y-98472568D01*
X162589486Y-98628919D01*
X162538023Y-98798569D01*
X162520646Y-98975000D01*
X149500000Y-98975000D01*
X149500000Y-96975000D01*
X162520646Y-96975000D01*
X162538023Y-97151431D01*
X162589486Y-97321081D01*
X162673057Y-97477432D01*
X162785525Y-97614475D01*
X162922568Y-97726943D01*
X163078919Y-97810514D01*
X163248569Y-97861977D01*
X163380793Y-97875000D01*
X163969207Y-97875000D01*
X164101431Y-97861977D01*
X164271081Y-97810514D01*
X164427432Y-97726943D01*
X164564475Y-97614475D01*
X164676943Y-97477432D01*
X164760514Y-97321081D01*
X164811977Y-97151431D01*
X164829354Y-96975000D01*
X164811977Y-96798569D01*
X164760514Y-96628919D01*
X164676943Y-96472568D01*
X164564475Y-96335525D01*
X164427432Y-96223057D01*
X164271081Y-96139486D01*
X164101431Y-96088023D01*
X163969207Y-96075000D01*
X163380793Y-96075000D01*
X163248569Y-96088023D01*
X163078919Y-96139486D01*
X162922568Y-96223057D01*
X162785525Y-96335525D01*
X162673057Y-96472568D01*
X162589486Y-96628919D01*
X162538023Y-96798569D01*
X162520646Y-96975000D01*
X149500000Y-96975000D01*
X149500000Y-94975000D01*
X162520646Y-94975000D01*
X162538023Y-95151431D01*
X162589486Y-95321081D01*
X162673057Y-95477432D01*
X162785525Y-95614475D01*
X162922568Y-95726943D01*
X163078919Y-95810514D01*
X163248569Y-95861977D01*
X163380793Y-95875000D01*
X163969207Y-95875000D01*
X164101431Y-95861977D01*
X164271081Y-95810514D01*
X164427432Y-95726943D01*
X164564475Y-95614475D01*
X164676943Y-95477432D01*
X164760514Y-95321081D01*
X164811977Y-95151431D01*
X164829354Y-94975000D01*
X164811977Y-94798569D01*
X164760514Y-94628919D01*
X164676943Y-94472568D01*
X164564475Y-94335525D01*
X164427432Y-94223057D01*
X164271081Y-94139486D01*
X164101431Y-94088023D01*
X163969207Y-94075000D01*
X163380793Y-94075000D01*
X163248569Y-94088023D01*
X163078919Y-94139486D01*
X162922568Y-94223057D01*
X162785525Y-94335525D01*
X162673057Y-94472568D01*
X162589486Y-94628919D01*
X162538023Y-94798569D01*
X162520646Y-94975000D01*
X149500000Y-94975000D01*
X149500000Y-92975000D01*
X162520646Y-92975000D01*
X162538023Y-93151431D01*
X162589486Y-93321081D01*
X162673057Y-93477432D01*
X162785525Y-93614475D01*
X162922568Y-93726943D01*
X163078919Y-93810514D01*
X163248569Y-93861977D01*
X163380793Y-93875000D01*
X163969207Y-93875000D01*
X164101431Y-93861977D01*
X164271081Y-93810514D01*
X164427432Y-93726943D01*
X164564475Y-93614475D01*
X164676943Y-93477432D01*
X164760514Y-93321081D01*
X164811977Y-93151431D01*
X164829354Y-92975000D01*
X164811977Y-92798569D01*
X164760514Y-92628919D01*
X164676943Y-92472568D01*
X164564475Y-92335525D01*
X164427432Y-92223057D01*
X164271081Y-92139486D01*
X164101431Y-92088023D01*
X163969207Y-92075000D01*
X163380793Y-92075000D01*
X163248569Y-92088023D01*
X163078919Y-92139486D01*
X162922568Y-92223057D01*
X162785525Y-92335525D01*
X162673057Y-92472568D01*
X162589486Y-92628919D01*
X162538023Y-92798569D01*
X162520646Y-92975000D01*
X149500000Y-92975000D01*
X149500000Y-86725000D01*
X166225000Y-86725000D01*
X166225001Y-112942072D01*
M02*
