M48
; DRILL file {KiCad (5.1.2)-2} date 12/09/2019 15:30:05
; FORMAT={-:-/ absolute / inch / decimal}
; #@! TF.CreationDate,2019-09-12T15:30:05+01:00
; #@! TF.GenerationSoftware,Kicad,Pcbnew,(5.1.2)-2
FMAT,2
INCH
T1C0.0118
T2C0.0236
T3C0.0295
T4C0.0315
T5C0.0394
T6C0.0650
T7C0.0866
%
G90
G05
T1
X2.9528Y-3.5433
X2.9528Y-3.7402
X2.9528Y-3.937
X2.9528Y-4.1339
X2.9528Y-4.3307
X2.9528Y-4.5276
X2.9528Y-4.7244
X3.1496Y-3.5433
X3.1496Y-3.7402
X3.1496Y-3.937
X3.1496Y-4.1339
X3.1496Y-4.3307
X3.1496Y-4.5276
X3.1496Y-4.7244
X3.3465Y-3.5433
X3.3465Y-3.7402
X3.3465Y-3.937
X3.3465Y-4.1339
X3.3465Y-4.3307
X3.3465Y-4.5276
X3.3465Y-4.7244
X3.5433Y-3.1496
X3.5433Y-3.3465
X3.5433Y-3.5433
X3.5433Y-3.7402
X3.5433Y-3.937
X3.5433Y-4.1339
X3.5433Y-4.3307
X3.5433Y-4.5276
X3.5433Y-4.7244
X3.5433Y-4.9213
X3.7402Y-3.1496
X3.7402Y-3.3465
X3.7402Y-3.5433
X3.7402Y-3.7402
X3.7402Y-3.937
X3.7402Y-4.1339
X3.7402Y-4.3307
X3.7402Y-4.5276
X3.7402Y-4.7244
X3.7402Y-4.9213
X3.937Y-3.1496
X3.937Y-3.3465
X3.937Y-3.5433
X3.937Y-3.7402
X3.937Y-3.937
X3.937Y-4.1339
X3.937Y-4.3307
X3.937Y-4.5276
X3.937Y-4.7244
X3.937Y-4.9213
X4.1339Y-3.1496
X4.1339Y-3.3465
X4.1339Y-3.5433
X4.1339Y-3.7402
X4.1339Y-3.937
X4.1339Y-4.1339
X4.1339Y-4.3307
X4.1339Y-4.5276
X4.1339Y-4.7244
X4.1339Y-4.9213
X4.4488Y-3.9764
X4.4488Y-4.0551
X4.4488Y-4.1339
X4.4488Y-4.2126
X4.4488Y-4.2913
X4.4488Y-4.3701
X4.4488Y-4.4488
X4.4488Y-4.5276
X4.4488Y-4.6063
X4.4488Y-4.685
X4.4488Y-4.7638
X4.4488Y-4.8425
X4.5276Y-3.9764
X4.5276Y-4.0551
X4.5276Y-4.1339
X4.5276Y-4.2126
X4.5276Y-4.2913
X4.5276Y-4.3701
X4.5276Y-4.4488
X4.5276Y-4.5276
X4.5276Y-4.6063
X4.5276Y-4.685
X4.5276Y-4.7638
X4.5276Y-4.8425
X4.6063Y-3.9764
X4.6063Y-4.0551
X4.6063Y-4.1339
X4.6063Y-4.2126
X4.6063Y-4.2913
X4.6063Y-4.3701
X4.6063Y-4.4488
X4.6063Y-4.5276
X4.6063Y-4.6063
X4.6063Y-4.685
X4.6063Y-4.7638
X4.6063Y-4.8425
X4.6594Y-3.9577
X4.685Y-4.8425
X4.7047Y-3.9252
X4.8425Y-4.3583
X4.8425Y-4.3976
X4.8425Y-4.437
X4.8425Y-4.4764
X4.8425Y-4.5118
X4.8811Y-4.4374
X4.8811Y-4.4768
X4.8819Y-4.3189
X4.8819Y-4.3583
X4.8819Y-4.3976
X4.8819Y-4.5118
X4.8868Y-4.8327
X4.9006Y-4.752
X4.9055Y-4.5846
X4.9205Y-4.2406
X4.9205Y-4.2799
X4.9205Y-4.398
X4.9205Y-4.4374
X4.9205Y-4.4768
X4.9213Y-4.1614
X4.9213Y-4.2008
X4.9213Y-4.3189
X4.9213Y-4.3583
X4.9213Y-4.5118
X4.9409Y-4.7756
X4.9524Y-3.4244
X4.9524Y-3.4638
X4.9524Y-3.5031
X4.9524Y-3.5425
X4.9524Y-3.5819
X4.9524Y-3.6213
X4.9524Y-3.6606
X4.9528Y-3.3858
X4.9528Y-3.7008
X4.9528Y-3.7402
X4.9567Y-4.3193
X4.9598Y-4.2406
X4.9598Y-4.2799
X4.9598Y-4.398
X4.9598Y-4.4374
X4.9598Y-4.4768
X4.9606Y-4.1614
X4.9606Y-4.2008
X4.9606Y-4.5118
X4.9917Y-3.4244
X4.9917Y-3.4638
X4.9917Y-3.5031
X4.9917Y-3.5425
X4.9917Y-3.5819
X4.9917Y-3.6213
X4.9917Y-3.6606
X4.9921Y-3.3858
X4.9921Y-3.7008
X4.9921Y-3.7402
X4.9992Y-4.4374
X4.9992Y-4.4768
X5.0Y-4.3583
X5.0Y-4.5118
X5.0315Y-3.7008
X5.0315Y-3.7402
X5.0386Y-4.398
X5.0386Y-4.4374
X5.0386Y-4.4768
X5.0394Y-3.937
X5.0394Y-4.0157
X5.0394Y-4.0945
X5.1181Y-3.937
X5.1181Y-4.0157
X5.1181Y-4.0945
X5.1252Y-4.5417
X5.1252Y-4.5791
X5.1606Y-4.5791
X5.1628Y-4.5415
X5.1862Y-4.7831
X5.1969Y-3.937
X5.1969Y-4.0157
X5.1969Y-4.0945
X5.2Y-4.5417
X5.2Y-4.5791
X5.2374Y-4.5417
X5.2374Y-4.5791
X5.2756Y-3.937
X5.2756Y-4.0157
X5.2756Y-4.0945
X5.3543Y-4.0157
X5.3543Y-4.0945
X5.3937Y-3.8583
X5.3937Y-3.937
X5.4724Y-3.7795
X5.4724Y-3.937
X5.5512Y-3.7795
X5.5512Y-3.8583
X5.5512Y-3.937
X5.6299Y-3.7795
X5.6299Y-3.8583
X5.6299Y-3.937
X5.9754Y-4.0541
X6.0374Y-4.1821
X6.0856Y-4.0551
X6.1585Y-3.9636
X6.2352Y-4.1309
X6.2884Y-4.0207
X6.2963Y-3.8976
X6.2972Y-3.6634
X6.2992Y-3.7362
X6.2992Y-3.814
X6.2992Y-3.9754
T2
X5.5541Y-4.9404
X5.5541Y-4.9904
X5.5541Y-5.0404
T3
X6.4439Y-3.6604
X6.4439Y-3.7392
X6.4439Y-3.8179
X6.4439Y-3.8967
X6.4439Y-3.9754
X6.4439Y-4.0541
X6.4439Y-4.1329
T4
X6.2943Y-4.626
X6.3917Y-4.5285
X5.7146Y-3.6949
X5.7146Y-3.8327
X6.0059Y-4.503
X6.0059Y-4.6407
T5
X5.5118Y-4.0398
X5.5118Y-4.1398
X5.6118Y-4.0398
X5.6118Y-4.1398
X5.7118Y-4.0398
X5.7118Y-4.1398
X5.8118Y-4.0398
X5.8118Y-4.1398
X5.5118Y-4.6441
X5.5118Y-4.7441
X5.6118Y-4.6441
X5.6118Y-4.7441
X5.7118Y-4.6441
X5.7118Y-4.7441
X5.8118Y-4.6441
X5.8118Y-4.7441
X5.5118Y-3.4433
X5.5118Y-3.5433
X5.6118Y-3.4433
X5.6118Y-3.5433
X5.7118Y-3.4433
X5.7118Y-3.5433
X5.8118Y-3.4433
X5.8118Y-3.5433
T6
X6.3858Y-4.9051
X6.3858Y-5.061
T7
X5.1575Y-3.189
X3.189Y-3.189
X5.1575Y-4.9606
X3.189Y-4.9606
X3.2057Y-5.937
X3.2057Y-2.2539
X5.6624Y-2.2539
X5.6634Y-5.937
T0
M30
