G04 #@! TF.GenerationSoftware,KiCad,Pcbnew,(5.1.2)-2*
G04 #@! TF.CreationDate,2019-09-12T15:30:06+01:00*
G04 #@! TF.ProjectId,DCStepDown,44435374-6570-4446-9f77-6e2e6b696361,rev?*
G04 #@! TF.SameCoordinates,Original*
G04 #@! TF.FileFunction,Soldermask,Bot*
G04 #@! TF.FilePolarity,Negative*
%FSLAX46Y46*%
G04 Gerber Fmt 4.6, Leading zero omitted, Abs format (unit mm)*
G04 Created by KiCad (PCBNEW (5.1.2)-2) date 2019-09-12 15:30:06*
%MOMM*%
%LPD*%
G04 APERTURE LIST*
%ADD10C,0.100000*%
%ADD11O,3.000000X2.350000*%
%ADD12R,1.600000X1.600000*%
%ADD13C,1.600000*%
%ADD14C,2.200000*%
%ADD15C,1.700000*%
%ADD16O,1.700000X1.700000*%
%ADD17R,1.700000X1.200000*%
%ADD18O,1.700000X1.200000*%
%ADD19O,1.500000X0.900000*%
%ADD20R,1.500000X0.900000*%
G04 APERTURE END LIST*
D10*
G36*
X153425000Y-119600000D02*
G01*
X157300000Y-122200000D01*
X160600000Y-126325000D01*
X160600000Y-126950000D01*
X160025000Y-127775000D01*
X159850000Y-129325000D01*
X159225000Y-129825000D01*
X154600000Y-129525000D01*
X149475000Y-128250000D01*
X146675000Y-125775000D01*
X144725000Y-123925000D01*
X144700000Y-123100000D01*
X145650000Y-122275000D01*
X149325000Y-122250000D01*
X149350000Y-120200000D01*
X149975000Y-119575000D01*
X153425000Y-119600000D01*
G37*
X153425000Y-119600000D02*
X157300000Y-122200000D01*
X160600000Y-126325000D01*
X160600000Y-126950000D01*
X160025000Y-127775000D01*
X159850000Y-129325000D01*
X159225000Y-129825000D01*
X154600000Y-129525000D01*
X149475000Y-128250000D01*
X146675000Y-125775000D01*
X144725000Y-123925000D01*
X144700000Y-123100000D01*
X145650000Y-122275000D01*
X149325000Y-122250000D01*
X149350000Y-120200000D01*
X149975000Y-119575000D01*
X153425000Y-119600000D01*
G36*
X162600000Y-112250000D02*
G01*
X162625000Y-112875000D01*
X159725000Y-115750000D01*
X154275000Y-115725000D01*
X153825000Y-115300000D01*
X153825000Y-112375000D01*
X154325000Y-111950000D01*
X162225000Y-111950000D01*
X162600000Y-112250000D01*
G37*
X162600000Y-112250000D02*
X162625000Y-112875000D01*
X159725000Y-115750000D01*
X154275000Y-115725000D01*
X153825000Y-115300000D01*
X153825000Y-112375000D01*
X154325000Y-111950000D01*
X162225000Y-111950000D01*
X162600000Y-112250000D01*
G36*
X165500000Y-115250000D02*
G01*
X165500000Y-122150000D01*
X164950000Y-122625000D01*
X162100000Y-122625000D01*
X161575000Y-122175000D01*
X161575000Y-118225000D01*
X161935937Y-117410841D01*
X164375000Y-114950000D01*
X164975000Y-114925000D01*
X165500000Y-115250000D01*
G37*
X165500000Y-115250000D02*
X165500000Y-122150000D01*
X164950000Y-122625000D01*
X162100000Y-122625000D01*
X161575000Y-122175000D01*
X161575000Y-118225000D01*
X161935937Y-117410841D01*
X164375000Y-114950000D01*
X164975000Y-114925000D01*
X165500000Y-115250000D01*
D11*
X162200000Y-128550000D03*
X162200000Y-124590000D03*
D12*
X152550000Y-114375000D03*
D13*
X152550000Y-117875000D03*
D14*
X131000000Y-81000000D03*
X81000000Y-81000000D03*
X81000000Y-126000000D03*
X131000000Y-126000000D03*
X81425000Y-57250000D03*
X81425000Y-150800000D03*
X143850000Y-150800000D03*
X143825000Y-57250000D03*
D13*
X162350000Y-115025000D03*
D10*
G36*
X162350000Y-113893629D02*
G01*
X163481371Y-115025000D01*
X162350000Y-116156371D01*
X161218629Y-115025000D01*
X162350000Y-113893629D01*
X162350000Y-113893629D01*
G37*
D13*
X159875126Y-117499874D03*
D15*
X140000000Y-105150000D03*
D16*
X140000000Y-102610000D03*
X142540000Y-105150000D03*
X142540000Y-102610000D03*
X145080000Y-105150000D03*
X145080000Y-102610000D03*
X147620000Y-105150000D03*
X147620000Y-102610000D03*
D17*
X163675000Y-104975000D03*
D18*
X163675000Y-102975000D03*
X163675000Y-100975000D03*
X163675000Y-98975000D03*
X163675000Y-96975000D03*
X163675000Y-94975000D03*
X163675000Y-92975000D03*
D19*
X141075000Y-126755000D03*
X141075000Y-125485000D03*
D20*
X141075000Y-128025000D03*
D12*
X145150000Y-93850000D03*
D13*
X145150000Y-97350000D03*
D15*
X140000000Y-120500000D03*
D16*
X140000000Y-117960000D03*
X142540000Y-120500000D03*
X142540000Y-117960000D03*
X145080000Y-120500000D03*
X145080000Y-117960000D03*
X147620000Y-120500000D03*
X147620000Y-117960000D03*
D15*
X140000000Y-90000000D03*
D16*
X140000000Y-87460000D03*
X142540000Y-90000000D03*
X142540000Y-87460000D03*
X145080000Y-90000000D03*
X145080000Y-87460000D03*
X147620000Y-90000000D03*
X147620000Y-87460000D03*
M02*
